<svg width="30" height="31" viewBox="0 0 30 31" fill="none" xmlns="http://www.w3.org/2000/svg">
<path fill-rule="evenodd" clip-rule="evenodd" d="M19.6122 24.2413C19.6307 24.232 19.6503 24.224 19.67 24.2159C19.6896 24.2078 19.7092 24.1997 19.7277 24.1905C20.0278 24.0151 20.3094 23.8119 20.5679 23.5811C21.2029 23.0177 21.8378 22.4532 22.4727 21.8887L22.4755 21.8862C23.1093 21.3227 23.743 20.7593 24.3768 20.197C24.4385 20.1424 24.5003 20.0874 24.5621 20.0324C24.7406 19.8736 24.9198 19.7142 25.1016 19.5599C25.1755 19.4952 25.2078 19.4167 25.2309 19.3336C25.2488 19.268 25.2671 19.2023 25.2855 19.1365L25.2855 19.1365C25.3523 18.8973 25.4192 18.6575 25.4663 18.4149C25.5163 18.1757 25.547 17.931 25.5775 17.6871C25.5865 17.6156 25.5954 17.5442 25.6048 17.4731C25.6602 17.076 25.6695 16.679 25.6464 16.2773C25.6334 16.0401 25.609 15.8029 25.5844 15.5641L25.5843 15.564L25.5843 15.5636C25.574 15.4633 25.5636 15.3627 25.554 15.2616C25.5171 14.9246 25.4432 14.5922 25.3555 14.2644C25.3001 14.0428 25.2309 13.8212 25.1616 13.6088C25.0693 13.3318 25.2309 13.0086 25.4986 12.8978C25.8264 12.7593 26.1588 12.9578 26.2512 13.1979C26.3112 13.3503 26.3666 13.5119 26.4128 13.6688C26.4682 13.8535 26.5143 14.0382 26.5559 14.2275C26.6205 14.5368 26.6805 14.8415 26.7267 15.1508C26.819 15.7279 26.8514 16.3096 26.8237 16.896C26.8106 17.1577 26.7859 17.4171 26.7611 17.6775C26.7509 17.7845 26.7407 17.8918 26.7313 17.9994C26.7295 18.0231 26.727 18.0467 26.7243 18.0718C26.7201 18.1103 26.7157 18.1522 26.7129 18.2025C26.7288 18.1982 26.7429 18.1947 26.7556 18.1916C26.7835 18.1849 26.8047 18.1797 26.8237 18.1702C27.1284 18.0225 27.4562 17.9624 27.7886 17.9671C28.1256 17.9717 28.4488 18.0455 28.7489 18.1979C29.229 18.438 29.5799 18.8073 29.8015 19.2967C29.8471 19.3976 29.8766 19.5053 29.9062 19.6135L29.9062 19.6136C29.9186 19.6588 29.931 19.7042 29.9446 19.7491C30.0185 19.9892 30.0046 20.2431 29.9816 20.4832C29.9585 20.7094 29.8892 20.931 29.7923 21.1388C29.663 21.4204 29.4737 21.6605 29.2521 21.8775C28.5414 22.5674 27.8307 23.2585 27.12 23.9496L27.1165 23.953C26.4064 24.6435 25.6963 25.334 24.9862 26.0234C24.8197 26.1843 24.6536 26.3461 24.4875 26.5079L24.4874 26.508C24.1007 26.8847 23.7135 27.2619 23.3195 27.63C22.7794 28.1332 22.1746 28.5534 21.5236 28.895C21.2143 29.0566 20.8957 29.2089 20.5725 29.3428C20.1893 29.4998 19.7969 29.6245 19.3953 29.7214C18.952 29.8276 18.5088 29.9061 18.0564 29.9569C17.7471 29.9938 17.4377 30.0077 17.1284 30.003H1.7268C1.10815 30.003 0.623388 29.7399 0.281745 29.2228C0.106307 28.955 0.0139715 28.6595 0.0139715 28.3364C0.0139715 27.7559 0.0136831 27.1754 0.0133946 26.5949C0.0125289 24.8529 0.0116629 23.1102 0.0185884 21.365C0.0232052 20.6402 0.392548 20.1323 1.0389 19.8276C1.25589 19.7261 1.48673 19.6937 1.7268 19.6937C2.15414 19.6968 2.58148 19.6958 3.01019 19.6948H3.01061L3.01197 19.6948C3.22645 19.6943 3.44128 19.6937 3.65662 19.6937C3.74506 19.6937 3.83351 19.6935 3.92188 19.6932L3.92341 19.6932H3.92343C4.18974 19.6923 4.45541 19.6914 4.71848 19.6984C5.19401 19.7122 5.58644 19.9061 5.90961 20.257C5.99426 20.3506 5.99722 20.3495 6.10521 20.312L6.11737 20.3078C6.34821 20.2201 6.57905 20.137 6.8145 20.0539C6.90222 20.0215 6.91146 20.0123 6.88375 19.9153C6.85706 19.8253 6.82977 19.7358 6.80252 19.6465L6.80248 19.6463L6.80246 19.6463C6.75433 19.4885 6.70636 19.3312 6.66215 19.172C6.60675 18.9781 6.56058 18.7796 6.52826 18.5765L6.50889 18.4563C6.45479 18.1215 6.40015 17.7835 6.37129 17.4454C6.33897 17.0899 6.33897 16.7298 6.33897 16.3697C6.33897 15.7602 6.41746 15.1554 6.53288 14.5553C6.61598 14.1444 6.72678 13.7381 6.85605 13.3364C7.11459 12.5562 7.46547 11.8175 7.89945 11.1204C8.33343 10.4278 8.85512 9.79996 9.43684 9.22287C10.0648 8.59726 10.6915 7.9705 11.3183 7.34373L11.3187 7.34335C11.9452 6.71678 12.5718 6.09021 13.1995 5.4648L13.2549 5.4094C13.3057 5.36785 13.3057 5.32168 13.2826 5.26166L13.2825 5.26141C13.1718 4.94755 13.061 4.6337 12.9548 4.32445C12.9098 4.19516 12.8639 4.06586 12.8179 3.93621L12.8178 3.93591C12.7554 3.76012 12.6927 3.58368 12.6317 3.40571C12.5786 3.25335 12.5255 3.09984 12.4724 2.94633C12.4193 2.79282 12.3662 2.63932 12.3131 2.48697C12.2916 2.42541 12.2705 2.36385 12.2495 2.3023C12.2074 2.17918 12.1654 2.05607 12.1192 1.93295C11.9068 1.37894 12.1469 0.787991 12.6917 0.561768C13.0656 0.404797 13.4211 0.460199 13.7443 0.709505C13.7615 0.723062 13.7785 0.736795 13.7954 0.750497L13.7955 0.750519C13.8651 0.806807 13.9341 0.862572 14.0121 0.903411C14.2291 1.0096 14.4414 0.986513 14.64 0.848009C14.6791 0.821927 14.7182 0.787659 14.7535 0.756766L14.76 0.751056C15.0324 0.487899 15.3509 0.298611 15.7064 0.169341C16.0989 0.0262204 16.5051 -0.0199474 16.916 0.0354541C17.3869 0.0954724 17.8209 0.27091 18.1949 0.571002C18.2826 0.640253 18.3703 0.718739 18.4534 0.797224C18.6012 0.931111 18.7766 0.981896 18.9751 0.958812C19.0952 0.944962 19.1921 0.894177 19.2845 0.820308C19.2997 0.807915 19.315 0.795324 19.3303 0.782699L19.3304 0.782573C19.3891 0.734101 19.4485 0.685133 19.5107 0.64487C20.0601 0.284761 20.8172 0.529451 21.0527 1.1481C21.145 1.38817 21.145 1.63286 21.0665 1.87294C20.9419 2.23952 20.8143 2.6032 20.6862 2.96859L20.5864 3.25336C20.4685 3.58848 20.3536 3.92654 20.2393 4.26286L20.1524 4.51836C20.131 4.57933 20.1098 4.64002 20.0887 4.70051L20.0884 4.70123L20.0883 4.7015C20.0233 4.888 19.9589 5.07252 19.8892 5.25704C19.8569 5.34015 19.8892 5.38631 19.9447 5.44171L19.945 5.44207C20.3281 5.82515 20.7112 6.20822 21.0988 6.59129L23.1349 8.6273C23.2272 8.71964 23.3103 8.81197 23.3518 8.94124C23.4303 9.19516 23.3149 9.48602 23.0841 9.61991C22.8809 9.73533 22.5716 9.72148 22.3685 9.51834C22.1931 9.33991 22.0178 9.16558 21.8424 8.99126L21.8422 8.99102C21.7544 8.90381 21.6667 8.81659 21.579 8.72887C21.291 8.44087 21.003 8.15338 20.7152 7.86607L20.7149 7.86575C20.14 7.29189 19.5658 6.7187 18.9936 6.14347C18.9105 6.06036 18.8274 6.02805 18.712 6.02805C17.29 6.03266 15.868 6.03266 14.4461 6.02805C14.3399 6.02805 14.266 6.06036 14.1921 6.13423C13.7473 6.57903 13.3025 7.02434 12.8577 7.46965L12.8571 7.47027C11.9679 8.36054 11.0786 9.25082 10.1894 10.137C9.49224 10.8341 8.91514 11.619 8.46731 12.4962C8.24109 12.9394 8.06104 13.3964 7.9133 13.8674C7.54857 15.0077 7.43777 16.1757 7.53472 17.3669C7.56704 17.787 7.62706 18.2025 7.73786 18.6134C7.81635 18.9043 7.89945 19.1951 7.98255 19.486C8.01025 19.5876 8.04257 19.6014 8.14414 19.5691C8.20107 19.5491 8.2575 19.5281 8.31392 19.507C8.42678 19.465 8.53964 19.4229 8.6566 19.389C8.70258 19.3752 8.7484 19.3611 8.79415 19.3471L8.79476 19.3469L8.79483 19.3469C8.9923 19.2863 9.18845 19.2262 9.39067 19.1813C9.70461 19.1074 10.0232 19.0659 10.3417 19.0335C10.8219 18.9874 11.302 18.9966 11.7776 19.0428C12.1515 19.0797 12.5255 19.1443 12.8902 19.2413C13.3149 19.3521 13.7305 19.4906 14.1275 19.6799C14.7831 19.9938 15.4387 20.3078 16.0942 20.6171L16.4992 20.8092L16.4993 20.8092C16.9198 21.0086 17.3417 21.2086 17.7609 21.4112C18.0241 21.5358 18.2872 21.6605 18.5411 21.8036C19.0213 22.076 19.3445 22.4869 19.5338 23.0086C19.6676 23.3918 19.6861 23.7796 19.6169 24.1766C19.6122 24.1905 19.6122 24.2043 19.6122 24.2182C19.6003 24.2182 19.6021 24.2216 19.6087 24.2344L19.6122 24.2413ZM6.26972 28.8165L6.30595 28.8192L6.30601 28.8192C6.35398 28.8228 6.39414 28.8258 6.43131 28.8258H17.0545C17.2346 28.8258 17.4146 28.8258 17.5947 28.8119C17.9825 28.7842 18.3657 28.738 18.7443 28.6595C19.0721 28.5903 19.3999 28.5072 19.7138 28.3964C20.0647 28.2764 20.4063 28.1332 20.7434 27.9624C21.422 27.6208 22.0407 27.196 22.5901 26.6789C22.99 26.3012 23.384 25.9175 23.7793 25.5327L23.7793 25.5326L24.0721 25.2477C24.7244 24.6171 25.3746 23.9843 26.0256 23.3509L26.0257 23.3508C26.3468 23.0383 26.6681 22.7257 26.9899 22.413L27.0314 22.3727L27.0337 22.3704C27.5082 21.9093 27.9785 21.4524 28.4488 20.9911C28.7673 20.6771 28.8874 20.3078 28.7535 19.8692C28.6381 19.5091 28.3934 19.269 28.0333 19.1674C27.6547 19.0612 27.3084 19.149 27.013 19.4075C26.6762 19.7028 26.3394 20.0026 26.0026 20.3025L26.0019 20.3032L25.0508 21.1503L24.0998 21.9975L24.0988 21.9983C23.2681 22.7367 22.4374 23.4752 21.6067 24.209L21.5562 24.2538C21.2872 24.4926 21.0204 24.7296 20.7249 24.9338C20.1847 25.3078 19.5938 25.5848 18.9613 25.7602C18.5735 25.8664 18.1764 25.931 17.7748 25.9587C17.3223 25.991 16.8837 25.9495 16.459 25.7879C16.3352 25.7407 16.2095 25.703 16.0831 25.665L16.083 25.665C16.0115 25.6435 15.9398 25.622 15.868 25.5986L15.2032 25.3909C14.9908 25.3216 14.7738 25.2524 14.5615 25.1877C14.4553 25.1554 14.3503 25.1219 14.2452 25.0885L14.2452 25.0884C14.1402 25.055 14.0351 25.0215 13.929 24.9892L13.278 24.7814C13.1718 24.7491 13.0668 24.7156 12.9617 24.6822C12.8567 24.6487 12.7517 24.6152 12.6455 24.5829C12.5417 24.5506 12.439 24.516 12.3364 24.4814L12.3361 24.4813C12.2334 24.4467 12.1307 24.4121 12.0269 24.3798C11.9599 24.359 11.893 24.3385 11.8261 24.318C11.6252 24.2566 11.4244 24.1951 11.2235 24.1259C10.9927 24.0474 10.8496 23.8858 10.8173 23.6365C10.7665 23.2394 11.1404 22.9024 11.5282 23.004C11.6391 23.0317 11.7499 23.0672 11.8607 23.1027C11.8976 23.1145 11.9345 23.1263 11.9715 23.1379C12.08 23.1702 12.1873 23.2037 12.2946 23.2371C12.402 23.2706 12.5093 23.3041 12.6178 23.3364L12.7861 23.3908C13.0149 23.4648 13.2419 23.5383 13.4719 23.6088L14.1229 23.8165C14.3214 23.8812 14.5245 23.9458 14.7231 24.0058C14.8315 24.0404 14.9412 24.0739 15.0508 24.1074C15.1605 24.1409 15.2701 24.1743 15.3786 24.209C15.6507 24.2966 15.9181 24.3842 16.1856 24.4718L16.1866 24.4721C16.2805 24.5014 16.3743 24.5311 16.4682 24.5609C16.656 24.6204 16.8437 24.6799 17.0315 24.7353C17.4701 24.8645 17.8579 24.7861 18.181 24.4537C18.4488 24.172 18.5273 23.8304 18.435 23.4564C18.3519 23.1148 18.1349 22.8793 17.8209 22.7316C17.6088 22.6301 17.3955 22.5287 17.1821 22.4272L17.1811 22.4267L17.1799 22.4261C16.9669 22.3248 16.7539 22.2235 16.5421 22.1222C16.3043 22.0091 16.0665 21.8948 15.8288 21.7805C15.591 21.6663 15.3533 21.552 15.1155 21.4389C14.8966 21.3329 14.6777 21.2281 14.4588 21.1232L14.4577 21.1227C14.2384 21.0176 14.019 20.9126 13.7997 20.8064C13.5181 20.6725 13.2272 20.5478 12.9271 20.4555C12.6455 20.3678 12.3593 20.2985 12.0684 20.2478C11.6806 20.1831 11.2928 20.1462 10.9004 20.1554C10.568 20.16 10.2355 20.197 9.90775 20.2524C9.65844 20.2939 9.41375 20.3493 9.1783 20.4278L9.07024 20.4637C8.92487 20.5119 8.77771 20.5607 8.63352 20.6125C8.38421 20.7002 8.1349 20.7925 7.8856 20.8849C7.77246 20.9264 7.66049 20.968 7.54851 21.0096L7.54837 21.0096C7.43648 21.0511 7.32459 21.0927 7.21155 21.1342C7.12385 21.1662 7.03554 21.1977 6.94706 21.2291L6.94694 21.2292C6.79324 21.2839 6.63905 21.3387 6.48671 21.3973C6.32974 21.4574 6.32974 21.462 6.32974 21.6328V28.1933C6.32974 28.3641 6.32974 28.5349 6.27895 28.6965C6.27341 28.7215 6.27286 28.7448 6.2723 28.7684C6.27194 28.7841 6.27156 28.7999 6.26972 28.8165ZM1.1774 24.8415V26.7574C1.1774 26.9281 1.17791 27.0987 1.17843 27.2696C1.17945 27.6117 1.18048 27.9545 1.1774 28.2994C1.1774 28.5072 1.30206 28.7288 1.54213 28.8027C1.616 28.8258 1.69448 28.8258 1.77297 28.8258H4.57536H4.67693C4.88007 28.8073 5.0278 28.7103 5.12014 28.521C5.16631 28.4287 5.16631 28.3271 5.16631 28.2302V21.462V21.3835C5.16169 21.148 5.03704 20.9726 4.82005 20.8941C4.76465 20.871 4.6954 20.8664 4.63538 20.8664H1.71295H1.66678C1.46364 20.8849 1.32514 20.9818 1.2328 21.1619C1.18664 21.2496 1.18202 21.3466 1.18202 21.4435C1.1774 22.5746 1.1774 23.7057 1.1774 24.8414V24.8415ZM13.3639 1.95811L13.364 1.95818L13.364 1.95818C13.3702 1.98957 13.3753 2.01532 13.3842 2.03914C13.4488 2.22843 13.5181 2.42233 13.5873 2.61162L13.8505 3.37339C13.8977 3.50719 13.9441 3.64099 13.9904 3.77443C14.0526 3.95409 14.1147 4.13311 14.1783 4.3106C14.1972 4.36565 14.2174 4.4207 14.2377 4.476C14.2719 4.56908 14.3063 4.66285 14.3353 4.75843C14.3583 4.82768 14.3999 4.85077 14.4691 4.84615H14.5153H18.3472H18.6704C18.772 4.84615 18.7812 4.83692 18.8135 4.74458C18.8897 4.5299 18.9647 4.31638 19.0398 4.10285C19.1148 3.88933 19.1898 3.6758 19.266 3.46111C19.351 3.21757 19.436 2.97289 19.521 2.72821L19.5222 2.72473C19.6076 2.47889 19.693 2.23305 19.7784 1.98836C19.7839 1.97481 19.7861 1.9581 19.7889 1.93727L19.7889 1.93725C19.7909 1.92257 19.7931 1.90586 19.7969 1.88679C19.7461 1.90987 19.7184 1.92372 19.6907 1.93757C19.4507 2.05761 19.1967 2.12224 18.9243 2.12686C18.6335 2.13148 18.3611 2.08069 18.0979 1.95142C17.9179 1.8637 17.7563 1.74828 17.6132 1.60978C17.41 1.42049 17.1792 1.28199 16.9068 1.21735C16.5605 1.13425 16.2328 1.18042 15.9188 1.33277C15.748 1.41587 15.6141 1.53591 15.4756 1.66056C15.2078 1.90525 14.8893 2.06222 14.5292 2.10839C14.1506 2.15918 13.7859 2.10839 13.4442 1.92372C13.4387 1.9228 13.4333 1.92206 13.428 1.92132L13.428 1.92132C13.4065 1.91837 13.3851 1.91541 13.3519 1.90064C13.3568 1.92191 13.3605 1.94086 13.3639 1.95811ZM23.952 11.0788C23.9382 10.751 24.2337 10.4924 24.5337 10.4924C24.8523 10.4971 25.1201 10.7648 25.1155 11.0834C25.1108 11.3973 24.8477 11.6605 24.5337 11.6651C24.2244 11.6651 23.9382 11.4066 23.952 11.0788ZM17.3711 13.6746C17.3731 13.6757 17.3752 13.6769 17.3777 13.6782C17.3777 13.6828 17.3777 13.6874 17.3869 13.692C17.29 13.9413 17.133 14.1445 16.9207 14.3014C16.7821 14.403 16.6252 14.4769 16.4544 14.5184C16.3389 14.5461 16.2235 14.5554 16.1035 14.5554H14.8477C14.7831 14.5554 14.7231 14.56 14.663 14.5784C14.3907 14.6708 14.2752 14.994 14.4276 15.234C14.4553 15.2756 14.4876 15.3125 14.5245 15.3495L17.7748 18.5997C17.8579 18.6874 17.9456 18.7751 18.0333 18.8628C18.0979 18.9321 18.181 18.9782 18.2734 18.9967C18.3657 19.0152 18.4534 19.0013 18.5411 18.9644C18.7628 18.8628 18.8643 18.5858 18.7535 18.3642C18.7212 18.3042 18.675 18.2534 18.6242 18.2026L15.9465 15.5249L15.905 15.4833C15.8998 15.4782 15.8975 15.473 15.8949 15.467C15.8928 15.4623 15.8905 15.4571 15.8865 15.451C15.9096 15.4464 15.9234 15.4464 15.9373 15.4464H15.9373H16.1173C16.2835 15.451 16.4544 15.4326 16.6159 15.3956C16.796 15.3541 16.9668 15.2941 17.1284 15.2109C17.567 14.9893 17.8948 14.6615 18.1164 14.2276C18.1949 14.0706 18.2549 13.9044 18.2965 13.729C18.3057 13.6736 18.3103 13.6736 18.3703 13.6736H19.2244C19.2798 13.6736 19.3398 13.6643 19.3906 13.6459C19.5615 13.5812 19.6861 13.4243 19.6861 13.235C19.6861 13.0688 19.6169 12.9441 19.4784 12.8518C19.3999 12.801 19.3168 12.7825 19.2244 12.7825H18.3565C18.3149 12.7825 18.3149 12.7825 18.3011 12.741L18.3011 12.741C18.2734 12.644 18.2457 12.5471 18.2134 12.4547C18.1441 12.2654 18.0518 12.0946 17.9363 11.933C17.9306 11.9273 17.9285 11.9216 17.9254 11.9137C17.9236 11.9089 17.9214 11.9031 17.9179 11.8961C17.9456 11.8915 17.9594 11.8915 17.9779 11.8915H19.2106C19.2798 11.8915 19.3445 11.8822 19.4091 11.8545C19.6353 11.7622 19.7507 11.5037 19.6492 11.2728C19.5707 11.0974 19.4322 11.0004 19.2337 11.0004H13.9105C13.869 11.0004 13.8228 11.0051 13.7812 11.0189C13.6058 11.0697 13.4811 11.222 13.4627 11.4021C13.4442 11.6052 13.555 11.7853 13.7443 11.8592C13.8089 11.8869 13.8736 11.8915 13.9428 11.8915H16.0896C16.2651 11.8915 16.4313 11.9146 16.5975 11.9792C16.9576 12.1177 17.2069 12.3624 17.3592 12.7133C17.3643 12.7209 17.3666 12.7313 17.3692 12.7429C17.3713 12.7525 17.3736 12.7629 17.3777 12.7733C17.35 12.7779 17.3269 12.7779 17.3085 12.7779H13.9521H13.892C13.6612 12.7918 13.4765 12.9672 13.4627 13.1934C13.4488 13.3827 13.555 13.5535 13.7304 13.632C13.7951 13.6597 13.8643 13.6689 13.9382 13.6689H17.3131H17.3546C17.3614 13.6689 17.3657 13.6714 17.3711 13.6746Z" fill="black"/>
</svg>
