<svg width="60" height="30" viewBox="0 0 60 30" fill="none" xmlns="http://www.w3.org/2000/svg">
<g clip-path="url(#clip0_458_736)">
<path d="M14.6088 21.1309V21.1741L4.71265 0.482151C4.65543 0.339571 4.54756 0.225131 4.39091 0.139771C4.23332 0.0544102 4.06916 0.011261 3.89844 0.011261H3.85529H0.899569C0.642549 0.011261 0.428679 0.104126 0.25702 0.289855C0.0853605 0.475585 0 0.681951 0 0.910829V29.1004C0 29.3575 0.0853605 29.5713 0.25702 29.743C0.428679 29.9146 0.642549 30 0.899569 30H3.85529C4.11231 30 4.33369 29.9081 4.51942 29.7214C4.70515 29.5357 4.79801 29.3293 4.79801 29.1004V11.7919L12.0377 26.958C12.0949 27.1015 12.1944 27.215 12.3379 27.3004C12.4805 27.3857 12.638 27.4289 12.8088 27.4289H12.8941H16.3217C16.4933 27.4579 16.6575 27.4223 16.8141 27.3219C16.9708 27.2216 17.0777 27.1006 17.1359 26.958C17.2494 26.7863 17.2494 26.6297 17.1359 26.4871L14.6088 21.1309Z" fill="#FFEF22"/>
<path d="M29.1745 0.91083C29.1745 0.682889 29.0817 0.475585 28.8959 0.289855C28.7093 0.104126 28.5029 0.011261 28.2749 0.011261H25.3192C25.2339 0.011261 25.1616 0.0262694 25.1054 0.0544103C24.7911 0.11163 24.5913 0.25421 24.505 0.483089L24.4619 0.526238V0.611599L16.4933 17.2344C16.4361 17.4051 16.408 17.5486 16.408 17.6631C16.408 17.7484 16.4361 17.906 16.4933 18.134L18.5073 22.3748C18.5926 22.5464 18.7352 22.6318 18.9359 22.6318C19.1357 22.6318 19.2783 22.5464 19.3646 22.3748L24.3765 11.8792V29.1014C24.3765 29.3303 24.4694 29.5376 24.6551 29.7224C24.8408 29.909 25.0622 30.0009 25.3192 30.0009H28.2749C28.5029 30.0009 28.7102 29.9156 28.8959 29.7439C29.0817 29.5723 29.1745 29.3584 29.1745 29.1014V24.3184C28.4166 22.628 27.9917 20.7567 27.9917 18.7849C27.9917 16.8132 28.4166 14.9409 29.1745 13.2515V0.91083Z" fill="#FFEF22"/>
<path d="M58.6541 7.4395C58.4402 7.27629 58.1916 7.19562 57.9055 7.19562H55.083C54.7688 7.19562 54.5061 7.27723 54.2922 7.4395C54.0784 7.60272 53.9714 7.80346 53.9714 8.04266V13.4448C54.675 15.0835 55.067 16.8873 55.067 18.7831C55.067 20.6788 54.6759 22.4836 53.9714 24.1214V29.152C53.9714 29.3912 54.0784 29.592 54.2922 29.7552C54.5061 29.9184 54.7697 30 55.083 30H57.9055C58.1907 30 58.4402 29.9184 58.6541 29.7552C58.8689 29.592 58.9758 29.3922 58.9758 29.152V8.04172C58.9749 7.80346 58.8689 7.60178 58.6541 7.4395Z" fill="#FFEF22"/>
<path d="M58.3275 4.47773C59.3518 3.4535 59.3518 1.7929 58.3275 0.768671C57.3033 -0.255557 55.6427 -0.255556 54.6184 0.768673C53.5942 1.7929 53.5942 3.4535 54.6185 4.47773C55.6427 5.50196 57.3033 5.50196 58.3275 4.47773Z" fill="#FFEF22"/>
<path d="M51.6806 13.0039C50.6778 11.2882 49.3195 9.92996 47.6039 8.92721C45.8882 7.9254 44.0178 7.42355 41.9926 7.42355C39.9674 7.42355 38.0914 7.9254 36.3663 8.92721C34.6404 9.92996 33.2765 11.2882 32.2747 13.0039C31.2719 14.7195 30.771 16.59 30.771 18.6152C30.771 20.6413 31.2719 22.5164 32.2747 24.2424C33.2765 25.9684 34.6413 27.3323 36.3663 28.3341C38.0914 29.3368 39.9674 29.8377 41.9926 29.8377C44.0178 29.8377 45.8882 29.3368 47.6039 28.3341C49.3186 27.3323 50.6778 25.9674 51.6806 24.2424C52.6824 22.5174 53.1842 20.6413 53.1842 18.6152C53.1842 16.589 52.6824 14.7195 51.6806 13.0039Z" fill="#F49C0B"/>
<path d="M50.8683 13.1662C49.8656 11.4505 48.5073 10.0923 46.7916 9.0895C45.076 8.08769 43.2056 7.58585 41.1804 7.58585C39.1552 7.58585 37.2791 8.08769 35.5541 9.0895C33.8281 10.0923 32.4642 11.4505 31.4624 13.1662C30.4596 14.8818 29.9587 16.7523 29.9587 18.7775C29.9587 20.8036 30.4596 22.6787 31.4624 24.4047C32.4642 26.1307 33.829 27.4946 35.5541 28.4964C37.2791 29.4991 39.1552 30 41.1804 30C43.2056 30 45.076 29.4991 46.7916 28.4964C48.5064 27.4946 49.8656 26.1297 50.8683 24.4047C51.8701 22.6797 52.372 20.8036 52.372 18.7775C52.372 16.7523 51.8701 14.8818 50.8683 13.1662Z" fill="#FFEF22"/>
<path d="M49.4669 13.9785C48.6096 12.5105 47.4464 11.3483 45.9794 10.4909C44.5113 9.63354 42.9111 9.20486 41.1785 9.20486C39.4451 9.20486 37.841 9.63354 36.3646 10.4909C35.481 11.004 34.7108 11.6287 34.0486 12.3604C34.5523 11.9026 35.1057 11.4946 35.7145 11.14C37.191 10.2827 38.795 9.85398 40.5285 9.85398C42.261 9.85398 43.8613 10.2827 45.3293 11.14C46.7964 11.9983 47.9595 13.1605 48.8169 14.6276C49.6742 16.0956 50.1029 17.6959 50.1029 19.4284C50.1029 21.1619 49.6742 22.7659 48.8169 24.2424C48.4633 24.8512 48.0543 25.4046 47.5965 25.9083C48.3282 25.2461 48.9529 24.476 49.466 23.5923C50.3234 22.1159 50.752 20.5119 50.752 18.7784C50.753 17.0468 50.3243 15.4465 49.4669 13.9785Z" fill="#DD8403"/>
<path d="M50.1039 19.4294C50.1039 17.6968 49.6752 16.0966 48.8179 14.6285C47.9605 13.1605 46.7974 11.9983 45.3303 11.141C43.8623 10.2836 42.262 9.85492 40.5295 9.85492C38.796 9.85492 37.192 10.2836 35.7155 11.141C35.1067 11.4946 34.5533 11.9036 34.0496 12.3613C33.605 12.8519 33.2082 13.3903 32.8639 13.9794C32.0066 15.4474 31.5779 17.0477 31.5779 18.7803C31.5779 20.5137 32.0066 22.1178 32.8639 23.5942C33.7213 25.0707 34.8882 26.2376 36.3646 27.0949C37.8411 27.9523 39.4451 28.381 41.1786 28.381C42.9111 28.381 44.5114 27.9523 45.9794 27.0949C46.5685 26.7507 47.1069 26.3539 47.5975 25.9093C48.0553 25.4055 48.4633 24.8521 48.8179 24.2433C49.6752 22.7669 50.1039 21.1619 50.1039 19.4294Z" fill="#F49C0B"/>
<path d="M42.4316 12.7947V23.6045C42.4316 23.7659 42.4888 23.8906 42.6051 23.9769C42.773 24.0979 42.9775 24.1589 43.2204 24.1589H44.9005V24.809H38.6645V24.1589H40.1024C40.4026 24.1589 40.6249 24.0886 40.7694 23.9469C40.9138 23.8053 40.9861 23.6167 40.9861 23.3794V15.212C40.9861 15.045 40.9195 14.9034 40.7872 14.788C40.654 14.6726 40.4842 14.6145 40.276 14.6145H38.353V14.017C39.2554 13.9016 39.9871 13.7468 40.548 13.5536C41.1089 13.3603 41.6033 13.1071 42.032 12.7956H42.4316V12.7947Z" fill="#DD8403"/>
<path d="M41.9965 12.7769V23.5867C41.9965 23.7481 42.0537 23.8728 42.17 23.9591C42.338 24.0801 42.5424 24.1411 42.7854 24.1411H44.4654V24.7911H38.2294V24.1411H39.6674C39.9676 24.1411 40.1899 24.0707 40.3343 23.9291C40.4788 23.7875 40.551 23.5989 40.551 23.3616V15.1942C40.551 15.0272 40.4844 14.8856 40.3521 14.7702C40.2189 14.6548 40.0492 14.5967 39.8409 14.5967H37.918V13.9991C38.8204 13.8838 39.552 13.729 40.113 13.5358C40.6739 13.3425 41.1682 13.0892 41.5969 12.7778H41.9965V12.7769Z" fill="#FFEF22"/>
</g>
<defs>
<clipPath id="clip0_458_736">
<rect width="59.0957" height="30" fill="white"/>
</clipPath>
</defs>
</svg>
