<svg width="12" height="9" viewBox="0 0 12 9" fill="none" xmlns="http://www.w3.org/2000/svg">
<path fill-rule="evenodd" clip-rule="evenodd" d="M1.02391 4.00628C0.784292 4.03927 0.599609 4.24771 0.599609 4.49993C0.599609 4.77507 0.819397 4.99812 1.09052 4.99812L9.71947 4.99812L6.60232 8.1488L6.55467 8.20458C6.41168 8.39931 6.42696 8.67612 6.60088 8.85335C6.79219 9.04831 7.10302 9.04896 7.29513 8.85481L11.2459 4.86201C11.3345 4.77697 11.3919 4.65878 11.3989 4.52699C11.4063 4.39021 11.3583 4.25094 11.2551 4.14664L7.2951 0.145159L7.23994 0.0970422C7.04745 -0.0472488 6.77476 -0.0305728 6.60085 0.146676C6.40955 0.341651 6.41022 0.657087 6.60235 0.851224L9.72023 4.00174L1.09052 4.00174L1.02391 4.00628Z" fill="white"/>
</svg>
