<svg width="68" height="10" viewBox="0 0 68 10" fill="none" xmlns="http://www.w3.org/2000/svg">
<path d="M0 9.09592C0.113333 8.94832 0.17 8.78227 0.245556 8.61622C0.925556 7.1771 1.60556 5.71954 2.28556 4.26198C2.92778 2.87821 3.57 1.49445 4.17444 0.0922338C4.23111 -0.0369175 4.32556 0.018433 4.40111 -1.71696e-05C4.49556 -0.0184674 4.49556 0.0553334 4.51444 0.0922338C5.57222 2.61991 6.64889 5.14758 7.76333 7.65681C7.97111 8.11806 8.17889 8.57932 8.38667 9.04057C8.38667 9.05902 8.40556 9.07747 8.40556 9.11437C8.31111 9.09592 8.23556 9.09592 8.14111 9.07747C7.82 9.04057 7.48 9.04057 7.15889 9.09592C7.08333 9.11437 7.04556 9.09592 7.00778 9.00367C6.68667 8.06271 6.30889 7.12175 5.91222 6.21769C5.89333 6.16234 5.85556 6.12544 5.79889 6.10699C5.40222 5.94094 5.02444 5.79334 4.64667 5.62729C4.51444 5.57194 4.38222 5.60884 4.26889 5.62729C3.58889 5.73799 2.92778 5.86714 2.24778 5.97784C2.15333 5.99629 2.09667 6.03319 2.05889 6.12544C1.68111 7.08485 1.30333 8.04426 0.944444 9.02212C0.925556 9.09592 0.887778 9.11437 0.812222 9.09592C0.566667 9.04057 0.34 9.04057 0.0944444 9.09592C0.0755556 9.09592 0.0377778 9.09592 0.0188889 9.11437C0 9.11437 0 9.11437 0 9.09592ZM4.00444 1.78965C3.51333 2.85976 3.04111 3.92987 2.56889 4.96308C2.53111 5.05533 2.58778 5.03688 2.62556 5.03688C3.24889 5.05533 3.89111 5.05533 4.51444 5.05533C4.79778 5.05533 5.08111 5.05533 5.40222 5.05533C4.98667 3.94832 4.47667 2.89666 4.00444 1.78965Z" fill="#F49C0B"/>
<path d="M30.6378 2.61992C30.5811 3.02582 30.5245 3.41328 30.4678 3.80073C30.3922 4.39114 30.2978 4.98154 30.2411 5.57195C30.1656 6.30996 30.0711 7.06641 30.0333 7.82287C30.0145 8.22878 29.9767 8.63468 29.9578 9.05903C29.9578 9.11438 29.9389 9.13284 29.8822 9.13284C29.58 9.05903 29.2778 9.05903 28.9756 9.13284C28.9 9.15129 28.9189 9.11439 28.9378 9.07749C29.0889 8.37638 29.2211 7.67527 29.3345 6.97416C29.4667 6.18081 29.58 5.369 29.7122 4.57564C29.8256 3.80073 29.9389 3.02582 30.0333 2.25092C30.1278 1.54981 30.2222 0.848702 30.3167 0.147595C30.3167 0.110694 30.2978 0.0553438 30.3734 0.0553438C30.4489 0.0553438 30.5433 -6.79493e-06 30.6 0.110694C30.8078 0.516598 31.0156 0.922502 31.2234 1.30996C32.1111 3.00737 33.0178 4.72324 33.9622 6.40221C34.0945 6.66051 34.2456 6.90036 34.3967 7.15867C34.5667 6.86346 34.7178 6.58671 34.8878 6.30996C36.0589 4.28044 37.2111 2.25092 38.3445 0.202945C38.3633 0.166045 38.3822 0.129145 38.4011 0.0922441C38.4389 -6.79493e-06 38.5145 0.0184434 38.5711 0.0184434C38.6467 0.0184434 38.6278 0.0922441 38.6278 0.129145C38.7033 0.793351 38.7789 1.45756 38.8545 2.12176C38.9111 2.69372 38.9867 3.26568 39.0622 3.85608C39.1378 4.48339 39.2133 5.09224 39.2889 5.71955C39.3645 6.32841 39.44 6.93726 39.5156 7.54612C39.5722 8.04427 39.6289 8.52398 39.7045 9.02213C39.7233 9.15129 39.7233 9.15129 39.5911 9.13284C39.2511 9.07749 38.93 9.07749 38.59 9.13284C38.5145 9.15129 38.4956 9.13284 38.4767 9.05903C38.3822 7.97047 38.3067 6.86346 38.1933 5.7749C38.0989 4.85239 37.9667 3.92988 37.8533 3.00737C37.8345 2.87822 37.8156 2.76752 37.7778 2.61992C37.6645 2.80442 37.57 2.95202 37.4756 3.11807C36.7578 4.31734 36.04 5.53505 35.3978 6.77121C35.0011 7.50922 34.68 8.28413 34.34 9.04058C34.3022 9.11439 34.2645 9.15129 34.1889 9.13284C34.1133 9.13284 34.0945 9.09593 34.0756 9.05903C33.9245 8.69003 33.7733 8.32103 33.6222 7.95202C33.4333 7.50922 33.1878 7.08487 32.9611 6.67896C32.3378 5.5535 31.6956 4.40959 31.0533 3.28413C30.94 3.09962 30.8456 2.91512 30.7322 2.73062C30.6756 2.67527 30.6756 2.65682 30.6378 2.61992Z" fill="#F49C0B"/>
<path d="M50.9245 5.03689C50.9056 6.23615 50.5278 7.30626 49.7156 8.22877C49.0167 9.04058 48.1289 9.59409 47.0711 9.85239C46.1456 10.0922 45.2011 10.0738 44.2945 9.77859C42.7456 9.28043 41.6878 8.30257 41.0645 6.82656C40.8756 6.3653 40.7811 5.90405 40.7434 5.40589C40.6489 4.28043 40.9323 3.24722 41.5556 2.30626C42.1411 1.43911 42.9345 0.811799 43.9167 0.424345C44.3889 0.239843 44.88 0.129142 45.39 0.0737915C45.4845 0.0737915 45.5034 0.0922417 45.5034 0.184493C45.4656 0.442795 45.39 0.682648 45.2011 0.90405C45.1634 0.9594 45.1067 0.977851 45.0311 0.996301C44.0678 1.1808 43.2556 1.64206 42.6134 2.38006C42.1411 2.91512 41.82 3.52398 41.6878 4.22508C41.4234 5.53505 41.7445 6.73431 42.6323 7.74907C43.2934 8.50553 44.1245 8.96678 45.1256 9.11438C46.41 9.31733 47.5811 9.00368 48.5823 8.19187C49.3567 7.56457 49.8478 6.73431 50.0178 5.7749C50.2256 4.59409 49.9611 3.50553 49.2245 2.56457C48.6011 1.75276 47.7511 1.23615 46.7311 1.01475C46.7311 1.01475 46.7311 1.01475 46.7123 1.01475C46.4478 1.0332 46.3534 0.848699 46.2589 0.664197C46.1834 0.498146 46.1456 0.350544 46.1267 0.166042C46.1267 0.110692 46.1456 0.0922417 46.2023 0.0922417C46.8823 0.147592 47.5434 0.313644 48.1478 0.627297C48.6956 0.90405 49.1678 1.2546 49.5834 1.69741C49.9423 2.08486 50.2256 2.50922 50.4523 2.97047C50.6978 3.50553 50.8489 4.05903 50.9056 4.63099C50.9245 4.74169 50.9245 4.88929 50.9245 5.03689Z" fill="#F49C0B"/>
<path d="M58.8955 6.90037C58.8955 6.80812 58.9144 6.71587 58.9144 6.64207C58.9522 5.59041 58.9333 4.5203 58.9144 3.46863C58.8955 2.41697 58.8766 1.34686 58.82 0.295203C58.82 0.202952 58.8389 0.184502 58.9144 0.202952C59.1411 0.239852 59.3677 0.258303 59.5944 0.202952C59.6889 0.184502 59.6889 0.221402 59.6889 0.295203C59.5944 2.54613 59.5566 4.7786 59.5755 7.02952C59.5755 7.74908 59.5944 8.48709 59.5944 9.20664C59.5944 9.24354 59.6322 9.29889 59.5755 9.31734C59.5189 9.31734 59.4433 9.35424 59.4055 9.28044C59.2922 9.13284 59.16 9.00369 59.0466 8.85609C58.31 8.02583 57.5544 7.19557 56.7611 6.40221C55.5144 5.1476 54.2866 3.87454 53.04 2.61993C52.9077 2.49077 52.7566 2.38007 52.6433 2.26937C52.6433 2.32472 52.6433 2.39852 52.6244 2.49077C52.5677 3.76384 52.6055 5.05535 52.6244 6.32841C52.6433 7.23247 52.6811 8.13653 52.7 9.04059C52.7 9.13284 52.6811 9.13284 52.6055 9.11439C52.36 9.05904 52.1144 9.05904 51.8689 9.11439C51.7744 9.13284 51.7744 9.11439 51.7744 9.04059C51.8122 8.26568 51.8311 7.49078 51.8689 6.71587C51.9066 5.70111 51.9255 4.7048 51.9444 3.69004C51.9444 2.49077 51.9444 1.29151 51.9444 0.110701C51.9444 0.0184502 51.9633 0 52.0577 0C52.1522 0 52.2277 0.0184502 52.2844 0.0922509C53.4933 1.43911 54.7589 2.74908 56.0244 4.05904C56.95 5 57.8755 5.92251 58.8389 6.82657C58.8577 6.84502 58.8766 6.86347 58.8955 6.90037Z" fill="#F49C0B"/>
<path d="M27.4833 1.99261C27.2189 1.77121 26.9733 1.56826 26.7089 1.34685C26.6333 1.27305 26.5389 1.2177 26.4822 1.1439C26.2555 0.904049 25.9911 0.793348 25.67 0.737997C25.5 0.701097 25.33 0.664196 25.16 0.608846C24.6689 0.461244 24.1589 0.498145 23.6489 0.535045C23.3278 0.553495 23.0633 0.701097 22.78 0.811798C22.5911 0.885599 22.4022 0.977849 22.2133 1.0332C22.0433 1.08855 21.93 1.1808 21.8166 1.30995C21.5522 1.60516 21.2689 1.90036 21.0044 2.19556C20.9666 2.23246 20.9478 2.26936 20.9289 2.32471C20.7778 2.76752 20.6266 3.22877 20.4566 3.67158C20.4 3.81918 20.4189 3.98523 20.4 4.13283C20.3433 4.59409 20.3811 5.05534 20.4378 5.51659C20.4566 5.738 20.5889 5.94095 20.6644 6.16235C20.7589 6.42065 20.8533 6.69741 20.9478 6.95571C20.9666 7.02951 21.0044 7.08486 21.0611 7.12176C21.3822 7.45386 21.7033 7.76752 22.0055 8.09962C22.0433 8.13652 22.0811 8.15497 22.1189 8.17342C22.5533 8.33947 23.0066 8.52397 23.4411 8.69003C23.5922 8.74538 23.7433 8.72693 23.8944 8.74538C24.3289 8.80073 24.7444 8.74538 25.1789 8.72693C25.2166 8.72693 25.2544 8.70848 25.2922 8.69003C25.6889 8.52397 26.1044 8.33947 26.5011 8.17342C26.5766 8.15497 26.5955 8.11807 26.5955 8.04427C26.6333 7.28781 26.6333 6.54981 26.5955 5.79335C26.5955 5.68265 26.5955 5.5535 26.5766 5.44279C26.5766 5.36899 26.5955 5.36899 26.6711 5.36899C26.9922 5.42434 27.3133 5.42434 27.6344 5.36899C27.71 5.35054 27.7289 5.36899 27.7289 5.44279C27.71 5.83025 27.71 6.2177 27.6911 6.60516C27.6911 7.28781 27.6533 7.97047 27.7289 8.65313C27.7289 8.70848 27.71 8.72693 27.6722 8.72693C27.03 8.87453 26.3878 9.05903 25.7078 9.11438C25.33 9.15128 24.9522 9.20663 24.5744 9.24353C24.2344 9.28043 23.8944 9.24353 23.5733 9.22508C23.4789 9.22508 23.3844 9.20663 23.29 9.20663C23.0066 9.20663 22.7611 9.09593 22.4966 9.02213C22.0811 8.89298 21.6655 8.74538 21.2311 8.61623C21.1555 8.59778 21.0989 8.56087 21.0611 8.50552C20.6455 8.13652 20.2489 7.78597 19.8333 7.41696C19.7955 7.38006 19.7766 7.36161 19.7578 7.32471C19.55 6.82656 19.3422 6.30995 19.1155 5.8118C19.0778 5.7011 19.0778 5.5904 19.0589 5.47969C19.04 5.25829 19.0022 5.01844 19.0022 4.79704C19.0022 4.61254 19.0211 4.42803 19.04 4.26198C19.04 4.18818 19.0589 4.09593 19.0589 4.02213C19.0589 3.67158 19.2478 3.37637 19.38 3.04427C19.5122 2.71217 19.6633 2.39851 19.7955 2.06641C19.8144 2.01106 19.8522 1.97416 19.89 1.93726C20.3244 1.54981 20.7778 1.16235 21.2122 0.756447C21.25 0.719547 21.3066 0.682647 21.3633 0.664196C21.9678 0.461244 22.5533 0.258292 23.1578 0.0737904C23.3466 0.0184399 23.5544 0.0368901 23.7622 0.0184399C23.9511 -1.03042e-05 24.1211 -0.0184605 24.31 -0.0184605C24.5555 -0.0369107 24.8011 0.0184399 25.0278 0.0553403C25.4055 0.0922406 25.8022 0.147591 26.18 0.184492C26.2178 0.184492 26.2555 0.202942 26.2933 0.221392C26.7466 0.405894 27.2189 0.608846 27.6722 0.793348C27.7289 0.811798 27.7478 0.830248 27.7289 0.885599C27.6533 1.2546 27.5589 1.62361 27.4833 1.99261Z" fill="#F49C0B"/>
<path d="M17.2455 3.26567C17.2644 3.89297 17.2267 4.77858 17.17 5.66419C17.1511 5.95939 17.0755 6.23615 17.0189 6.5129C16.9622 6.8081 16.9055 7.10331 16.8489 7.38006C16.83 7.43541 16.83 7.47231 16.7922 7.50921C16.4711 7.87821 16.15 8.26567 15.81 8.63467C15.6778 8.78227 15.4889 8.85607 15.3189 8.92987C14.6955 9.20663 14.0533 9.29888 13.3733 9.29888C13.09 9.29888 12.7878 9.22508 12.5044 9.18818C12.2211 9.15128 11.9378 9.11438 11.6544 9.07747C11.5978 9.07747 11.56 9.05902 11.5222 9.04057C11.1633 8.81917 10.8044 8.61622 10.4267 8.39482C10.3889 8.37637 10.3511 8.33947 10.3322 8.30257C10.1622 7.98891 9.99222 7.67526 9.80333 7.38006C9.68999 7.21401 9.65222 7.0295 9.61444 6.82655C9.55777 6.34685 9.46333 5.84869 9.42555 5.36899C9.40666 5.05534 9.42555 4.76013 9.44444 4.44648C9.5011 3.32102 9.48222 2.17711 9.44444 1.05165C9.44444 0.793343 9.42555 0.51659 9.42555 0.258288C9.42555 0.202937 9.42555 0.184487 9.5011 0.184487C9.85999 0.239837 10.2 0.239837 10.5589 0.184487C10.6722 0.166037 10.6722 0.202937 10.6722 0.276738C10.6533 0.811793 10.6533 1.34685 10.6533 1.86345C10.6344 3.04427 10.6155 4.20663 10.6344 5.38744C10.6344 5.66419 10.71 5.94094 10.7478 6.23615C10.7855 6.49445 10.8233 6.7343 10.8611 6.9926C10.8611 7.04796 10.88 7.08486 10.9178 7.12176C11.1822 7.45386 11.4278 7.80441 11.6922 8.15497C11.73 8.19187 11.7489 8.21032 11.8055 8.22877C12.2589 8.37637 12.7122 8.52397 13.1655 8.67157C13.2978 8.70847 13.4489 8.69002 13.5811 8.69002C13.7133 8.69002 13.8455 8.67157 13.9778 8.67157C14.1855 8.67157 14.3555 8.57932 14.5444 8.50552C14.8844 8.33947 15.2055 8.19187 15.5455 8.04426C15.6022 8.02581 15.64 7.97046 15.6589 7.91511C15.8478 7.54611 16.0367 7.17711 16.2444 6.82655C16.32 6.6974 16.3389 6.5498 16.3578 6.4022C16.4711 5.44279 16.49 4.46493 16.4711 3.50552C16.4522 2.50921 16.4522 1.49445 16.4333 0.49814C16.4333 0.424339 16.4333 0.332088 16.4333 0.258288C16.4333 0.202937 16.4333 0.184487 16.49 0.184487C16.7355 0.239837 16.9811 0.239837 17.2267 0.184487C17.3022 0.166037 17.3022 0.202937 17.3022 0.258288C17.2644 1.16235 17.2455 2.08486 17.2455 3.26567Z" fill="#F49C0B"/>
<path d="M61.1244 0.940954C61.1244 0.811803 61.1433 0.701101 61.1433 0.5904C61.1433 0.479699 61.1433 0.368998 61.1244 0.258297C61.1056 0.184496 61.1433 0.166046 61.2189 0.166046C61.9367 0.184496 62.6544 0.184496 63.3533 0.202947C64.7511 0.221397 66.1678 0.184496 67.5656 0.184496C67.6978 0.184496 67.8111 0.184496 67.9433 0.184496C68 0.184496 68 0.184496 68 0.239847C67.9811 0.442799 67.9811 0.664201 68 0.867153C68 0.940954 68 0.959404 67.9244 0.940954C67.2444 0.830253 66.5456 0.830253 65.8656 0.793352C65.8089 0.793352 65.7522 0.811803 65.7144 0.848703C65.5633 0.996304 65.4122 1.16236 65.2422 1.30996C65.1856 1.36531 65.1667 1.42066 65.1667 1.49446C65.0911 3.96678 65.1478 6.43911 65.2044 8.91143C65.2044 8.98523 65.2422 9.07748 65.1856 9.13283C65.1478 9.16973 65.0533 9.13284 64.9778 9.11438C64.6567 9.09593 64.3356 9.09593 64.0144 9.13283C63.92 9.15129 63.92 9.11438 63.92 9.04058C63.9389 7.84132 63.9767 6.64206 63.9767 5.46125C63.9956 3.94833 63.9956 2.41697 63.9956 0.904053C63.9956 0.811803 63.9578 0.811803 63.8822 0.811803C63.0322 0.793352 62.1822 0.867153 61.3322 0.940954C61.2756 0.922504 61.2 0.940954 61.1244 0.940954Z" fill="#F49C0B"/>
<path d="M49.5079 5.05535C49.489 5.8118 49.2623 6.51291 48.7901 7.14022C48.2423 7.85977 47.5245 8.33948 46.6368 8.52398C46.4857 8.56088 46.3345 8.59778 46.1834 8.59778C46.1079 8.59778 46.089 8.56088 46.1079 8.50553C46.1646 8.33948 46.2212 8.17343 46.3346 8.02583C46.3723 7.97047 46.4101 7.97047 46.4668 7.95202C46.7501 7.89667 47.0145 7.80442 47.2601 7.67527C47.6757 7.45387 48.0346 7.14022 48.3179 6.77121C48.6201 6.38376 48.7901 5.94095 48.8468 5.46125C48.9412 4.88929 48.8468 4.33579 48.6201 3.81918C48.4501 3.45018 48.2234 3.11808 47.9212 2.84132C47.449 2.41697 46.9012 2.15867 46.2779 2.06642C45.9568 2.01106 45.6168 2.01106 45.2957 2.06642C44.8234 2.14022 44.389 2.32472 43.9923 2.60147C43.7845 2.74907 43.5768 2.93357 43.4068 3.13653C43.1234 3.50553 42.9157 3.89298 42.8023 4.33579C42.7457 4.57564 42.7079 4.83394 42.7268 5.0738C42.7457 5.64575 42.8968 6.18081 43.2368 6.66051C43.6145 7.21402 44.1434 7.61992 44.7857 7.84132C44.899 7.87822 45.0312 7.91512 45.1445 7.93357C45.2201 7.95202 45.2579 7.98892 45.2957 8.04427C45.3901 8.19188 45.4657 8.33948 45.5034 8.50553C45.5223 8.57933 45.5034 8.57933 45.4468 8.57933C45.1823 8.56088 44.9368 8.50553 44.6723 8.41328C44.3134 8.30258 43.9923 8.13653 43.6901 7.91512C43.2368 7.60147 42.859 7.19557 42.5945 6.71586C42.3679 6.29151 42.2168 5.8487 42.1601 5.38745C42.0845 4.76014 42.1979 4.16974 42.4434 3.59778C42.6323 3.15498 42.9157 2.74907 43.2746 2.41697C43.8034 1.91881 44.4457 1.58671 45.1823 1.45756C45.409 1.42066 45.6545 1.38376 45.9001 1.38376C46.3912 1.40221 46.8823 1.49446 47.3545 1.69741C47.789 1.90036 48.1857 2.15867 48.5257 2.49077C49.0168 3.00737 49.3379 3.59778 49.489 4.28044C49.4701 4.57564 49.5079 4.79704 49.5079 5.05535Z" fill="#F49C0B"/>
</svg>
