<svg width="18" height="15" viewBox="0 0 18 15" fill="none" xmlns="http://www.w3.org/2000/svg">
<path fill-rule="evenodd" clip-rule="evenodd" d="M17.2931 8.32285C17.6924 8.26787 18.0002 7.92047 18.0002 7.50011C18.0002 7.04154 17.6339 6.66979 17.182 6.66979L2.80028 6.66979L7.99552 1.41866L8.07493 1.3257C8.31325 1.00114 8.28779 0.539803 7.99792 0.244412C7.67906 -0.0805188 7.16101 -0.0816073 6.84083 0.241981L0.252474 6.90045C0.213255 6.93858 0.177769 6.98063 0.146629 7.02599C-0.0764217 7.35024 -0.045002 7.80006 0.240883 8.08894L6.84088 14.7581L6.93282 14.8383C7.25363 15.0787 7.70812 15.051 7.99796 14.7555C8.31679 14.4306 8.31568 13.9049 7.99547 13.5813L2.79899 8.33043L17.182 8.33043L17.2931 8.32285Z" fill="#FFEF22"/>
</svg>
