<svg width="127" height="44" viewBox="0 0 127 44" fill="none" xmlns="http://www.w3.org/2000/svg">
<rect width="127" height="44" rx="16" fill="url(#paint0_linear_1_3640)"/>
<path d="M48.3121 26.016H44.1201L43.4481 28H40.5841L44.6481 16.768H47.8161L51.8801 28H48.9841L48.3121 26.016ZM47.6081 23.904L46.2161 19.792L44.8401 23.904H47.6081ZM55.853 20.336C56.1197 19.92 56.4877 19.584 56.957 19.328C57.4263 19.072 57.9757 18.944 58.605 18.944C59.341 18.944 60.0077 19.1307 60.605 19.504C61.2023 19.8773 61.6717 20.4107 62.013 21.104C62.365 21.7973 62.541 22.6027 62.541 23.52C62.541 24.4373 62.365 25.248 62.013 25.952C61.6717 26.6453 61.2023 27.184 60.605 27.568C60.0077 27.9413 59.341 28.128 58.605 28.128C57.9863 28.128 57.437 28 56.957 27.744C56.4877 27.488 56.1197 27.1573 55.853 26.752V32.256H53.117V19.072H55.853V20.336ZM59.757 23.52C59.757 22.8373 59.565 22.304 59.181 21.92C58.8077 21.5253 58.3437 21.328 57.789 21.328C57.245 21.328 56.781 21.5253 56.397 21.92C56.0237 22.3147 55.837 22.8533 55.837 23.536C55.837 24.2187 56.0237 24.7573 56.397 25.152C56.781 25.5467 57.245 25.744 57.789 25.744C58.333 25.744 58.797 25.5467 59.181 25.152C59.565 24.7467 59.757 24.2027 59.757 23.52ZM66.7124 20.336C66.979 19.92 67.347 19.584 67.8164 19.328C68.2857 19.072 68.835 18.944 69.4644 18.944C70.2004 18.944 70.867 19.1307 71.4644 19.504C72.0617 19.8773 72.531 20.4107 72.8724 21.104C73.2244 21.7973 73.4004 22.6027 73.4004 23.52C73.4004 24.4373 73.2244 25.248 72.8724 25.952C72.531 26.6453 72.0617 27.184 71.4644 27.568C70.867 27.9413 70.2004 28.128 69.4644 28.128C68.8457 28.128 68.2964 28 67.8164 27.744C67.347 27.488 66.979 27.1573 66.7124 26.752V32.256H63.9764V19.072H66.7124V20.336ZM70.6164 23.52C70.6164 22.8373 70.4244 22.304 70.0404 21.92C69.667 21.5253 69.203 21.328 68.6484 21.328C68.1044 21.328 67.6404 21.5253 67.2564 21.92C66.883 22.3147 66.6964 22.8533 66.6964 23.536C66.6964 24.2187 66.883 24.7573 67.2564 25.152C67.6404 25.5467 68.1044 25.744 68.6484 25.744C69.1924 25.744 69.6564 25.5467 70.0404 25.152C70.4244 24.7467 70.6164 24.2027 70.6164 23.52ZM77.5718 16.16V28H74.8358V16.16H77.5718ZM88.6745 19.072L83.0745 32.24H80.1305L82.1785 27.696L78.5465 19.072H81.6025L83.6665 24.656L85.7145 19.072H88.6745Z" fill="black"/>
<defs>
<linearGradient id="paint0_linear_1_3640" x1="-2.98823" y1="2.2" x2="121.281" y2="45.409" gradientUnits="userSpaceOnUse">
<stop offset="0.0528615" stop-color="#FFEF22"/>
<stop offset="0.829578" stop-color="#F49C0B"/>
</linearGradient>
</defs>
</svg>
