<svg width="34" height="34" viewBox="0 0 34 34" fill="none" xmlns="http://www.w3.org/2000/svg">
<path d="M33.085 32.5652C32.9802 32.5652 32.8666 32.5652 32.7618 32.5652C32.6919 32.5652 32.657 32.5477 32.6482 32.4778C32.6133 32.2682 32.5696 32.0673 32.5347 31.8576C32.4561 31.4646 32.3862 31.0715 32.3076 30.6784C32.229 30.2679 32.1591 29.8486 32.0717 29.438C32.0106 29.1585 31.9669 28.8615 31.8446 28.5995C31.504 27.8832 30.91 27.5338 30.1151 27.5251C29.8181 27.5251 29.5124 27.5251 29.2154 27.5251C28.7 27.5251 28.1847 27.5251 27.6606 27.5251C27.5033 27.5251 27.5033 27.5251 27.4771 27.3678C27.4509 27.2106 27.4247 27.0621 27.3898 26.9049C27.3636 26.7651 27.3374 26.6254 27.2937 26.4856C27.2238 26.3022 27.0753 26.1974 26.8744 26.1886C26.6822 26.1799 26.5337 26.2585 26.4289 26.4245C26.3328 26.5817 26.359 26.7564 26.394 26.9224C26.4289 27.0883 26.4551 27.2543 26.4901 27.4115C26.5075 27.4814 26.4813 27.5163 26.4027 27.5163C26.3765 27.5163 26.3503 27.5163 26.3154 27.5163C23.3979 27.5163 20.4804 27.5163 17.5717 27.5163C17.5454 27.5163 17.5192 27.5163 17.4843 27.5163C17.4232 27.5163 17.397 27.4901 17.4057 27.4203C17.4319 27.298 17.4581 27.1757 17.4756 27.0534C17.5542 26.6516 17.6328 26.241 17.7114 25.8392C17.8075 25.3239 17.8948 24.7998 17.9997 24.2844C18.0259 24.1446 18.0695 23.9961 18.1482 23.8739C18.3316 23.5769 18.6199 23.4546 18.9692 23.4633C20.9521 23.4633 22.9349 23.4633 24.9178 23.4633C24.9702 23.4633 25.0226 23.4633 25.075 23.472C25.4506 23.507 25.7563 23.7603 25.8437 24.1184C25.8786 24.2669 25.9048 24.4154 25.9485 24.5639C26.0184 24.7998 26.2455 24.9308 26.4901 24.8871C26.7172 24.8522 26.9006 24.6425 26.8831 24.4067C26.8482 23.9175 26.7172 23.4633 26.3765 23.0964C25.9747 22.6684 25.4768 22.4763 24.9003 22.4763C24.0967 22.4763 23.2843 22.4763 22.4807 22.4763C22.3846 22.4763 22.3322 22.4501 22.3147 22.3452C22.2885 22.188 22.2536 22.0308 22.2274 21.8735C22.1488 21.4717 22.0789 21.0699 22.0003 20.6681C21.9217 20.2401 21.8431 19.8034 21.7557 19.3753C21.7033 19.122 21.6596 18.8687 21.5723 18.6241C21.3364 17.9515 20.6551 17.4624 19.9388 17.4449C19.6069 17.4362 19.2662 17.4362 18.9343 17.4362C18.847 17.4362 18.8033 17.41 18.8033 17.3139C18.8033 16.1958 18.8033 15.069 18.8033 13.9509C18.8033 13.9072 18.7945 13.8548 18.8033 13.8199C18.8208 13.7762 18.8557 13.7238 18.8906 13.7151C19.0653 13.6452 19.24 13.5928 19.406 13.5229C20.0349 13.2783 20.6027 12.9377 21.1268 12.5184C22.1138 11.7322 22.8388 10.7452 23.3018 9.57469C23.5289 9.01565 23.6599 8.4304 23.7298 7.81896C23.8259 6.96293 23.7648 6.11563 23.5551 5.28581C23.4241 4.77918 23.2407 4.29002 22.9961 3.82707C22.5419 2.95357 21.9391 2.2111 21.1792 1.59091C20.5328 1.05808 19.8078 0.665006 19.0129 0.394221C18.4714 0.210786 17.9211 0.0884967 17.362 0.0360868C16.9253 -0.00758815 16.471 -0.0250581 16.0256 0.0622917C15.65 0.132172 15.2656 0.193316 14.8987 0.280666C14.3921 0.394221 13.9204 0.603861 13.4662 0.84844C13.0033 1.09302 12.5752 1.39001 12.1734 1.73941C11.6843 2.16742 11.2563 2.64785 10.9069 3.19815C10.802 3.35538 10.8195 3.58249 10.9418 3.73972C11.0641 3.89695 11.2301 3.95809 11.431 3.91442C11.5969 3.87948 11.693 3.76592 11.7804 3.64363C12.1298 3.12827 12.5578 2.67405 13.0469 2.28971C13.8593 1.66079 14.7765 1.25898 15.7897 1.09302C16.8379 0.927055 17.8599 1.02314 18.8557 1.39874C19.4409 1.61712 19.9738 1.91411 20.4629 2.29845C21.3015 2.96231 21.9304 3.79213 22.341 4.78792C22.5768 5.37316 22.7166 5.97587 22.769 6.60479C22.8126 7.1551 22.7777 7.69667 22.6641 8.23823C22.5244 8.9283 22.2711 9.57469 21.9042 10.1774C21.3015 11.1557 20.4891 11.9069 19.4584 12.431C18.7421 12.7979 17.9822 13.0075 17.1873 13.0599C16.1915 13.1298 15.2307 12.9639 14.3135 12.5533C13.6147 12.2389 12.9858 11.8108 12.453 11.2605C11.8066 10.6054 11.3349 9.83674 11.0466 8.96324C10.8894 8.48281 10.7846 8.00239 10.7496 7.5045C10.706 6.88431 10.7584 6.27286 10.8894 5.66142C10.9505 5.39937 10.7933 5.13732 10.54 5.07617C10.2517 5.01503 9.99842 5.15479 9.94601 5.43431C9.8936 5.67889 9.84119 5.92346 9.81499 6.17678C9.65776 7.38221 9.81499 8.54396 10.2692 9.67951C10.5662 10.422 10.9855 11.0858 11.5096 11.6886C12.1123 12.3699 12.8111 12.9202 13.6322 13.322C13.9466 13.4792 14.2698 13.5928 14.593 13.7238C14.7328 13.7762 14.7415 13.7762 14.7415 13.9247C14.7415 15.0603 14.7415 16.1958 14.7415 17.3314C14.7415 17.4624 14.7415 17.4711 14.6018 17.4711C14.331 17.4711 14.0602 17.4711 13.7981 17.4711C13.4837 17.4711 13.178 17.5235 12.8984 17.6633C12.4005 17.9166 12.0599 18.3097 11.9201 18.8512C11.859 19.0958 11.8153 19.3491 11.7716 19.6024C11.693 20.0043 11.6144 20.4148 11.5358 20.8166C11.4397 21.332 11.3436 21.8561 11.2475 22.3714C11.2301 22.485 11.1776 22.5199 11.0641 22.5199C10.2605 22.5112 9.46559 22.5199 8.66197 22.5199C8.33877 22.5199 8.03305 22.5723 7.74479 22.7121C7.29058 22.9392 6.94991 23.2799 6.81015 23.769C6.6966 24.1708 6.62672 24.5814 6.5481 24.9919C6.46949 25.4025 6.39087 25.813 6.31226 26.2236C6.24238 26.6166 6.16376 27.001 6.09388 27.3941C6.06768 27.5425 6.06768 27.5513 5.91918 27.5513C5.09809 27.5513 4.28574 27.5513 3.46465 27.5513C3.22881 27.5513 2.99296 27.5775 2.76585 27.6648C2.08453 27.9356 1.69145 28.4335 1.56043 29.1498C1.50802 29.4293 1.45561 29.7088 1.4032 29.9796C1.32458 30.3814 1.2547 30.792 1.17609 31.1938C1.09747 31.6305 1.01012 32.0673 0.931508 32.4953C0.922773 32.5564 0.887833 32.5826 0.826689 32.5826C0.721869 32.5826 0.608314 32.5826 0.503494 32.5826C0.337529 32.5826 0.206505 32.6525 0.101685 32.7748C-0.0206048 32.9146 -0.0293398 33.1591 0.05801 33.2902C0.171565 33.4736 0.32006 33.561 0.547169 33.561C5.95412 33.561 11.3611 33.561 16.768 33.561C22.14 33.561 27.5208 33.561 32.8928 33.561C32.9627 33.561 33.0238 33.561 33.0937 33.561C33.2859 33.5697 33.4955 33.3513 33.5305 33.1941C33.644 32.8359 33.3732 32.5739 33.085 32.5652ZM15.7722 15.7066C15.7722 15.1825 15.7722 14.6497 15.7722 14.1256C15.7722 13.9771 15.781 13.9684 15.9295 13.9771C16.3225 14.0033 16.7069 14.0295 17.1 14.0295C17.3009 14.0295 17.5105 13.9946 17.7114 13.9771C17.8337 13.9684 17.8512 13.9771 17.8512 14.0994C17.8512 15.1651 17.8512 16.2307 17.8512 17.3051C17.8512 17.4362 17.8424 17.4449 17.7201 17.4449C17.1174 17.4449 16.5147 17.4449 15.912 17.4449C15.781 17.4449 15.781 17.4362 15.781 17.3051C15.7722 16.781 15.7722 16.2395 15.7722 15.7066ZM12.287 22.3365C12.3656 21.9085 12.453 21.4717 12.5316 21.0437C12.6102 20.6419 12.6801 20.2488 12.7499 19.847C12.8024 19.5675 12.846 19.2793 12.9334 19.0085C13.0382 18.6678 13.309 18.4931 13.6584 18.4407C13.7195 18.432 13.7894 18.432 13.8593 18.432C15.8247 18.432 17.7988 18.432 19.7641 18.432C20.0873 18.432 20.3756 18.5193 20.5678 18.7901C20.6464 18.8949 20.7075 19.0259 20.725 19.1482C20.8735 19.882 21.0045 20.6157 21.1355 21.3494C21.1967 21.6814 21.2666 22.022 21.3277 22.354C21.3539 22.4763 21.3364 22.485 21.2141 22.485C20.6638 22.485 20.1223 22.485 19.572 22.485C18.6461 22.485 17.7201 22.485 16.7942 22.485C15.3355 22.485 13.8768 22.485 12.418 22.485C12.2695 22.4937 12.2608 22.485 12.287 22.3365ZM17.2048 23.5856C17.0476 23.935 17.0213 24.3106 16.9427 24.6775C16.9078 24.826 16.8903 24.9745 16.8641 25.123C16.8554 25.1579 16.8379 25.1841 16.8292 25.2103C16.8204 25.2103 16.8117 25.2103 16.803 25.2103C16.7855 25.1754 16.768 25.1404 16.7593 25.1055C16.6894 24.7211 16.6195 24.3281 16.5409 23.9437C16.5147 23.8214 16.4623 23.7079 16.4186 23.5856C16.3924 23.507 16.4012 23.472 16.4885 23.472C16.7069 23.472 16.9253 23.472 17.1349 23.472C17.2223 23.472 17.2397 23.507 17.2048 23.5856ZM7.14208 27.3504C7.22943 26.9224 7.30805 26.4943 7.38666 26.0663C7.46528 25.6558 7.54389 25.254 7.62251 24.8434C7.66618 24.6076 7.70986 24.363 7.76227 24.1272C7.84962 23.769 8.15534 23.5157 8.52221 23.4808C8.58335 23.472 8.6445 23.472 8.71438 23.472C10.6885 23.472 12.6626 23.472 14.628 23.472C14.9774 23.472 15.2744 23.5769 15.4578 23.8826C15.5364 24.0136 15.5801 24.1621 15.6063 24.3106C15.7286 24.9483 15.8421 25.5859 15.9644 26.2236C16.043 26.6254 16.1129 27.0184 16.2003 27.4115C16.2177 27.4901 16.1915 27.5163 16.1216 27.5163C16.0867 27.5163 16.0605 27.5163 16.0256 27.5163C14.5668 27.5163 13.1168 27.5163 11.6581 27.5163C10.1993 27.5163 8.74058 27.5163 7.28184 27.5163C7.11588 27.5251 7.10714 27.5163 7.14208 27.3504ZM10.9243 32.5652C9.98969 32.5652 9.05504 32.5652 8.1204 32.5652C7.58757 32.5652 7.05473 32.5652 6.5219 32.5652C5.07189 32.5652 3.62188 32.5652 2.16314 32.5652C2.1282 32.5652 2.09326 32.5652 2.05832 32.5652C1.99718 32.5652 1.97097 32.539 1.98844 32.4691C2.14567 31.6393 2.3029 30.8007 2.46013 29.9709C2.50381 29.735 2.54748 29.4992 2.59116 29.2633C2.6785 28.7829 3.01917 28.5034 3.49959 28.5034C4.82731 28.5034 6.16376 28.5034 7.49148 28.5121C8.20775 28.5121 8.92402 28.5121 9.64029 28.5121C9.96348 28.5121 10.3129 28.7567 10.4002 29.0712C10.4788 29.3682 10.5313 29.6739 10.5924 29.9796C10.671 30.3902 10.7496 30.8094 10.8282 31.22C10.9069 31.6218 10.9767 32.0149 11.0554 32.4167C11.0728 32.5652 11.0641 32.5652 10.9243 32.5652ZM12.0599 28.6169C11.9813 28.9052 11.9026 29.2022 11.8415 29.4992C11.7891 29.7438 11.7542 29.9971 11.7017 30.2417C11.7017 30.2591 11.6843 30.2766 11.6668 30.329C11.6493 30.2591 11.6319 30.2242 11.6231 30.1805C11.5445 29.77 11.4659 29.3594 11.3785 28.9489C11.3611 28.8441 11.3174 28.7392 11.2737 28.6432C11.2388 28.5645 11.2475 28.5296 11.3349 28.5296C11.5532 28.5296 11.7716 28.5296 11.9813 28.5296C12.0599 28.5209 12.0861 28.5383 12.0599 28.6169ZM21.2578 32.5652C21.2229 32.5652 21.1879 32.5652 21.153 32.5652C19.703 32.5652 18.253 32.5652 16.803 32.5652C15.353 32.5652 13.8942 32.5652 12.4442 32.5652C12.4093 32.5652 12.3743 32.5652 12.3394 32.5652C12.287 32.5652 12.2608 32.539 12.2695 32.4778C12.3307 32.1634 12.3918 31.8402 12.4442 31.517C12.5228 31.0977 12.6014 30.6784 12.6801 30.2591C12.7499 29.901 12.8111 29.5341 12.8897 29.176C12.9771 28.7742 13.3439 28.5034 13.737 28.5034C15.7897 28.5121 17.8337 28.5121 19.8864 28.5034C20.2882 28.5034 20.6551 28.8091 20.7337 29.2197C20.8385 29.77 20.9434 30.3203 21.0482 30.8618C21.1443 31.3859 21.2403 31.9188 21.3452 32.4429C21.3626 32.539 21.3277 32.5652 21.2578 32.5652ZM22.3497 28.6169C22.2099 28.9139 22.1837 29.2371 22.1138 29.5603C22.0702 29.7787 22.0352 29.9971 21.9916 30.2155C21.9828 30.2417 21.9741 30.2679 21.9653 30.2853C21.9566 30.2853 21.9479 30.2853 21.9304 30.2853C21.9042 30.1456 21.878 30.0058 21.8518 29.8661C21.7819 29.5167 21.7208 29.176 21.6422 28.8266C21.6247 28.748 21.5897 28.6781 21.5548 28.5995C21.5286 28.5383 21.5461 28.5121 21.6072 28.5121C21.8343 28.5121 22.0614 28.5121 22.2885 28.5121C22.3672 28.5209 22.3759 28.5558 22.3497 28.6169ZM31.5564 32.5652C31.5214 32.5652 31.4865 32.5652 31.4515 32.5652C30.0015 32.5652 28.5515 32.5652 27.0928 32.5652C25.634 32.5652 24.1666 32.5652 22.7078 32.5652C22.5506 32.5652 22.5419 32.5652 22.5768 32.4079C22.6554 31.9974 22.734 31.5956 22.8126 31.185C22.8913 30.7832 22.9611 30.3727 23.0398 29.9709C23.1009 29.6739 23.1533 29.3769 23.2319 29.0799C23.3193 28.7567 23.6687 28.5121 24.0006 28.5121C25.5292 28.5121 27.0491 28.5034 28.5777 28.5034C29.0931 28.5034 29.6085 28.4947 30.1238 28.5034C30.613 28.5034 30.9449 28.7829 31.041 29.2633C31.1895 30.0233 31.3292 30.7745 31.4777 31.5344C31.5389 31.8402 31.5913 32.1546 31.6524 32.4603C31.6524 32.539 31.6262 32.5652 31.5564 32.5652Z" fill="#FFEF22"/>
<path d="M22.376 16.222C22.376 16.5016 22.5594 16.7199 22.8302 16.7898C23.101 16.8684 23.3892 16.9383 23.6338 17.0693C24.4811 17.5061 24.9965 18.2136 25.1886 19.1483C25.241 19.419 25.4769 19.6112 25.7477 19.6112C26.0272 19.6112 26.2368 19.419 26.3067 19.1483C26.3853 18.8687 26.4552 18.5892 26.5862 18.3359C27.023 17.4973 27.7305 16.9907 28.6477 16.7898C28.9359 16.7287 29.1194 16.5103 29.1106 16.222C29.1019 15.9513 28.9097 15.7241 28.6215 15.6717C28.3332 15.6193 28.0624 15.5232 27.8091 15.3835C26.988 14.938 26.4902 14.2479 26.298 13.3308C26.2368 13.0512 26.0097 12.8591 25.7389 12.8591C25.4682 12.8591 25.2498 13.0687 25.1712 13.3395C25.1013 13.6103 25.0227 13.8985 24.8917 14.1431C24.4549 14.9729 23.7648 15.4796 22.8389 15.6717C22.5856 15.7329 22.3847 15.96 22.376 16.222ZM24.3064 16.1696C24.8829 15.829 25.3459 15.3747 25.6778 14.7895C25.6953 14.7633 25.704 14.7458 25.7215 14.7196C25.7302 14.7109 25.7389 14.7109 25.7651 14.7022C25.835 14.807 25.8962 14.9118 25.9661 15.0079C26.2892 15.4796 26.6998 15.8639 27.189 16.1609C27.2239 16.1784 27.2501 16.2133 27.2763 16.2395C27.2414 16.2657 27.2152 16.3007 27.1802 16.3269C26.6212 16.6675 26.167 17.113 25.835 17.672C25.8088 17.707 25.7739 17.7419 25.7477 17.7681C25.7215 17.7332 25.6865 17.707 25.6603 17.672C25.3197 17.1043 24.8742 16.6588 24.3064 16.3181C24.2715 16.3007 24.2453 16.2657 24.2191 16.2395C24.2453 16.2133 24.2715 16.1871 24.3064 16.1696Z" fill="#FFEF22"/>
<path d="M2.07553 20.1353C2.27643 20.1877 2.47734 20.2401 2.66077 20.31C3.23728 20.5283 3.6915 20.9127 4.03217 21.428C4.25927 21.7687 4.3903 22.153 4.47765 22.5461C4.53879 22.7907 4.74843 22.9567 5.00175 22.9654C5.25506 22.9741 5.47344 22.8169 5.55205 22.5811C5.6132 22.3889 5.65687 22.188 5.72675 21.9958C5.92766 21.4455 6.27706 21 6.75748 20.6594C7.12435 20.3886 7.54363 20.2401 7.98038 20.144C8.20749 20.0916 8.38219 19.8645 8.39966 19.6286C8.40839 19.3928 8.2599 19.1569 8.03279 19.0871C7.77947 18.9997 7.51742 18.9473 7.27284 18.8337C6.60025 18.5455 6.11109 18.0563 5.8141 17.3925C5.70055 17.1479 5.6394 16.8684 5.56079 16.6063C5.48217 16.3705 5.2638 16.222 5.01922 16.222C4.77464 16.2307 4.565 16.3967 4.49512 16.6325C4.43397 16.8596 4.38156 17.0867 4.28548 17.2964C3.87494 18.2223 3.1674 18.8075 2.17161 19.0259C1.85715 19.0958 1.65625 19.3054 1.65625 19.5937C1.65625 19.8557 1.83095 20.0654 2.07553 20.1353ZM3.57795 19.5238C4.16319 19.1744 4.62614 18.7202 4.96681 18.1349C5.01922 18.0476 5.05416 18.0476 5.10657 18.1349C5.44723 18.7202 5.91019 19.1831 6.49543 19.5238C6.58278 19.5762 6.58278 19.6112 6.50417 19.6636C5.91019 20.0042 5.44723 20.4759 5.09783 21.0699C5.0891 21.0961 5.06289 21.1136 5.03669 21.1398C5.01048 21.1048 4.98428 21.0874 4.96681 21.0612C4.62614 20.4759 4.15446 20.0042 3.56921 19.6636C3.48186 19.6112 3.48186 19.5762 3.57795 19.5238Z" fill="#FFEF22"/>
<path d="M14.4364 6.12434C14.4364 5.8885 14.3753 5.67886 14.2617 5.49542C14.1482 5.31199 13.9909 5.17223 13.79 5.06741C13.5979 4.97132 13.3708 4.91891 13.1174 4.91891H11.9382C11.8247 4.91891 11.7198 4.96259 11.6325 5.0412C11.5451 5.11982 11.5015 5.23337 11.5015 5.35566V8.69243C11.5015 8.81472 11.5451 8.91954 11.6238 8.99815C11.7024 9.07677 11.8159 9.12044 11.9295 9.12044H13.2135C13.4843 9.12044 13.7376 9.0593 13.9473 8.94574C14.1656 8.83219 14.3403 8.67496 14.4626 8.47405C14.5849 8.27315 14.6461 8.0373 14.6461 7.78399C14.6461 7.49573 14.5674 7.25116 14.4102 7.06772C14.3229 6.97164 14.2268 6.89302 14.1132 6.82314C14.1656 6.77073 14.2093 6.71832 14.253 6.65718C14.384 6.49995 14.4364 6.31651 14.4364 6.12434ZM12.3837 5.74874H13.1349C13.2834 5.74874 13.397 5.78368 13.493 5.85356C13.5367 5.8885 13.6066 5.95838 13.6066 6.13308C13.6066 6.30778 13.5454 6.37766 13.493 6.4126C13.4057 6.48248 13.2834 6.51742 13.1349 6.51742H12.3837V5.74874ZM13.7551 8.07224C13.7114 8.15086 13.6415 8.20327 13.5542 8.23821C13.4668 8.28188 13.3533 8.29935 13.231 8.29935H12.375V7.32977H13.231C13.362 7.32977 13.4668 7.34724 13.5629 7.39091C13.6503 7.42585 13.7114 7.47826 13.7551 7.53941C13.7988 7.60055 13.825 7.6879 13.825 7.78399C13.825 7.90628 13.8075 8.00236 13.7551 8.07224Z" fill="#FFEF22"/>
<path d="M15.824 5.0412C15.7454 4.96259 15.6406 4.91891 15.5183 4.91891C15.4047 4.91891 15.2999 4.96259 15.2126 5.0412C15.1252 5.11982 15.0815 5.23337 15.0815 5.35566V7.6617C15.0815 7.95869 15.1602 8.22947 15.3174 8.46532C15.4746 8.70116 15.6843 8.8846 15.955 9.01562C16.2171 9.14665 16.5316 9.20779 16.8722 9.20779C17.2041 9.20779 17.5011 9.14665 17.7632 9.01562C18.0252 8.8846 18.2349 8.70116 18.3921 8.46532C18.5406 8.22947 18.6192 7.95869 18.6192 7.6617V5.35566C18.6192 5.23337 18.5755 5.12855 18.4969 5.04994C18.4183 4.97132 18.3135 4.92765 18.1912 4.92765C18.0776 4.92765 17.9728 4.97132 17.8855 5.04994C17.8069 5.12855 17.7632 5.24211 17.7632 5.3644V7.67043C17.7632 7.81019 17.7282 7.93248 17.6584 8.04604C17.5885 8.15959 17.4837 8.23821 17.3526 8.30809C17.2216 8.36923 17.0556 8.40417 16.8809 8.40417C16.6975 8.40417 16.5228 8.36923 16.3831 8.30809C16.2433 8.24694 16.1385 8.15959 16.0599 8.04604C15.99 7.94122 15.9463 7.81893 15.9463 7.67043V5.35566C15.9463 5.23337 15.9026 5.12855 15.824 5.0412Z" fill="#FFEF22"/>
<path d="M20.2794 8.99818C20.358 9.07679 20.4628 9.12047 20.5763 9.12047C20.6986 9.12047 20.8035 9.07679 20.8821 8.99818C20.9607 8.91956 21.0044 8.81474 21.0044 8.69245V7.60058L22.3059 5.59153C22.367 5.49545 22.3932 5.39936 22.3845 5.29454C22.3758 5.19846 22.3321 5.11111 22.2709 5.04123C22.2011 4.96261 22.105 4.92767 22.0002 4.92767C21.9128 4.92767 21.8429 4.94514 21.7818 4.98008C21.7206 5.01502 21.6682 5.06743 21.6333 5.12858L20.6113 6.74455L19.6068 5.14605C19.5631 5.0849 19.5194 5.03249 19.467 4.99755C19.4059 4.95388 19.3272 4.92767 19.2312 4.92767C19.1263 4.92767 19.039 4.96261 18.9604 5.02376C18.8818 5.0849 18.8294 5.18099 18.8119 5.27707C18.7944 5.38189 18.8206 5.48671 18.8905 5.59153L20.1833 7.60058V8.70119C20.1571 8.81474 20.2007 8.91956 20.2794 8.99818Z" fill="#FFEF22"/>
</svg>
