<svg width="30" height="30" viewBox="0 0 30 30" fill="none" xmlns="http://www.w3.org/2000/svg">
<path fill-rule="evenodd" clip-rule="evenodd" d="M0 2.74531V14.221C0 16.1474 0.00162784 18.0722 0.003255 19.9962C0.00488078 21.9186 0.00650587 23.8401 0.00650587 25.7617C0.00650587 26.3862 0.182154 26.9457 0.559471 27.4336C0.910766 27.8955 1.37265 28.2012 1.93212 28.3573C2.21837 28.4419 2.51111 28.4614 2.81036 28.4614H15.6912C15.8083 28.4614 15.9124 28.481 16.0165 28.546C17.2915 29.3787 18.6967 29.8406 20.2125 29.9642C21.0647 30.0293 21.9169 29.9707 22.7561 29.7951C23.3677 29.6649 23.9597 29.4763 24.5321 29.2226C25.6055 28.7477 26.5488 28.0971 27.3685 27.2644C28.3248 26.2821 29.0339 25.1502 29.4828 23.8556C29.7625 23.0554 29.9187 22.2292 29.9707 21.3835C30.0228 20.4727 29.9252 19.5685 29.6975 18.6772C29.4633 17.7404 29.086 16.8687 28.5655 16.0555C28.494 15.9384 28.4549 15.8213 28.4549 15.6782V2.79735C28.4549 2.58267 28.4419 2.36799 28.4029 2.15982C28.2858 1.48975 27.9475 0.949799 27.4076 0.539954C26.9066 0.162637 26.3407 0 25.7161 0H2.7323C2.45907 0 2.18584 0.0260223 1.91911 0.104088C1.184 0.318769 0.650547 0.767646 0.292746 1.43771C0.0780657 1.84105 0 2.28342 0 2.74531ZM20.8956 13.5834C24.929 13.5769 28.2207 16.8622 28.2207 20.8956C28.2207 24.9355 24.9355 28.2272 20.9021 28.2207C16.8622 28.2142 13.5834 24.929 13.5834 20.8956C13.5899 16.8687 16.8687 13.5899 20.8956 13.5834ZM13.1085 1.75648H13.3362C13.3362 5.63374 13.3362 9.47847 13.3492 13.3362H1.7825C1.78 13.3212 1.77654 13.3072 1.77323 13.2938C1.76792 13.2722 1.76298 13.2522 1.76298 13.2321V12.9654V2.7388C1.76298 2.55015 1.7825 2.3745 1.87358 2.21186C2.03621 1.92562 2.28993 1.77599 2.62171 1.75648H2.79085H13.1085ZM26.6985 13.7135C26.6985 13.7656 26.6985 13.8241 26.6919 13.9152C24.9745 12.536 23.0554 11.8269 20.9021 11.84C18.7423 11.84 16.8231 12.5491 15.1317 13.9087C15.1274 13.8915 15.1231 13.8764 15.1193 13.8629L15.1192 13.8628L15.1192 13.8627L15.1192 13.8627C15.1115 13.8357 15.1057 13.8155 15.1057 13.7981V1.76949C15.1475 1.76949 15.1819 1.76762 15.2138 1.76589C15.2414 1.76438 15.2672 1.76298 15.2944 1.76298H25.7552C26.139 1.76298 26.4382 1.91261 26.6074 2.2574C26.647 2.34157 26.664 2.43328 26.6813 2.52678L26.6813 2.52684L26.6813 2.52689L26.6814 2.52693L26.6814 2.52697C26.6868 2.55626 26.6922 2.58573 26.6985 2.6152C26.7028 2.65832 26.7014 2.69859 26.6999 2.73978L26.6999 2.73988C26.6992 2.7608 26.6985 2.78196 26.6985 2.80386V13.7135ZM1.75648 15.1187H13.3492C13.3492 15.3659 13.3492 15.6001 13.3427 15.8343C13.3427 15.8864 13.3102 15.9449 13.2777 15.9904C12.9459 16.4979 12.6662 17.0443 12.445 17.6103C12.1457 18.378 11.9571 19.1716 11.8725 19.9978C11.8009 20.6874 11.8139 21.3705 11.8985 22.0535C12.0091 22.9383 12.2498 23.784 12.6141 24.5972C12.9329 25.2998 13.3297 25.9568 13.8176 26.5618C13.8339 26.5782 13.8477 26.5996 13.8637 26.6245C13.8732 26.6394 13.8836 26.6555 13.8957 26.6724C13.8437 26.6789 13.8111 26.6854 13.7786 26.6919L13.7786 26.6919H13.7005H2.7388C2.6152 26.6919 2.48509 26.6789 2.36799 26.6464C2.01019 26.5423 1.76298 26.2105 1.75648 25.8332V25.599V15.3269V15.1187ZM20.219 23.2455C20.4445 23.2448 20.6701 23.244 20.8956 23.244H21.956C22.0687 23.244 22.1815 23.2448 22.2943 23.2455C22.5198 23.2469 22.7453 23.2484 22.9708 23.244C23.6409 23.231 24.0442 22.4959 23.6994 21.9234C23.5173 21.6307 23.244 21.4941 22.8993 21.4941H18.9049C18.8921 21.4941 18.8787 21.4934 18.865 21.4927L18.8649 21.4927C18.8367 21.4912 18.8076 21.4897 18.7813 21.4941C18.1503 21.5591 17.7795 22.2292 18.0787 22.7756C18.2478 23.0814 18.5146 23.244 18.8659 23.244C19.3169 23.2484 19.768 23.2469 20.219 23.2455ZM20.8826 20.3166C20.6595 20.3166 20.4363 20.3173 20.213 20.318H20.2128H20.2127H20.2125C19.7652 20.3195 19.317 20.3209 18.8659 20.3166C18.5081 20.3166 18.2413 20.1475 18.0722 19.8352C17.786 19.2887 18.1633 18.6252 18.7813 18.5666C18.8076 18.5623 18.8367 18.5638 18.8649 18.5652L18.865 18.5652C18.8787 18.5659 18.8921 18.5666 18.9049 18.5666H22.8993C23.192 18.5666 23.4392 18.6642 23.6279 18.8984C23.8491 19.1716 23.8946 19.4839 23.745 19.8092C23.5953 20.1345 23.3286 20.3166 22.9708 20.3231C22.6586 20.3329 22.3464 20.3316 22.0342 20.3304H22.034C21.9299 20.33 21.8258 20.3296 21.7218 20.3296C21.442 20.3166 21.1623 20.3166 20.8826 20.3166ZM8.62625 6.67464H8.43109V6.49249C8.43109 6.37935 8.43182 6.26693 8.43254 6.155L8.43254 6.15469C8.43399 5.93207 8.43542 5.71136 8.43109 5.49065C8.41808 5.02225 8.02775 4.64494 7.56586 4.63843C7.09747 4.63193 6.69413 5.00924 6.68112 5.48414C6.67136 5.73775 6.67258 5.99501 6.6738 6.25319C6.6742 6.3394 6.67461 6.4257 6.67461 6.51201C6.67461 6.55511 6.67015 6.59822 6.66492 6.64872L6.66492 6.64873L6.6616 6.68115H6.47294C6.35976 6.68115 6.2473 6.68042 6.13532 6.67969H6.13523H6.13514H6.13509C5.91248 6.67825 5.69179 6.67682 5.4711 6.68115C5.00921 6.69416 4.62539 7.09099 4.62539 7.55288C4.62539 8.02128 5.00271 8.41811 5.4776 8.43112C5.70313 8.43546 5.92865 8.43401 6.15417 8.43257C6.26694 8.43184 6.3797 8.43112 6.49246 8.43112C6.55101 8.43112 6.60305 8.43112 6.67461 8.43763V8.60677C6.67461 8.71905 6.6739 8.83205 6.67318 8.94553V8.94554V8.94556C6.67173 9.17395 6.67027 9.40429 6.67461 9.63463C6.68112 10.09 7.07795 10.4673 7.53333 10.4738C8.00823 10.4803 8.41157 10.0965 8.42458 9.61512C8.42893 9.38938 8.42747 9.16654 8.42603 8.94467V8.94462V8.94457L8.42602 8.94429C8.4253 8.8338 8.42458 8.72354 8.42458 8.61328V8.43112C8.4664 8.43112 8.50076 8.42925 8.53264 8.42752H8.53266H8.53268H8.5327H8.53272C8.56032 8.42602 8.58608 8.42462 8.61324 8.42462C8.726 8.42462 8.83877 8.42534 8.95153 8.42606C9.17705 8.42751 9.40257 8.42895 9.6281 8.42462C10.09 8.41161 10.4738 8.01477 10.4738 7.55288C10.4803 7.07798 10.09 6.68115 9.60858 6.67464C9.39149 6.6703 9.1715 6.67176 8.95249 6.6732C8.84334 6.67393 8.73444 6.67464 8.62625 6.67464ZM20.8891 8.4311H19.1716C18.7423 8.4311 18.4235 8.1904 18.2999 7.78706C18.1698 7.37071 18.417 6.8828 18.8333 6.73968C18.9374 6.70715 19.048 6.68113 19.1521 6.68113C20.3166 6.67462 21.4811 6.67462 22.6455 6.68113C23.1335 6.68113 23.5238 7.07145 23.5303 7.54635C23.5368 8.02776 23.153 8.42459 22.6651 8.4311C22.348 8.43544 22.0309 8.43398 21.7157 8.43254C21.5589 8.43182 21.4025 8.4311 21.2469 8.4311H20.8891ZM8.86812 20.9687C8.85044 20.9476 8.83206 20.9257 8.80841 20.9021C8.84744 20.8565 8.88647 20.8175 8.92551 20.7915L9.55654 20.1605L9.55655 20.1604C9.60859 20.1084 9.66063 20.0564 9.70616 19.9978C9.93386 19.7051 9.96638 19.3343 9.78423 19.0155C9.60208 18.6902 9.30933 18.5471 8.93852 18.5731C8.71733 18.5861 8.53518 18.6902 8.37905 18.8463L7.71549 19.5099C7.63688 19.5918 7.60115 19.6324 7.56512 19.6327C7.52959 19.633 7.49376 19.5939 7.41624 19.5164C7.34739 19.4476 7.27908 19.3782 7.21085 19.3089C7.04051 19.1359 6.87063 18.9634 6.69413 18.8008C6.41439 18.5406 6.03057 18.4951 5.7053 18.6577C5.37352 18.8268 5.18486 19.1586 5.22389 19.5294C5.24341 19.7506 5.3475 19.9328 5.50363 20.0889L6.19971 20.785C6.23224 20.824 6.26477 20.863 6.3038 20.9086L6.09563 21.1168C6.03213 21.1803 5.96863 21.2427 5.90544 21.3048C5.74852 21.4591 5.59349 21.6115 5.44508 21.7738C5.16534 22.0796 5.13932 22.5024 5.36051 22.8537C5.55567 23.153 5.99805 23.3286 6.36235 23.192C6.50547 23.14 6.62908 23.0619 6.73967 22.9513L7.42274 22.2682C7.48956 22.2048 7.52206 22.1739 7.55373 22.1747C7.58373 22.1755 7.61298 22.2048 7.66995 22.2617L7.90415 22.4959C7.95217 22.5439 8.00019 22.593 8.04851 22.6424C8.17038 22.7669 8.29415 22.8934 8.42459 23.0098C8.73034 23.2896 9.15971 23.3156 9.50449 23.0879C9.82977 22.8797 9.96638 22.4699 9.84278 22.0861C9.79724 21.9364 9.71267 21.8193 9.60208 21.7088L8.919 21.0257C8.90024 21.0069 8.88448 20.9882 8.86812 20.9687Z" fill="black"/>
</svg>
