<svg width="16" height="15" viewBox="0 0 16 15" fill="none" xmlns="http://www.w3.org/2000/svg">
<g clip-path="url(#clip0_1_52)">
<path d="M14.4341 3.7082C13.7696 2.56788 12.8651 1.66762 11.7248 0.998857C10.5844 0.334381 9.34124 0 7.99514 0C6.64904 0 5.40154 0.334381 4.25693 0.998857C3.11232 1.66333 2.20349 2.56788 1.53901 3.7082C0.874535 4.84853 0.540154 6.09174 0.540154 7.43784C0.540154 8.78394 0.874535 10.0314 1.53901 11.1761C2.20349 12.325 3.11232 13.2295 4.25693 13.894C5.40154 14.5584 6.64904 14.8928 7.99514 14.8928C9.34124 14.8928 10.5844 14.5584 11.7248 13.894C12.8651 13.2295 13.7654 12.3207 14.4341 11.1761C15.0986 10.0314 15.433 8.78394 15.433 7.43784C15.433 6.09174 15.0986 4.84853 14.4341 3.7082Z" fill="#F49C0B"/>
<path d="M13.894 3.81538C13.2295 2.67505 12.325 1.7748 11.1846 1.10603C10.0443 0.441559 8.80109 0.107178 7.45499 0.107178C6.10889 0.107178 4.86139 0.441559 3.71678 1.10603C2.57216 1.7748 1.66333 2.67505 0.998857 3.81538C0.334381 4.95571 0 6.19892 0 7.54502C0 8.89112 0.334381 10.1386 0.998857 11.2832C1.66333 12.4321 2.57216 13.3367 3.71678 14.0011C4.86139 14.6656 6.10889 15 7.45499 15C8.80109 15 10.0443 14.6656 11.1846 14.0011C12.325 13.3367 13.2252 12.4278 13.894 11.2832C14.5584 10.1386 14.8928 8.89112 14.8928 7.54502C14.8928 6.19892 14.5584 4.95571 13.894 3.81538Z" fill="#FFEF22"/>
<path d="M12.9637 4.35544C12.3935 3.37802 11.6219 2.60637 10.6445 2.03621C9.66705 1.46604 8.60389 1.18311 7.45499 1.18311C6.3018 1.18311 5.23864 1.46604 4.25693 2.03621C3.66962 2.37916 3.15947 2.79071 2.71792 3.27942C3.0523 2.97505 3.42098 2.70497 3.82395 2.46919C4.80566 1.89902 5.86882 1.61609 7.02201 1.61609C8.1752 1.61609 9.23836 1.89902 10.2115 2.46919C11.1846 3.03935 11.9606 3.811 12.5307 4.78842C13.1009 5.76584 13.3838 6.829 13.3838 7.9779C13.3838 9.13109 13.1009 10.1942 12.5307 11.176C12.2949 11.5789 12.0249 11.9476 11.7205 12.282C12.2049 11.8404 12.6208 11.3303 12.9637 10.743C13.5339 9.76127 13.8168 8.69811 13.8168 7.54492C13.8168 6.39602 13.5339 5.33286 12.9637 4.35544Z" fill="#DD8403"/>
<path d="M13.3881 7.97804C13.3881 6.82485 13.1052 5.76169 12.535 4.78855C11.9648 3.81541 11.1889 3.03948 10.2158 2.46931C9.23835 1.89915 8.17518 1.61621 7.02629 1.61621C5.8731 1.61621 4.80994 1.89915 3.82823 2.46931C3.42526 2.7051 3.05658 2.97517 2.7222 3.27955C2.4264 3.60535 2.1649 3.96117 1.93341 4.35557C1.36324 5.33299 1.08031 6.39616 1.08031 7.54506C1.08031 8.69825 1.36324 9.76141 1.93341 10.7431C2.50357 11.7248 3.2795 12.5008 4.26121 13.0709C5.24292 13.6411 6.30608 13.924 7.45927 13.924C8.61245 13.924 9.67561 13.6411 10.6487 13.0709C11.0389 12.8437 11.399 12.5779 11.7248 12.2821C12.0291 11.9478 12.2992 11.5791 12.535 11.1761C13.1009 10.1944 13.3881 9.12694 13.3881 7.97804Z" fill="#F49C0B"/>
<path d="M8.28665 3.57094V10.7558C8.28665 10.863 8.32524 10.9445 8.4024 11.0045C8.51386 11.0859 8.65104 11.1245 8.80966 11.1245H9.92426V11.5575H5.77879V11.1245H6.73478C6.93627 11.1245 7.08202 11.0774 7.17634 10.9831C7.27065 10.8887 7.32209 10.7644 7.32209 10.6058V5.17425C7.32209 5.06279 7.27922 4.96848 7.1892 4.89131C7.09917 4.81415 6.98771 4.77557 6.85053 4.77557H5.57302V4.37688C6.17319 4.29972 6.65762 4.19683 7.03058 4.06822C7.40354 3.93961 7.73364 3.77242 8.01658 3.56665L8.28665 3.57094Z" fill="#DD8403"/>
<path d="M7.99944 3.55824V10.7432C7.99944 10.8503 8.03802 10.9318 8.11519 10.9918C8.22665 11.0733 8.36383 11.1118 8.52245 11.1118H9.63706V11.5448H5.49157V11.1118H6.44756C6.64905 11.1118 6.7948 11.0647 6.88912 10.9704C6.98343 10.8761 7.03487 10.7517 7.03487 10.5931V5.16156C7.03487 5.0501 6.992 4.95579 6.90198 4.87862C6.81195 4.80146 6.70049 4.76287 6.56331 4.76287H5.2858V4.36419C5.88597 4.28702 6.3704 4.18414 6.74336 4.05553C7.11633 3.92692 7.44642 3.75973 7.72936 3.55396L7.99944 3.55824Z" fill="#FFEF22"/>
</g>
<defs>
<clipPath id="clip0_1_52">
<rect width="15.433" height="15" fill="white"/>
</clipPath>
</defs>
</svg>
