<svg width="33" height="34" viewBox="0 0 33 34" fill="none" xmlns="http://www.w3.org/2000/svg">
<path d="M32.7601 17.8379C32.6203 17.5496 32.2447 17.3924 31.9564 17.5234C31.8429 17.5758 31.7381 17.6719 31.6333 17.7505C31.607 17.768 31.5634 17.7767 31.5284 17.7854C31.5284 17.7505 31.5197 17.7068 31.5284 17.6806C31.6944 17.2089 31.6769 16.746 31.4586 16.3005C31.1703 15.6803 30.4278 15.4707 29.8338 15.8201C29.336 16.1083 29.135 16.6324 29.2486 17.1915C29.3097 17.4885 29.4146 17.7767 29.6067 18.0213C29.6417 18.065 29.6504 18.1086 29.598 18.1523C29.467 18.2746 29.17 18.327 29.0128 18.2484C28.7944 18.1348 28.6284 17.9601 28.5498 17.7156C28.4974 17.5496 28.4712 17.3836 28.41 17.2177C28.2266 16.7285 28.0519 16.2306 27.851 15.7415C27.5278 14.9815 27.0823 14.2827 26.567 13.6276C25.8856 12.7716 25.0995 12.0291 24.1998 11.4089C23.5534 10.9634 22.8721 10.5791 22.1471 10.2646C21.8239 10.1249 21.4919 10.0026 21.1687 9.87155C21.0989 9.84535 21.0727 9.80167 21.1338 9.74053C21.1513 9.72306 21.1687 9.69685 21.1862 9.67938C21.7016 9.09414 22.0772 8.43028 22.3305 7.69654C22.4965 7.21612 22.5838 6.72696 22.6188 6.22033C22.6886 5.19834 22.4965 4.22875 22.0597 3.30285C21.719 2.59531 21.2561 1.97513 20.6621 1.45103C20.1118 0.961871 19.4829 0.595001 18.7841 0.341687C18.3736 0.193192 17.9455 0.0971074 17.5175 0.0446975C16.8275 -0.0426523 16.1461 0.00102258 15.4648 0.149517C14.9756 0.263072 14.5127 0.437772 14.0672 0.673616C13.2549 1.11037 12.5735 1.70434 12.032 2.46429C11.7262 2.90104 11.4816 3.37273 11.2982 3.87062C11.141 4.30737 11.0449 4.76159 10.9925 5.22454C10.8964 6.11551 11.01 6.98901 11.3069 7.82757C11.4816 8.32546 11.7262 8.78841 12.032 9.21643C12.0931 9.29504 12.0669 9.32998 11.9708 9.36492C11.4729 9.52215 10.975 9.68812 10.4859 9.86282C10.381 9.89776 10.3199 9.89776 10.2325 9.81914C9.71718 9.36492 9.11447 9.0854 8.43314 8.98932C7.72561 8.89323 7.04428 8.99805 6.39789 9.32125C6.11837 9.46101 5.96988 9.67065 5.96988 9.99384C5.97861 10.7101 5.96988 11.4264 5.96988 12.1426C5.96988 12.23 5.94367 12.2824 5.87379 12.3348C5.23614 12.8414 4.66836 13.418 4.16173 14.0556C3.56776 14.8068 3.0786 15.6192 2.70299 16.5014C2.65932 16.6062 2.60691 16.6412 2.49335 16.6412C2.10028 16.6324 1.7072 16.6324 1.32286 16.6412C1.1569 16.6499 0.9822 16.6674 0.833706 16.7285C0.292137 16.9644 0.00388221 17.3836 0.00388221 17.9776C-0.00485277 18.6415 0.00388221 19.2966 0.00388221 19.9605H0.0126172C0.0126172 20.6505 0.00388221 21.3406 0.0126172 22.0306C0.0126172 22.1704 0.0475571 22.3276 0.091232 22.4587C0.274667 22.9915 0.781296 23.3409 1.38401 23.3147C1.75961 23.2972 2.14395 23.3147 2.52829 23.306C2.60691 23.306 2.65058 23.3322 2.68552 23.402C2.97378 24.1008 3.34938 24.7647 3.77739 25.3849C4.36264 26.2234 5.06144 26.9572 5.85632 27.6036C5.93494 27.6647 5.96114 27.7259 5.96114 27.8307C5.96114 28.7479 5.96114 29.665 5.96114 30.5822C5.96114 31.0102 6.05723 31.4208 6.26686 31.7964C6.55512 32.2943 6.9744 32.6524 7.51597 32.8446C7.73434 32.9232 7.96145 32.993 8.18856 33.0018C8.79128 33.0193 9.39399 33.0105 9.9967 33.0105C10.2238 33.0105 10.4509 33.0367 10.6693 32.9581C10.8789 32.8795 11.106 32.8533 11.2982 32.7485C12.1193 32.3467 12.5561 31.6741 12.6259 30.7656C12.6347 30.6521 12.6434 30.6433 12.757 30.6608C12.9841 30.6958 13.2112 30.7394 13.4383 30.7656C14.2419 30.853 15.0455 30.8879 15.8491 30.8705C16.7576 30.8442 17.6485 30.7394 18.5395 30.5822C18.7055 30.5473 18.7055 30.5473 18.7055 30.722C18.7142 31.115 18.819 31.4819 19.0112 31.8226C19.2558 32.2593 19.6139 32.5912 20.0681 32.8009C20.3302 32.9232 20.601 33.028 20.898 33.028C21.5793 33.0367 22.2694 33.0367 22.9507 33.028C23.1429 33.028 23.3263 33.028 23.5185 32.9756C23.763 32.897 24.0163 32.8271 24.2347 32.6961C24.9335 32.2593 25.3528 31.6391 25.379 30.8093C25.4139 29.665 25.3877 28.5207 25.3877 27.3765C25.3877 27.2716 25.4139 27.193 25.4926 27.1231C26.1652 26.503 26.7504 25.8216 27.2483 25.053C27.589 24.5289 27.8859 23.9785 28.1131 23.3933C28.2528 23.0352 28.3751 22.6683 28.4712 22.3014C28.576 21.8996 28.6634 21.4891 28.7158 21.0698C28.7682 20.6156 28.7682 20.1614 28.7856 19.6984C28.7944 19.5586 28.7944 19.5499 28.9254 19.5761C29.2137 19.6198 29.5019 19.5936 29.7814 19.4975C30.0697 19.4014 30.3055 19.2267 30.5326 19.0345C30.6025 18.9734 30.6637 18.9472 30.751 18.9996C30.7947 19.0258 30.8558 19.0433 30.9083 19.0608C31.5634 19.2267 32.1224 19.0782 32.5854 18.5891C32.8387 18.3532 32.8911 18.1174 32.7601 17.8379ZM16.8973 1.2938C19.3781 1.32 21.326 3.34652 21.3522 5.80105C21.3434 8.38661 19.282 10.4131 16.7401 10.3782C14.2332 10.3432 12.2416 8.30799 12.2591 5.80979C12.2765 3.31158 14.2943 1.25886 16.8973 1.2938ZM27.5365 20.4584C27.5016 20.93 27.4317 21.3843 27.3182 21.8385C27.1959 22.3189 27.0299 22.7819 26.8203 23.2361C26.4621 24.0222 25.9817 24.7298 25.4139 25.3849C24.7588 26.1361 23.9901 26.7737 23.1865 27.3677C23.0642 27.4638 22.9332 27.5512 22.8109 27.6472C22.5663 27.8307 22.4965 28.1277 22.61 28.4159C22.7061 28.6518 22.9856 28.8177 23.2564 28.8003C23.4311 28.7828 23.5709 28.6867 23.7106 28.5819C23.8154 28.5033 23.929 28.4159 24.0338 28.3373C24.06 28.3198 24.095 28.3111 24.1299 28.3024C24.1386 28.3373 24.1561 28.3635 24.1561 28.3985C24.1561 29.1147 24.1561 29.8397 24.1561 30.556C24.1561 30.9927 23.9727 31.3247 23.5883 31.5343C23.4311 31.6217 23.2651 31.6479 23.0992 31.6479C22.4353 31.6479 21.7715 31.6479 21.1076 31.6479C20.5136 31.6479 20.0419 31.1412 20.0507 30.5822C20.0594 30.2852 20.0507 29.997 20.0507 29.7C20.0507 29.4379 19.9371 29.2195 19.6925 29.106C19.579 29.0536 19.4305 29.0186 19.3082 29.0448C19.0025 29.0972 18.6967 29.1846 18.391 29.2457C18.094 29.3069 17.797 29.3593 17.5001 29.3942C16.644 29.5078 15.788 29.5689 14.932 29.5253C14.338 29.4903 13.744 29.4292 13.15 29.3593C12.8443 29.3244 12.5298 29.2719 12.2329 29.1933C11.9533 29.1235 11.6738 29.0186 11.403 28.9226C11.0886 28.809 10.7741 28.678 10.4597 28.5557C10.2325 28.4683 10.0142 28.3635 9.78706 28.2674C9.49881 28.1451 9.13194 28.2762 8.99218 28.5557C8.83495 28.8701 8.9223 29.2457 9.21055 29.403C9.43766 29.5253 9.68224 29.6301 9.91809 29.7349C10.2762 29.8834 10.6431 30.0319 11.0012 30.1717C11.0886 30.2066 11.1847 30.2241 11.2633 30.2677C11.2982 30.2852 11.3506 30.3289 11.3594 30.3638C11.4467 30.7656 11.2458 31.2548 10.9051 31.4906C10.7217 31.6129 10.5208 31.6741 10.3024 31.6741C9.63857 31.6741 8.98344 31.6828 8.31959 31.6741C7.82169 31.6653 7.44609 31.3771 7.29759 30.9054C7.26265 30.7918 7.26265 30.6608 7.26265 30.5385C7.26265 29.534 7.25392 28.5295 7.26265 27.525C7.26265 27.2018 7.1491 26.9659 6.88705 26.7737C5.78644 25.9265 4.88674 24.887 4.24035 23.6379C4.03944 23.2448 3.87348 22.8343 3.69878 22.4237C3.59396 22.1704 3.36685 22.0044 3.08733 22.0044C2.54576 22.0044 2.01293 22.0044 1.47136 22.0044C1.3316 22.0044 1.32286 22.0044 1.32286 21.8559C1.32286 21.227 1.32286 20.6068 1.32286 19.9779C1.31413 19.9779 1.30539 19.9779 1.29666 19.9779C1.29666 19.3752 1.29666 18.7725 1.29666 18.1698C1.29666 17.9165 1.30539 17.9077 1.54997 17.9077C2.04787 17.9077 2.54576 17.9077 3.04366 17.9077C3.32318 17.9077 3.55029 17.8029 3.67257 17.5409C3.75119 17.3836 3.8036 17.2177 3.87348 17.0604C4.19667 16.2656 4.62469 15.5406 5.15752 14.8592C5.68162 14.1866 6.29307 13.5927 6.98313 13.086C7.19277 12.9375 7.28886 12.7366 7.28886 12.4746C7.28886 11.8107 7.28886 11.1381 7.28886 10.4743C7.28886 10.3345 7.30633 10.3083 7.43735 10.2821C8.30212 10.0899 9.03585 10.3345 9.6211 10.9984C9.89188 11.3041 10.1277 11.3565 10.5033 11.2167C10.9838 11.0333 11.4642 10.8411 11.9533 10.6839C12.2678 10.5791 12.5997 10.5529 12.9229 10.4568C13.1326 10.3957 13.2723 10.4655 13.4296 10.5878C13.8401 10.8935 14.2943 11.1294 14.7747 11.3041C15.6046 11.6098 16.4693 11.7146 17.3516 11.636C17.963 11.5836 18.557 11.4264 19.116 11.1731C19.3431 11.0682 19.5615 10.9372 19.7886 10.8324C19.841 10.8062 19.9109 10.7887 19.9633 10.8062C20.4699 10.9896 20.9766 11.1643 21.4832 11.374C22.1645 11.6535 22.8022 12.0204 23.4136 12.4396C24.5754 13.2433 25.5362 14.239 26.2612 15.4532C26.5932 16.021 26.8814 16.6062 27.0736 17.2351C27.2134 17.6981 27.3444 18.1611 27.4405 18.6327C27.554 19.2355 27.5802 19.8469 27.5365 20.4584Z" fill="#FFEF22"/>
<path d="M20.9325 12.4222C20.749 12.3348 20.5569 12.2911 20.3647 12.23C19.8755 12.0815 19.3689 11.9854 18.8623 11.933C18.2421 11.8719 17.6219 11.8456 17.0017 11.802C17.0017 11.8107 17.0017 11.8282 17.0017 11.8369C16.862 11.8369 16.7309 11.8369 16.5912 11.8369C15.8138 11.8456 15.0451 11.9155 14.2764 12.0203C13.9357 12.0728 13.5951 12.1164 13.2544 12.1776C13.0535 12.2125 12.8439 12.23 12.6692 12.361C12.4159 12.5444 12.3285 12.8589 12.4683 13.1646C12.5818 13.4267 12.8963 13.5752 13.1845 13.514C13.3418 13.4791 13.499 13.4441 13.6562 13.4267C14.3026 13.3393 14.9403 13.2432 15.5867 13.1821C16.4165 13.1035 17.2463 13.086 18.0761 13.1472C18.871 13.2083 19.6659 13.3219 20.4258 13.5839C20.7403 13.6887 21.0984 13.5315 21.2295 13.2258C21.3517 12.9375 21.2382 12.5707 20.9325 12.4222Z" fill="#FFEF22"/>
<path d="M24.8896 18.7812C24.8634 18.5454 24.8372 18.3183 24.7673 18.0911C24.68 17.8116 24.5751 17.5408 24.4354 17.2788C24.2781 16.9731 23.8938 16.8857 23.5968 17.0429C23.2911 17.2089 23.1601 17.5758 23.3173 17.8815C23.5444 18.3357 23.6318 18.8162 23.6318 19.3228C23.623 20.1613 23.4309 20.9475 23.0989 21.7162C22.7757 22.4412 22.3302 23.0788 21.7363 23.6117C21.6402 23.699 21.5616 23.8126 21.5179 23.9349C21.4305 24.2144 21.5528 24.5114 21.7974 24.6599C22.0333 24.8083 22.3302 24.7821 22.5574 24.59C23.0552 24.1707 23.4658 23.6728 23.8065 23.1138C24.2432 22.3975 24.5577 21.6288 24.7411 20.8077C24.8547 20.3273 24.9158 19.8469 24.8983 19.3577C24.8896 19.1655 24.9071 18.9734 24.8896 18.7812Z" fill="#FFEF22"/>
<path d="M6.98361 15.6279C6.67789 15.8026 6.47699 16.0559 6.34596 16.3791C6.19747 16.7459 6.16253 17.1215 6.29355 17.4971C6.5294 18.1785 7.23693 18.4842 7.93573 18.0911C8.48603 17.7854 8.69567 17.2788 8.74808 16.6236C8.72188 16.5014 8.70441 16.3179 8.64326 16.1607C8.35501 15.4532 7.63874 15.2523 6.98361 15.6279Z" fill="#FFEF22"/>
<path d="M19.7362 24.7734C19.3868 24.7734 19.0898 25.0704 19.0898 25.4111C19.0898 25.7605 19.3868 26.0575 19.7362 26.0575C20.0856 26.0575 20.3826 25.7692 20.3826 25.4198C20.3826 25.0704 20.0856 24.7734 19.7362 24.7734Z" fill="#FFEF22"/>
<path d="M14.687 3.83566C14.7394 3.85313 14.783 3.86186 14.8355 3.86186C15.3858 3.86186 15.9273 3.86186 16.4776 3.86186C16.6174 3.86186 16.7572 3.87933 16.8882 3.93174C17.1328 4.03656 17.3162 4.21126 17.4297 4.45584C17.4385 4.48205 17.4472 4.50825 17.4647 4.53446C17.4472 4.53446 17.4297 4.53446 17.4123 4.53446C16.565 4.53446 15.709 4.53446 14.8617 4.53446C14.8442 4.53446 14.8267 4.53446 14.8093 4.53446C14.7743 4.53446 14.7394 4.54319 14.7132 4.55193C14.5734 4.5956 14.4773 4.71789 14.4773 4.85765C14.4686 4.98868 14.5297 5.0935 14.6433 5.16338C14.7044 5.19832 14.7656 5.21579 14.8355 5.21579C15.3683 5.21579 15.9099 5.21579 16.4427 5.21579C16.7659 5.21579 17.0891 5.21579 17.4123 5.21579C17.4297 5.21579 17.4385 5.21579 17.456 5.21579C17.456 5.22452 17.456 5.23326 17.456 5.23326C17.4035 5.37302 17.3249 5.48657 17.2201 5.59139C17.0891 5.72242 16.9231 5.8185 16.7397 5.86217C16.6523 5.88838 16.5562 5.88838 16.4689 5.88838C16.1457 5.88838 15.8312 5.88838 15.5081 5.88838C15.4644 5.88838 15.412 5.88838 15.3683 5.90585C15.1674 5.97573 15.0713 6.22031 15.1849 6.40374C15.2111 6.43868 15.2373 6.47362 15.2722 6.50856C16.0584 7.30345 16.8532 8.0896 17.6481 8.88448C17.7442 8.98056 17.849 9.07665 17.9451 9.18147C18.0499 9.28629 18.1984 9.32123 18.3382 9.26008C18.4954 9.1902 18.574 8.99803 18.5129 8.8408C18.4954 8.78839 18.4605 8.73598 18.4168 8.69231C18.1635 8.43899 17.9102 8.18568 17.6569 7.9411C17.2114 7.49562 16.7746 7.05887 16.3291 6.61338C16.3204 6.60465 16.3117 6.59591 16.3029 6.57844C16.3204 6.57844 16.3291 6.57844 16.3466 6.57844C16.3903 6.57844 16.4427 6.57844 16.4864 6.57844C16.6611 6.57844 16.827 6.56097 16.9843 6.50856C17.159 6.45615 17.3162 6.37754 17.4647 6.27272C17.7005 6.10675 17.884 5.89711 18.015 5.63507C18.0761 5.52151 18.1198 5.39922 18.146 5.2682C18.1548 5.21579 18.1547 5.22452 18.2072 5.22452C18.4255 5.22452 18.6526 5.22452 18.871 5.22452C19.0457 5.22452 19.1942 5.08476 19.2029 4.91006C19.2117 4.7703 19.1505 4.66548 19.037 4.5956C18.9758 4.56066 18.9147 4.54319 18.8448 4.54319C18.6264 4.54319 18.4081 4.54319 18.1897 4.54319C18.1548 4.54319 18.1547 4.54319 18.1373 4.50825C18.1111 4.42964 18.0936 4.35976 18.0674 4.28114C18.015 4.14138 17.9451 4.01036 17.8578 3.8968C17.849 3.88807 17.849 3.87933 17.849 3.8706C17.8665 3.8706 17.884 3.8706 17.8927 3.8706C18.2072 3.8706 18.5216 3.8706 18.8361 3.8706C18.8798 3.8706 18.9234 3.8706 18.9584 3.85313C19.1156 3.80072 19.2117 3.65222 19.1942 3.48626C19.1767 3.36397 19.1069 3.27662 18.9933 3.21548C18.9409 3.18927 18.8885 3.18927 18.8273 3.18927C17.4909 3.18927 16.1457 3.18927 14.8093 3.18927C14.8005 3.18927 14.783 3.18927 14.7743 3.18927C14.7481 3.18927 14.7219 3.19801 14.687 3.19801C14.5385 3.24168 14.4424 3.36397 14.4424 3.5212C14.4599 3.66096 14.5559 3.78325 14.687 3.83566Z" fill="#FFEF22"/>
</svg>
