<svg width="34" height="32" viewBox="0 0 34 32" fill="none" xmlns="http://www.w3.org/2000/svg">
<path d="M11.5166 29.8362C11.4642 29.8274 11.4205 29.8187 11.3856 29.8187C8.5467 29.8187 5.70783 29.8187 2.86896 29.8187C2.51082 29.8187 2.17889 29.7575 1.8819 29.5566C1.45389 29.2597 1.22678 28.8491 1.19184 28.3337C1.19184 28.2813 1.19184 28.2377 1.19184 28.1853C1.19184 25.2328 1.19184 22.2804 1.19184 19.3192C1.19184 19.2144 1.1569 19.1445 1.07829 19.0834C0.536716 18.6729 0.187317 18.1488 0.0562921 17.4762C0.0300872 17.3277 0.00388221 17.1704 0.00388221 17.0132C0.00388221 14.5063 -0.00485277 12.0081 0.00388221 9.50112C0.00388221 8.81979 0.265932 8.24328 0.728886 7.74539C0.851176 7.6231 0.9822 7.50954 1.12196 7.40473C1.1831 7.35231 1.20057 7.29117 1.20057 7.22129C1.20057 6.0246 1.20057 4.83664 1.20057 3.63995C1.20057 2.95862 1.20057 2.27729 1.20057 1.59596C1.20057 1.01072 1.45389 0.556498 1.95178 0.242039C2.08281 0.163424 2.24004 0.128484 2.3798 0.0673392C2.58944 -0.0287456 2.80781 0.00619434 3.01745 0.00619434C10.119 0.00619434 17.2118 0.00619434 24.3133 0.00619434C24.951 0.00619434 25.4576 0.285714 25.7633 0.862223C25.8507 1.03692 25.8856 1.23783 25.9293 1.43C25.9468 1.50861 25.938 1.59596 25.938 1.68331C25.938 7.51828 25.938 13.3445 25.938 19.1795C25.938 19.293 25.9293 19.4066 25.8944 19.5027C25.7983 19.7298 25.5886 19.8259 25.3528 19.7822C25.1519 19.7473 24.9947 19.5551 24.9772 19.328C24.9772 19.293 24.9772 19.2494 24.9772 19.2144C24.9772 16.7599 24.9772 14.3141 24.9772 11.8596C24.9772 11.7373 24.9685 11.7198 24.8374 11.7198C24.4793 11.7198 24.1212 11.7198 23.7718 11.7198C23.4398 11.7111 23.1691 11.58 23.0293 11.2743C22.9682 11.1433 22.9419 10.9948 22.9332 10.855C22.9245 10.1038 22.9332 9.34389 22.9332 8.59268C22.9332 8.44419 22.9245 8.44419 22.7847 8.43545C22.5925 8.42672 22.4091 8.42672 22.2257 8.40051C21.7802 8.33063 21.3784 7.87641 21.3697 7.4222C21.3522 6.76707 21.3609 6.11195 21.3697 5.45682C21.3784 5.07248 21.6928 4.65321 22.0597 4.53965C22.2257 4.48724 22.4004 4.4523 22.5663 4.4523C23.3176 4.44357 24.0775 4.4523 24.8287 4.4523C24.9685 4.4523 24.9859 4.43483 24.9859 4.29507C24.9859 3.41284 24.9859 2.5306 24.9859 1.64837C24.9859 1.36012 24.8811 1.15048 24.6016 1.03692C24.5579 1.01945 24.5142 1.01072 24.4706 1.01072C24.4182 1.00198 24.357 1.01072 24.3046 1.01072C17.1594 1.01072 10.0054 1.01072 2.86022 1.01072C2.7554 1.01072 2.64185 1.01072 2.5545 1.04566C2.29245 1.14174 2.17016 1.34265 2.17016 1.62217C2.17016 3.36916 2.17016 5.11616 2.17016 6.86316C2.17016 6.94177 2.18763 6.97671 2.27498 6.97671C2.66805 6.95924 3.06986 6.95051 3.47167 6.94177C3.56776 6.94177 3.6289 6.90683 3.68131 6.82822C4.07438 6.2255 4.62469 5.81496 5.32349 5.62279C5.95241 5.44809 6.58132 5.47429 7.19277 5.71887C7.97892 6.03333 8.52923 6.59237 8.84368 7.37852C9.05332 7.91135 9.10573 8.47039 8.97471 9.0207C8.76507 9.9466 8.23224 10.6279 7.37621 11.0472C6.80843 11.3267 6.21445 11.3966 5.60301 11.2831C4.79065 11.1346 4.153 10.7065 3.69878 10.0165C3.63764 9.92914 3.58523 9.88546 3.48041 9.8942C3.35812 9.90293 3.22709 9.90293 3.1048 9.8942C3.01745 9.8942 2.97378 9.92914 2.98251 10.0165C2.98251 10.0689 2.98251 10.13 2.98251 10.1825C2.98251 12.2963 2.98251 14.4189 2.98251 16.5328C2.98251 16.6376 3.01745 16.6725 3.11354 16.6638C3.27077 16.6551 3.428 16.6551 3.58523 16.6638C3.66384 16.6638 3.71625 16.6376 3.75993 16.5765C4.11806 16.0611 4.59848 15.703 5.19246 15.5021C5.84759 15.2837 6.51144 15.2837 7.15783 15.537C7.97019 15.8427 8.52923 16.4105 8.85242 17.2054C9.04459 17.6683 9.097 18.1575 9.01838 18.6641C8.86989 19.6424 8.35453 20.3674 7.4985 20.8304C6.93946 21.1361 6.32801 21.2409 5.68162 21.1361C4.90421 21.0051 4.28402 20.6295 3.8036 20.0093C3.73372 19.922 3.68131 19.8346 3.6289 19.7385C3.58523 19.6599 3.53282 19.6162 3.428 19.6162C3.04366 19.6162 2.65932 19.6075 2.27498 19.59C2.21383 19.59 2.18763 19.6075 2.18763 19.6686C2.18763 19.6861 2.18763 19.7123 2.18763 19.7298C2.18763 22.5512 2.18763 25.3813 2.18763 28.2027C2.18763 28.3774 2.21383 28.5259 2.32739 28.6569C2.41474 28.7618 2.52829 28.8316 2.66805 28.8404C2.74667 28.8491 2.82528 28.8491 2.91263 28.8491C5.9262 28.8491 8.9485 28.8491 11.9621 28.8491C12.0844 28.8491 12.1455 28.8054 12.1979 28.7094C12.591 28.028 12.9841 27.3467 13.3771 26.6566C13.5955 26.281 13.9274 26.0889 14.3555 26.0889C14.9669 26.0889 15.5784 26.0889 16.1898 26.0889C16.3034 26.0889 16.347 26.0452 16.3907 25.9491C16.5043 25.722 16.6266 25.5036 16.7488 25.2852C17.1769 24.5428 17.6049 23.8003 18.0329 23.0578C18.2949 22.6036 18.5483 22.1494 18.819 21.7039C19.0374 21.3458 19.3693 21.1885 19.7799 21.1885C20.3739 21.1885 20.9591 21.1885 21.5531 21.1885C22.5838 21.1885 23.6145 21.1885 24.6453 21.1885C25.0558 21.1885 25.3965 21.337 25.6236 21.6952C25.7371 21.8786 25.8507 22.0708 25.9555 22.2629C26.3573 22.9617 26.7679 23.6605 27.1697 24.3681C27.4579 24.866 27.7375 25.3551 28.0257 25.853C28.0344 25.8617 28.0432 25.8705 28.0432 25.8792C28.0781 26.0714 28.2004 26.0889 28.3664 26.0889C28.9167 26.0801 29.467 26.0889 30.0173 26.0801C30.5152 26.0714 30.8733 26.281 31.1179 26.7178C31.7818 27.8883 32.4631 29.05 33.1357 30.2118C33.2754 30.4476 33.4152 30.6835 33.52 30.928C33.5724 31.0416 33.5724 31.2076 33.5287 31.3298C33.4589 31.557 33.3278 31.7491 33.1007 31.8539C32.9697 31.9151 32.8387 31.9675 32.6902 31.9675C32.2971 31.9588 31.904 31.9675 31.5022 31.9588C31.2577 31.9588 31.0131 31.7229 31.0131 31.4696C31.0043 31.2076 31.2227 30.9804 31.4848 30.9804C31.7643 30.9717 32.0351 30.9804 32.3146 30.9804C32.3495 30.9804 32.3932 30.963 32.4281 30.9542C32.4107 30.9193 32.4019 30.8844 32.3845 30.8494C32.07 30.3079 31.7643 29.7663 31.4498 29.2247C31.0567 28.5347 30.6549 27.8446 30.2619 27.1545C30.2182 27.0759 30.157 27.041 30.061 27.041C28.4537 27.041 26.8377 27.041 25.2305 27.041C25.1344 27.041 25.0733 27.0759 25.0296 27.1545C24.4444 28.1765 23.8504 29.1985 23.2651 30.2205C23.1429 30.4301 23.0293 30.631 22.907 30.832C22.8895 30.8669 22.8808 30.9106 22.8721 30.9455C22.9157 30.9542 22.9507 30.9717 22.9944 30.9717C24.0513 30.9717 25.0995 30.9717 26.1564 30.9717C27.1347 30.9717 28.1218 30.9717 29.1001 30.9717C29.3097 30.9717 29.4757 31.0416 29.5805 31.225C29.7116 31.4521 29.6155 31.7579 29.3796 31.8801C29.2748 31.9413 29.1613 31.9588 29.039 31.9588C26.9164 31.9588 24.785 31.9588 22.6624 31.9588C22.5489 31.9588 22.4266 31.9675 22.3218 31.9064C22.2781 31.8801 22.182 31.8801 22.1296 31.9064C22.0248 31.9675 21.92 31.9588 21.8064 31.9588C19.0287 31.9588 16.251 31.9588 13.482 31.9588C12.888 31.9588 12.2853 31.9762 11.6913 31.95C11.1235 31.9238 10.7042 31.3124 11.0012 30.7621C11.1497 30.4826 11.3157 30.2118 11.4729 29.9322C11.4642 29.9322 11.4904 29.8886 11.5166 29.8362ZM16.7751 30.9979C18.3299 30.9979 19.8847 30.9979 21.4395 30.9979C21.4832 30.9979 21.5269 30.9804 21.5618 30.9717C21.5444 30.9368 21.5356 30.8931 21.5181 30.8582C21.2474 30.3777 20.9678 29.906 20.6883 29.4256C20.2603 28.6831 19.8236 27.9319 19.3955 27.1895C19.3431 27.1021 19.282 27.0672 19.1859 27.0672C17.5787 27.0672 15.9714 27.0672 14.3642 27.0672C14.2594 27.0672 14.1982 27.1021 14.1546 27.1895C14.0585 27.3554 13.9711 27.5127 13.875 27.6786C13.4558 28.4124 13.0277 29.1461 12.5997 29.8798C12.3988 30.2205 12.1979 30.5699 11.997 30.9106C11.9621 30.9717 11.9795 30.9979 12.0494 31.0066C12.0669 31.0066 12.0931 31.0066 12.1106 31.0066C13.6741 30.9979 15.229 30.9979 16.7751 30.9979ZM22.1995 26.0976C23.7194 26.0976 25.248 26.0976 26.7679 26.0976C26.8115 26.0976 26.8552 26.0976 26.9076 26.0976C26.995 26.0976 27.0125 26.0626 26.9688 25.984C26.8028 25.6958 26.6368 25.4163 26.4709 25.128C25.9206 24.1759 25.3703 23.2238 24.82 22.2717C24.7763 22.2018 24.7239 22.1668 24.6365 22.1668C23.0206 22.1668 21.4046 22.1668 19.7886 22.1668C19.7013 22.1668 19.6489 22.2018 19.6052 22.2717C19.2907 22.8132 18.985 23.3461 18.6705 23.8876C18.2687 24.5864 17.8669 25.2765 17.4738 25.9753C17.4564 26.0102 17.4476 26.0452 17.4389 26.0889C17.4739 26.0976 17.5175 26.1151 17.5525 26.1151C19.0986 26.0976 20.6446 26.0976 22.1995 26.0976ZM0.973465 13.2659C0.973465 14.4626 0.973465 15.6593 0.973465 16.856C0.973465 16.9521 0.973465 17.0481 0.9822 17.153C1.00841 17.45 1.11322 17.7207 1.28792 17.9653C1.64606 18.4457 2.12648 18.6554 2.72046 18.6554C3.68131 18.6554 4.65089 18.6554 5.61174 18.6554C5.67289 18.6554 5.73403 18.6554 5.79518 18.6379C6.02229 18.5942 6.19698 18.4021 6.21445 18.1837C6.23193 17.9566 6.09216 17.7295 5.87379 17.6596C5.78644 17.6334 5.69036 17.6334 5.59427 17.6334C4.64216 17.6334 3.69005 17.6334 2.73793 17.6247C2.60691 17.6247 2.45841 17.5985 2.33612 17.5373C2.07407 17.4063 1.99546 17.1617 1.99546 16.8822C1.99546 14.4801 1.99546 12.0779 1.99546 9.67582C1.99546 9.64088 1.98672 9.59721 1.99546 9.56227C2.01293 9.46618 2.0304 9.36136 2.07407 9.27401C2.2051 9.0207 2.42347 8.92461 2.70299 8.92461C3.69878 8.92461 4.69457 8.92461 5.69036 8.92461C5.98735 8.92461 6.22319 8.6975 6.22319 8.41798C6.22319 8.12973 5.99608 7.90262 5.69036 7.90262C4.65963 7.90262 3.63764 7.89388 2.60691 7.90262C2.15269 7.90262 1.75961 8.07732 1.43642 8.40925C1.11323 8.74991 0.96473 9.15172 0.96473 9.62341C0.973465 10.8376 0.973465 12.0517 0.973465 13.2659ZM23.667 7.48334C24.0513 7.48334 24.4269 7.48334 24.8112 7.48334C24.9423 7.48334 24.951 7.47461 24.951 7.35231C24.951 6.75834 24.951 6.15562 24.951 5.56164C24.951 5.43062 24.9335 5.41315 24.8112 5.41315C24.06 5.41315 23.3088 5.41315 22.5576 5.41315C22.3742 5.41315 22.3218 5.46556 22.3218 5.64899C22.3218 6.18183 22.3218 6.71466 22.3218 7.2475C22.3218 7.43093 22.3742 7.48334 22.5489 7.48334C22.9157 7.48334 23.2913 7.48334 23.667 7.48334ZM4.75571 19.6162C5.0527 19.9918 5.74277 20.2888 6.42409 20.1753C7.28012 20.0268 7.92651 19.3454 8.04007 18.4894C8.15362 17.6596 7.68193 16.8298 6.91325 16.4716C6.23193 16.1572 5.43704 16.3057 5.0265 16.6376C5.07891 16.6463 5.10511 16.6551 5.14005 16.6551C5.31475 16.6551 5.48072 16.6551 5.65542 16.6551C5.86506 16.6463 6.0747 16.69 6.26686 16.7686C6.94819 17.0481 7.33253 17.8081 7.11416 18.5418C6.93072 19.1707 6.34548 19.6075 5.69036 19.5988C5.41957 19.59 5.14879 19.5988 4.86927 19.5988C4.84306 19.6075 4.80812 19.6162 4.75571 19.6162ZM4.90421 6.88936C4.90421 6.8981 4.91294 6.90683 4.91294 6.91557C4.94788 6.91557 4.98282 6.9243 5.00903 6.9243C5.23614 6.9243 5.45451 6.9243 5.68162 6.9243C6.01355 6.9243 6.31927 7.02039 6.59006 7.22129C7.13163 7.63183 7.34127 8.36557 7.05301 8.98576C6.79096 9.56227 6.31927 9.85926 5.68162 9.87673C5.45451 9.88546 5.2274 9.87673 5.00029 9.87673C4.97409 9.87673 4.93915 9.89419 4.91294 9.90293C4.93041 9.92914 4.93915 9.97281 4.96535 9.98155C5.14005 10.0689 5.31475 10.1737 5.49819 10.2436C5.94367 10.4096 6.39789 10.3834 6.8259 10.2087C7.45482 9.9466 7.8479 9.48365 8.00513 8.81106C8.10995 8.3481 8.0488 7.90262 7.82169 7.48334C7.4985 6.88063 6.98313 6.53996 6.31054 6.46135C5.82138 6.4002 5.36716 6.53996 4.96535 6.81948C4.94788 6.84569 4.93041 6.87189 4.90421 6.88936ZM20.4612 27.0846C20.4787 27.1283 20.4962 27.1633 20.5136 27.1895C20.8106 27.7048 21.1163 28.2289 21.4133 28.7443C21.457 28.8142 21.5007 28.8491 21.588 28.8491C21.9986 28.8491 22.4091 28.8491 22.8109 28.8491C22.8895 28.8491 22.9419 28.8229 22.9856 28.7443C23.2826 28.2202 23.5883 27.7048 23.8853 27.1895C23.9028 27.1545 23.9115 27.1196 23.9203 27.0846C23.8853 27.0759 23.8504 27.0584 23.8154 27.0584C22.741 27.0584 21.6666 27.0584 20.5922 27.0584C20.5486 27.0672 20.5136 27.0759 20.4612 27.0846ZM24.9423 9.61468C24.9423 9.26528 24.9423 8.92461 24.9423 8.57521C24.9423 8.47913 24.9073 8.43545 24.8112 8.43545C24.5492 8.43545 24.2784 8.43545 24.0163 8.43545C23.9203 8.43545 23.8941 8.47039 23.8941 8.55774C23.8941 9.25654 23.8941 9.95534 23.8941 10.6541C23.8941 10.7328 23.9203 10.759 23.9989 10.759C24.2784 10.759 24.5492 10.759 24.8287 10.759C24.9161 10.759 24.951 10.724 24.951 10.6367C24.9423 10.3047 24.9423 9.96408 24.9423 9.61468ZM22.348 29.8711C22.3392 29.8536 22.3305 29.8274 22.313 29.8274C22.2344 29.8274 22.1645 29.8274 22.0859 29.8274C22.0772 29.8274 22.0597 29.8536 22.0685 29.8624C22.1034 29.9235 22.1471 29.9934 22.182 30.0545C22.1907 30.0633 22.2257 30.0633 22.2257 30.0545C22.2694 29.9934 22.3043 29.9322 22.348 29.8711Z" fill="#FFEF22"/>
<path d="M15.8834 11.5887C15.8834 11.2306 15.8834 10.8725 15.8834 10.5231C15.8834 10.3921 15.866 10.3746 15.735 10.3921C15.1322 10.4881 14.5645 10.6803 14.0491 11.0035C13.787 11.1695 13.4988 11.0996 13.359 10.855C13.2193 10.6192 13.2979 10.3309 13.5337 10.1824C14.1976 9.78061 14.9051 9.51856 15.6825 9.43121C15.7087 9.43121 15.735 9.42247 15.7524 9.42247C15.8485 9.41374 15.8922 9.37006 15.8922 9.26524C15.8834 8.92458 15.8922 8.58392 15.8922 8.25199C15.8922 8.05108 15.9708 7.88512 16.1542 7.78903C16.4337 7.64054 16.8181 7.82397 16.8356 8.14717C16.853 8.49657 16.8443 8.8547 16.8443 9.2041C16.8443 9.41374 16.8443 9.41374 17.0452 9.43994C17.4645 9.48362 17.8663 9.58844 18.2506 9.73693C18.897 9.98151 19.4823 10.3222 19.9802 10.7939C20.216 11.0122 20.4169 11.2568 20.6353 11.5014C20.6964 11.5625 20.7314 11.58 20.81 11.5276C21.0633 11.3616 21.3166 11.2044 21.5787 11.0559C21.8145 10.9162 22.1028 10.9948 22.2425 11.2306C22.3735 11.449 22.3037 11.7372 22.0765 11.877C21.8232 12.0342 21.5699 12.1915 21.3166 12.34C21.238 12.3924 21.2205 12.436 21.2642 12.5234C21.4651 12.9514 21.6049 13.3969 21.6835 13.8686C21.7708 14.3577 21.7796 14.8382 21.7359 15.3273C21.6922 15.834 21.5699 16.3318 21.369 16.8035C21.3253 16.8996 21.2817 17.0044 21.238 17.1005C21.1943 17.1791 21.2467 17.2141 21.3079 17.249C21.5612 17.4062 21.8058 17.5547 22.0591 17.712C22.2338 17.8168 22.3211 17.974 22.3037 18.1749C22.2775 18.3846 22.1552 18.5331 21.9455 18.5942C21.8145 18.6379 21.6835 18.6029 21.5699 18.5331C21.3079 18.3846 21.0546 18.2186 20.8012 18.0614C20.7314 18.0177 20.679 18.0264 20.6353 18.0963C20.2946 18.5418 19.8841 18.9261 19.4211 19.2406C18.7048 19.7298 17.9274 20.0355 17.0627 20.1403C17.0452 20.1403 17.0365 20.1403 17.019 20.149C16.8443 20.1752 16.8356 20.1752 16.8356 20.3587C16.8356 20.6906 16.8443 21.0313 16.8356 21.3632C16.8268 21.6689 16.5997 21.8611 16.294 21.8349C16.1106 21.8174 15.9359 21.6689 15.9009 21.4942C15.8834 21.4243 15.8834 21.3457 15.8747 21.2758C15.8747 20.9614 15.8747 20.6557 15.8747 20.3412C15.8747 20.184 15.866 20.1752 15.7087 20.149C15.3681 20.0792 15.0187 20.0267 14.6868 19.9219C13.7521 19.6249 12.9572 19.1008 12.3021 18.3584C12.2235 18.271 12.1449 18.1749 12.075 18.0876C12.0313 18.0264 11.9876 18.0177 11.9178 18.0614C11.6644 18.2186 11.4111 18.3758 11.1491 18.5331C10.9132 18.6728 10.6163 18.6029 10.4765 18.3758C10.3367 18.14 10.3979 17.8605 10.6425 17.712C10.8958 17.5547 11.1491 17.3975 11.4024 17.249C11.4723 17.2053 11.4897 17.1617 11.4548 17.0831C11.0879 16.2969 10.9132 15.4671 10.9482 14.5936C10.9744 13.8686 11.1403 13.1698 11.4548 12.5147C11.4897 12.436 11.481 12.3924 11.4024 12.34C11.1491 12.1915 10.9045 12.0342 10.6512 11.8857C10.4765 11.7722 10.3804 11.615 10.4066 11.4053C10.4328 11.2044 10.5813 11.0472 10.7909 10.9948C10.922 10.9598 11.0443 11.0035 11.1491 11.0647C12.2235 11.7198 13.3066 12.3749 14.381 13.0388C14.5208 13.1261 14.6605 13.2135 14.809 13.3008C14.844 13.3183 14.9139 13.3183 14.9401 13.2921C15.1846 13.065 15.4729 12.9077 15.7874 12.8116C15.8572 12.7942 15.866 12.7418 15.866 12.6806C15.8834 12.3138 15.8834 11.9469 15.8834 11.5887ZM12.3632 12.9165C12.3458 12.9427 12.3196 12.9689 12.3108 12.9951C12.1623 13.3095 12.0663 13.6502 12.0051 13.9909C11.8479 14.8818 11.9527 15.7379 12.3108 16.5677C12.3458 16.6463 12.3807 16.655 12.4506 16.6114C13.0708 16.227 13.6997 15.8514 14.3286 15.4671C14.3898 15.4321 14.4072 15.3885 14.3898 15.3099C14.2937 14.9605 14.2937 14.6023 14.3898 14.2442C14.4072 14.1743 14.3985 14.1306 14.3374 14.0957C13.7084 13.7114 13.0795 13.327 12.4419 12.9427C12.4157 12.9427 12.3982 12.9339 12.3632 12.9165ZM20.81 14.7945C20.8012 14.1743 20.679 13.5803 20.4344 13.0038C20.3994 12.9252 20.3558 12.9252 20.2859 12.9601C19.6657 13.3357 19.0542 13.7201 18.4341 14.0957C18.3554 14.1394 18.338 14.1918 18.3642 14.2791C18.4603 14.6198 18.4515 14.9605 18.3642 15.3011C18.3467 15.3797 18.3467 15.4321 18.4253 15.4758C19.0542 15.8514 19.6744 16.2358 20.3033 16.6201C20.3732 16.6638 20.4082 16.655 20.4431 16.5764C20.679 16.0087 20.7925 15.4147 20.81 14.7945ZM15.8834 17.9915C15.8834 17.6334 15.8834 17.2752 15.8834 16.9171C15.8834 16.8472 15.866 16.8035 15.7874 16.7773C15.4729 16.6812 15.2021 16.524 14.9575 16.3056C14.9313 16.2794 14.8527 16.2794 14.8178 16.3056C14.2238 16.6638 13.6298 17.0219 13.0446 17.3888C12.8262 17.5198 12.8262 17.5023 13.0009 17.7032C13.7346 18.5418 14.6518 19.031 15.7524 19.2057C15.8572 19.2231 15.8834 19.1969 15.8834 19.0834C15.8834 18.7078 15.8834 18.3496 15.8834 17.9915ZM16.9491 10.3746C16.8705 10.3746 16.8443 10.4183 16.8443 10.4881C16.8443 11.2219 16.8443 11.9644 16.8443 12.6981C16.8443 12.733 16.888 12.7942 16.9142 12.8029C17.2286 12.9077 17.5169 13.0562 17.7615 13.2833C17.7877 13.3095 17.8576 13.3095 17.8925 13.2921C18.5214 12.9165 19.1416 12.5321 19.7705 12.1478C19.8666 12.0866 19.8753 12.0604 19.7967 11.9818C19.5696 11.746 19.3425 11.5101 19.0979 11.3005C18.7136 10.9773 18.2594 10.7415 17.7789 10.5842C17.5082 10.4969 17.2199 10.4357 16.9491 10.3746ZM16.8443 17.9828C16.8443 18.3496 16.8443 18.7078 16.8443 19.0746C16.8443 19.1882 16.8618 19.2057 16.9841 19.1882C17.3422 19.127 17.7003 19.0397 18.041 18.8999C18.7398 18.6117 19.325 18.1749 19.8055 17.5984C19.8666 17.5285 19.8579 17.4849 19.7792 17.4325C19.1591 17.0568 18.5389 16.6725 17.9187 16.2882C17.8663 16.2532 17.8139 16.2532 17.7702 16.2969C17.5344 16.524 17.2636 16.6725 16.9491 16.7686C16.8705 16.7948 16.853 16.8385 16.853 16.9171C16.8443 17.2665 16.8443 17.6246 16.8443 17.9828ZM16.3551 15.8776C16.9491 15.8951 17.4557 15.3972 17.4645 14.7858C17.4645 14.1743 16.9666 13.6851 16.3639 13.6851C15.7524 13.6939 15.2633 14.1743 15.2633 14.777C15.2633 15.3885 15.7524 15.8776 16.3551 15.8776Z" fill="#FFEF22"/>
<path d="M20.8979 3.08091C20.8979 2.6791 21.2299 2.34717 21.6317 2.34717C22.0335 2.34717 22.3567 2.67036 22.3567 3.07217C22.3567 3.47398 22.0335 3.80591 21.6404 3.80591C21.2299 3.81465 20.8979 3.48272 20.8979 3.08091Z" fill="#FFEF22"/>
<path d="M10.5386 3.07217C10.5386 2.67036 10.8618 2.34717 11.2636 2.34717C11.6654 2.34717 11.9886 2.6791 11.9886 3.08964C11.9886 3.49145 11.6567 3.81465 11.2548 3.81465C10.853 3.80591 10.5386 3.48272 10.5386 3.07217Z" fill="#FFEF22"/>
<path d="M10.5386 26.5169C10.5386 26.1151 10.853 25.7919 11.2636 25.7919C11.6654 25.7919 11.9973 26.1151 11.9973 26.5256C11.9973 26.9274 11.6741 27.2506 11.2723 27.2506C10.8618 27.2506 10.5386 26.9274 10.5386 26.5169Z" fill="#FFEF22"/>
<path d="M8.5293 3.08963C8.52056 3.50018 8.18863 3.82337 7.78682 3.8059C7.38501 3.79717 7.06182 3.4565 7.07929 3.05469C7.08802 2.66162 7.41995 2.33842 7.81303 2.34716C8.22357 2.35589 8.53803 2.68782 8.5293 3.08963Z" fill="#FFEF22"/>
<path d="M15.447 3.08962C15.4382 3.4827 15.0976 3.82336 14.6958 3.81463C14.3027 3.80589 13.9795 3.46523 13.9795 3.07215C13.9882 2.67035 14.3202 2.34715 14.7132 2.35589C15.1238 2.35589 15.4557 2.68782 15.447 3.08962Z" fill="#FFEF22"/>
<path d="M7.07959 26.5169C7.07959 26.1238 7.41152 25.7919 7.81333 25.7919C8.21514 25.7919 8.53833 26.1151 8.53833 26.5256C8.53833 26.9274 8.2064 27.2506 7.81333 27.2506C7.40278 27.2506 7.07959 26.9187 7.07959 26.5169Z" fill="#FFEF22"/>
<path d="M18.1636 3.81462C17.7706 3.81462 17.4299 3.46522 17.4386 3.07215C17.4474 2.67908 17.7793 2.34715 18.1724 2.35588C18.5742 2.35588 18.8974 2.68781 18.8974 3.08088C18.8974 3.47396 18.5655 3.81462 18.1636 3.81462Z" fill="#FFEF22"/>
<path d="M4.35337 27.2506C3.96029 27.2506 3.61963 26.9099 3.61963 26.5169C3.61963 26.1238 3.95156 25.7919 4.34463 25.7919C4.73771 25.7831 5.06964 26.115 5.07837 26.5081C5.08711 26.9099 4.75518 27.2506 4.35337 27.2506Z" fill="#FFEF22"/>
<path d="M4.35337 12.5322C4.74644 12.5322 5.07837 12.8554 5.07837 13.2572C5.07837 13.659 4.75518 13.9909 4.34463 13.9822C3.94282 13.9822 3.61963 13.659 3.61963 13.2572C3.61963 12.8728 3.95156 12.5322 4.35337 12.5322Z" fill="#FFEF22"/>
<path d="M4.36281 22.2891C4.75588 22.2891 5.08781 22.6211 5.08781 23.0229C5.08781 23.4247 4.75588 23.7566 4.35407 23.7479C3.95226 23.7391 3.62907 23.4159 3.62907 23.0229C3.62034 22.6298 3.961 22.2891 4.36281 22.2891Z" fill="#FFEF22"/>
<path d="M4.35337 3.81464C3.96029 3.81464 3.61963 3.47397 3.61963 3.0809C3.61963 2.68783 3.95156 2.3559 4.34463 2.3559C4.74644 2.3559 5.07837 2.68783 5.07837 3.08963C5.07837 3.48271 4.74644 3.81464 4.35337 3.81464Z" fill="#FFEF22"/>
</svg>
