<svg width="31" height="28" viewBox="0 0 31 28" fill="none" xmlns="http://www.w3.org/2000/svg">
<path d="M13.7192 24.7079C15.6933 24.7079 17.6761 24.6992 19.6502 24.7079C20.2442 24.7079 20.7508 24.5245 21.2138 24.1664C22.3755 23.2667 23.5548 22.3757 24.7252 21.4847C25.6162 20.8034 26.5072 20.1221 27.3981 19.4407C28.0707 18.9254 28.7433 18.41 29.4247 17.8946C30.106 17.3705 30.0186 16.3748 29.2325 16.0166C28.8394 15.8419 28.4638 15.8943 28.1144 16.1564C26.8391 17.126 25.5725 18.0956 24.2972 19.0651C23.5111 19.6678 22.7249 20.2706 21.93 20.8645C21.3885 21.2663 20.7858 21.3624 20.1306 21.1965C19.79 21.1091 19.4493 21.048 19.1086 20.9781C18.6457 20.8733 18.174 20.7772 17.7111 20.6724C17.2394 20.5763 16.7764 20.4802 16.3047 20.3754C15.8505 20.2793 15.3963 20.1745 14.9421 20.0784C14.5927 19.9998 14.2433 19.9299 13.8851 19.8513C13.7454 19.8163 13.6056 19.7901 13.4746 19.7377C13.2649 19.6416 13.1776 19.4058 13.2475 19.1962C13.3174 18.9865 13.5445 18.838 13.7716 18.8817C14.1122 18.9516 14.4442 19.0302 14.7848 19.1001C15.1342 19.1787 15.4836 19.2486 15.8243 19.3272C16.1824 19.4058 16.5493 19.4844 16.9074 19.563C17.2568 19.6416 17.6062 19.7115 17.9469 19.7901C18.2089 19.8513 18.4797 19.9037 18.7418 19.9648C19.0999 20.0435 19.4493 20.1133 19.8074 20.1919C20.052 20.2444 20.2879 20.2968 20.5324 20.3492C21.0478 20.454 21.5894 20.1133 21.7553 19.6154C21.9126 19.1175 21.6767 18.5672 21.2487 18.3314C21.1614 18.2877 21.074 18.2528 20.9779 18.2266C20.4102 18.0956 19.8511 17.9733 19.2833 17.851C18.7243 17.7287 18.174 17.6151 17.615 17.5016C17.1607 17.4055 16.7153 17.3007 16.2698 17.2046C15.9116 17.126 15.5535 17.0561 15.1954 16.9775C14.8809 16.9076 14.5577 16.8464 14.2433 16.7678C14.1472 16.7416 14.0598 16.6805 13.9899 16.6193C13.6143 16.2612 13.2038 15.9729 12.7321 15.7633C11.9809 15.4314 11.1948 15.2829 10.3649 15.3877C9.99806 15.4314 9.63119 15.5013 9.28179 15.6235C8.87125 15.772 8.47817 15.9642 8.12877 16.2263C7.29895 16.8552 6.47786 17.4841 5.65677 18.1043C4.23297 19.1874 2.80043 20.2793 1.37663 21.3624C1.18446 21.5109 0.983557 21.6594 0.791387 21.8079C0.520603 22.0263 0.197409 21.9215 0.0663839 21.6856C-0.0646409 21.4673 0.00523899 21.2663 0.214879 21.1004C0.660363 20.751 1.11458 20.4103 1.56007 20.0697C2.58206 19.2922 3.59532 18.5148 4.61731 17.7374C5.62183 16.9775 6.61762 16.2088 7.63088 15.4489C8.1113 15.0907 8.66161 14.8374 9.23812 14.6714C10.0243 14.4443 10.8191 14.3744 11.6228 14.4967C12.671 14.654 13.6143 15.0645 14.4092 15.7633C14.5839 15.9205 14.7936 15.938 14.9945 15.9904C15.4662 16.104 15.9466 16.2001 16.427 16.2961C16.7851 16.3748 17.1345 16.4446 17.4927 16.5233C17.8421 16.6019 18.1915 16.6805 18.5496 16.7504C18.9077 16.829 19.2746 16.8989 19.6327 16.9775C19.8686 17.0299 20.1044 17.0823 20.3403 17.1347C20.5849 17.1871 20.8382 17.2483 21.0828 17.3007C21.7728 17.4404 22.2707 17.8248 22.559 18.4712C22.6288 18.6284 22.6638 18.8118 22.7075 18.9778C22.7337 19.0826 22.7599 19.0913 22.8385 19.0302C24.0789 18.0868 25.3192 17.1347 26.5596 16.1913C26.9439 15.8943 27.3283 15.5799 27.7301 15.3178C28.2629 14.9684 28.8482 14.916 29.4509 15.1257C30.0186 15.3266 30.403 15.7109 30.6388 16.2612C30.6825 16.366 30.6912 16.4796 30.7349 16.5757C30.8135 16.7416 30.7961 16.9076 30.7961 17.0736C30.8048 17.388 30.6825 17.6588 30.5515 17.9383C30.3942 18.279 30.1235 18.5148 29.8265 18.7419C29.2762 19.1612 28.7259 19.5805 28.1756 19.9998C27.2933 20.6724 26.4024 21.345 25.5201 22.0263C24.3147 22.9435 23.118 23.8606 21.9126 24.7691C21.6593 24.9612 21.4059 25.1447 21.1352 25.2932C20.6809 25.5465 20.1831 25.6338 19.659 25.6251C18.7942 25.6251 17.9382 25.6251 17.0734 25.6251C13.9812 25.6251 10.889 25.6251 7.78811 25.6251C7.68329 25.6251 7.60467 25.6513 7.51732 25.7125C6.73118 26.3152 5.94503 26.9179 5.15014 27.5119C5.06279 27.573 4.96671 27.6429 4.86189 27.6516C4.66972 27.6778 4.46008 27.5206 4.3902 27.3284C4.32906 27.145 4.3902 26.9354 4.55617 26.8043C4.74833 26.6558 4.9405 26.5161 5.13267 26.3676C5.80527 25.8522 6.47786 25.3456 7.14172 24.8302C7.26401 24.7341 7.39503 24.6992 7.55226 24.6992C9.63119 24.7079 11.6752 24.7079 13.7192 24.7079Z" fill="#FFEF22"/>
<path d="M20.5323 13.1514C18.0952 13.1514 15.6582 13.1514 13.2211 13.1514C13.1075 13.1514 12.9852 13.134 12.8892 13.0903C12.6795 12.9855 12.6096 12.7584 12.6795 12.5225C12.8106 12.077 12.9328 11.6403 13.0639 11.1948C13.1862 10.7755 13.3084 10.3562 13.4307 9.93696C13.553 9.51768 13.6666 9.0984 13.7889 8.67912C13.8325 8.52189 13.8762 8.36466 13.9286 8.20743C13.9985 7.98906 14.1557 7.8755 14.3916 7.86677C14.6798 7.85803 14.9681 7.86677 15.2651 7.86677C15.6319 7.86677 15.9988 7.86677 16.3657 7.86677C16.4705 7.86677 16.5142 7.82309 16.5404 7.72701C16.6365 7.36887 16.7413 7.01074 16.8461 6.6526C16.9684 6.23332 17.082 5.81404 17.2042 5.39477C17.3003 5.04537 17.4052 4.7047 17.5012 4.36404C17.5536 4.18934 17.5973 4.02337 17.6497 3.84867C17.7109 3.6303 17.8768 3.49054 18.1039 3.49054C19.7374 3.49054 21.3708 3.49054 23.0043 3.49054C23.2314 3.49054 23.3974 3.61283 23.4672 3.8312C23.5895 4.23301 23.6943 4.64356 23.8166 5.04537C23.9127 5.39477 24.0175 5.73543 24.1136 6.07609C24.2097 6.41676 24.3058 6.75742 24.4019 7.09809C24.463 7.3252 24.5329 7.55231 24.6028 7.77942C24.6115 7.81436 24.6814 7.8493 24.7251 7.8493C24.8474 7.85803 24.9784 7.8493 25.1007 7.8493C25.6248 7.8493 26.1401 7.8493 26.6642 7.8493C26.97 7.8493 27.1185 7.95412 27.2058 8.24237C27.3281 8.65291 27.4416 9.07219 27.5552 9.49147C27.6775 9.91075 27.7998 10.33 27.9221 10.7493C28.0444 11.1686 28.1579 11.5879 28.2802 12.0071C28.3326 12.1818 28.3763 12.3565 28.4287 12.5312C28.516 12.8282 28.3501 13.0903 28.0444 13.134C27.992 13.1427 27.9395 13.1427 27.8871 13.1427C25.4064 13.1514 22.9693 13.1514 20.5323 13.1514ZM16.8286 12.2343C17.7895 12.2343 18.7591 12.2343 19.7199 12.2343C19.9208 12.2343 19.9208 12.2343 19.8684 12.0421C19.8597 12.0246 19.8597 12.0071 19.8597 11.9897C19.7636 11.649 19.6675 11.3083 19.5714 10.9764C19.4753 10.627 19.3705 10.2689 19.2657 9.91949C19.1696 9.57882 19.0735 9.24689 18.9774 8.90623C18.9512 8.81014 18.8988 8.7752 18.8027 8.7752C17.4925 8.7752 16.1823 8.7752 14.872 8.7752C14.8371 8.7752 14.8021 8.76647 14.7759 8.7752C14.741 8.79267 14.6973 8.81888 14.6798 8.85382C14.6362 8.98484 14.5925 9.11587 14.5575 9.25563C14.4353 9.67491 14.3217 10.0942 14.1994 10.5135C14.0509 11.0288 13.9024 11.5529 13.7539 12.0683C13.7103 12.2168 13.719 12.2255 13.8762 12.2255C14.872 12.2343 15.8503 12.2343 16.8286 12.2343ZM24.2359 12.2343C25.223 12.2343 26.2013 12.2343 27.1883 12.2343C27.3281 12.2343 27.3456 12.2081 27.3106 12.077C27.3019 12.0596 27.3019 12.0334 27.2932 12.0159C27.1971 11.6752 27.0922 11.3258 26.9962 10.9852C26.9001 10.6445 26.804 10.3038 26.7079 9.96316C26.6118 9.6225 26.507 9.2731 26.4109 8.9237C26.3847 8.81014 26.3323 8.7752 26.2275 8.7752C24.9085 8.7752 23.5895 8.7752 22.2705 8.7752C22.1395 8.7752 22.122 8.79267 22.0871 8.9237C21.991 9.26436 21.8949 9.60503 21.7988 9.94569C21.7028 10.2864 21.5979 10.627 21.5019 10.9677C21.397 11.3258 21.2922 11.6927 21.1874 12.0508C21.1437 12.1906 21.1612 12.2168 21.3097 12.2168C22.288 12.2343 23.2576 12.2343 24.2359 12.2343ZM20.5148 7.86677C21.5019 7.86677 22.4802 7.86677 23.4672 7.86677C23.6245 7.86677 23.6332 7.85803 23.5895 7.71827C23.4672 7.27279 23.3362 6.8273 23.2052 6.38182C23.0305 5.76163 22.847 5.14145 22.6811 4.52127C22.6549 4.41645 22.6025 4.40771 22.5151 4.40771C21.2136 4.40771 19.9034 4.40771 18.6018 4.40771C18.4009 4.40771 18.4009 4.40771 18.3573 4.60862C18.3573 4.61735 18.3573 4.62609 18.3573 4.62609C18.2612 4.96675 18.1651 5.30742 18.069 5.64808C17.9729 5.98874 17.8681 6.33814 17.772 6.67881C17.6759 7.02821 17.5711 7.37761 17.475 7.72701C17.4401 7.84056 17.4576 7.85803 17.5799 7.85803C18.5494 7.86677 19.5365 7.86677 20.5148 7.86677ZM20.5235 10.9415C20.5323 10.9415 20.5497 10.9415 20.5585 10.9327C20.5934 10.8105 20.6196 10.6882 20.6546 10.5746C20.8205 10.0068 20.9865 9.4478 21.1437 8.88002C21.1612 8.81888 21.1437 8.7752 21.0738 8.7752C20.707 8.7752 20.3488 8.7752 19.982 8.7752C19.9208 8.7752 19.8946 8.81014 19.9121 8.87129C19.9296 8.93243 19.9558 8.99358 19.9732 9.06346C20.1392 9.63997 20.2964 10.2165 20.4624 10.793C20.4799 10.8454 20.5061 10.8978 20.5235 10.9415Z" fill="#FFEF22"/>
<path d="M20.0784 1.12343C20.0784 0.931257 20.0871 0.739087 20.0784 0.546918C20.0696 0.302338 20.1919 0.127639 20.4016 0.0315537C20.55 -0.0383261 20.7073 0.0140838 20.8296 0.127639C20.9256 0.214988 20.9955 0.319808 20.9955 0.450833C20.9955 0.739087 20.9955 1.02734 21.0043 1.3156C21.0043 1.45536 21.0043 1.58638 21.0043 1.72614C21.0043 2.03186 20.7772 2.20656 20.5413 2.19783C20.2793 2.18909 20.0871 1.98819 20.0871 1.70867C20.0696 1.5165 20.0784 1.3156 20.0784 1.12343Z" fill="#FFEF22"/>
<path d="M24.9785 1.15834C24.9523 1.22822 24.9261 1.3243 24.8824 1.41165C24.6902 1.75232 24.4981 2.09298 24.2972 2.42491C24.0963 2.76557 23.6944 2.79178 23.4935 2.48605C23.3887 2.33756 23.3887 2.17159 23.4761 2.01436C23.6857 1.6475 23.8954 1.28063 24.105 0.922492C24.2011 0.756527 24.3496 0.669177 24.5505 0.686647C24.7339 0.704117 24.8649 0.817672 24.9348 0.983637C24.961 1.02731 24.961 1.07972 24.9785 1.15834Z" fill="#FFEF22"/>
<path d="M14.4702 3.16748C14.5226 3.19369 14.6362 3.23736 14.7323 3.28977C15.0642 3.48194 15.3961 3.67411 15.728 3.86628C15.894 3.96236 15.9726 4.11959 15.9464 4.30303C15.9289 4.50393 15.8067 4.63496 15.6232 4.6961C15.4922 4.73978 15.3699 4.70484 15.2651 4.64369C14.8982 4.43405 14.5226 4.22441 14.1645 4.00604C13.981 3.90122 13.9112 3.69158 13.9723 3.4732C14.016 3.30724 14.2082 3.16748 14.4702 3.16748Z" fill="#FFEF22"/>
<path d="M27.1277 3.63036C27.1277 3.77886 27.0753 3.91862 26.953 3.9885C26.5512 4.23308 26.1494 4.46019 25.7388 4.68729C25.5379 4.80085 25.2671 4.66982 25.171 4.48639C25.0575 4.25928 25.1186 4.0147 25.3283 3.88368C25.5816 3.72645 25.8436 3.57795 26.1057 3.42946C26.2367 3.35084 26.359 3.27223 26.4988 3.21108C26.787 3.08006 27.1189 3.30717 27.1277 3.63036Z" fill="#FFEF22"/>
<path d="M16.6197 0.677979C16.7507 0.686713 16.8818 0.774063 16.9691 0.922558C17.1787 1.28069 17.3884 1.64756 17.598 2.0057C17.7116 2.21534 17.6417 2.48612 17.4408 2.61714C17.2399 2.74817 16.9691 2.70449 16.8381 2.50359C16.6809 2.25901 16.5411 2.0057 16.3926 1.76112C16.314 1.63009 16.2354 1.49033 16.1568 1.35057C15.9995 1.05358 16.2179 0.677979 16.6197 0.677979Z" fill="#FFEF22"/>
</svg>
