<svg width="30" height="32" viewBox="0 0 30 32" fill="none" xmlns="http://www.w3.org/2000/svg">
<path d="M14.6704 31.4219C9.98845 31.4219 5.31524 31.4219 0.633286 31.4219C0.345032 31.4219 0.135392 31.3171 0.0305724 31.0638C-0.0131025 30.9677 -0.00436749 30.8279 0.0218375 30.7318C0.109187 30.4261 0.222742 30.1291 0.327562 29.8321C0.449852 29.474 0.563406 29.1159 0.685696 28.7577C0.807986 28.3996 0.930276 28.0415 1.04383 27.6746C1.16612 27.3077 1.28841 26.9408 1.4107 26.574C1.48058 26.3731 1.54172 26.1722 1.6116 25.98C1.69895 25.7616 1.87365 25.6568 2.1095 25.6568C2.96553 25.6568 3.81282 25.6568 4.66885 25.6568C4.86102 25.6568 4.85228 25.6568 4.91343 25.4734C5.05319 25.0541 5.20168 24.6261 5.34144 24.2068C5.4812 23.7875 5.62096 23.3595 5.76072 22.9402C5.88301 22.5821 6.0053 22.224 6.12759 21.8571C6.18 21.6911 6.24115 21.5339 6.28482 21.3679C6.36343 21.0884 6.5556 20.9399 6.84386 20.9399C7.69989 20.9399 8.54718 20.9399 9.40321 20.9399C9.57791 20.9399 9.57791 20.9399 9.63032 20.7652C9.77008 20.3372 9.91857 19.9179 10.0583 19.4986C10.1806 19.1405 10.2942 18.7736 10.4165 18.4155C10.5388 18.0574 10.6523 17.6992 10.7746 17.3411C10.8532 17.114 10.9318 16.8956 11.0017 16.6685C11.0891 16.3715 11.2725 16.223 11.5782 16.223C13.6397 16.223 15.7011 16.223 17.7626 16.223C18.0683 16.223 18.2517 16.3715 18.3391 16.6685C18.4527 17.0354 18.5837 17.3935 18.706 17.7604C18.8283 18.1185 18.9418 18.4854 19.0641 18.8435C19.1864 19.2017 19.2999 19.5598 19.4222 19.9179C19.5183 20.2149 19.6231 20.5032 19.7105 20.8002C19.7454 20.905 19.7891 20.9486 19.9027 20.9486C20.7587 20.9486 21.606 20.9486 22.462 20.9399C22.7852 20.9399 22.9774 21.1233 23.0647 21.4029C23.1783 21.7697 23.3006 22.1191 23.4229 22.486C23.5451 22.8441 23.6587 23.211 23.781 23.5691C23.9033 23.9273 24.0168 24.2854 24.1391 24.6435C24.2352 24.9405 24.34 25.2288 24.4274 25.5258C24.4623 25.6306 24.506 25.6743 24.6196 25.6655C25.4668 25.6655 26.3141 25.6655 27.1614 25.6568C27.4934 25.6568 27.6855 25.8402 27.7729 26.1198C27.8864 26.4866 28.0175 26.836 28.131 27.2029C28.2533 27.561 28.3669 27.9279 28.4891 28.286C28.6114 28.6442 28.7337 29.0023 28.856 29.3692C28.9783 29.7273 29.0919 30.0854 29.2142 30.4436C29.2491 30.5484 29.2928 30.6532 29.3277 30.758C29.3976 30.9764 29.2666 31.2559 29.0569 31.3695C28.9521 31.4306 28.8385 31.4306 28.725 31.4306C24.043 31.4219 19.3524 31.4219 14.6704 31.4219ZM14.6617 20.9486C15.9282 20.9486 17.2035 20.9486 18.4701 20.9486C18.5051 20.9486 18.5487 20.9574 18.5749 20.9399C18.6011 20.9312 18.6274 20.8875 18.6274 20.87C18.6186 20.8089 18.5837 20.7477 18.5662 20.6779C18.4439 20.3197 18.3216 19.9616 18.2081 19.5947C18.0858 19.2366 17.9722 18.8785 17.8499 18.5203C17.7276 18.1622 17.6054 17.8041 17.4918 17.4372C17.4394 17.2712 17.4394 17.2712 17.2734 17.2712C15.5614 17.2712 13.8493 17.2712 12.1285 17.2712C11.9364 17.2712 11.8927 17.2188 11.8403 17.4721C11.8315 17.5071 11.8141 17.542 11.7966 17.5769C11.6306 18.0661 11.4734 18.5553 11.3162 19.0444C11.1153 19.6471 10.9144 20.2498 10.7047 20.8438C10.6873 20.8962 10.7047 20.9224 10.7571 20.9312C10.7921 20.9312 10.827 20.9312 10.862 20.9312C12.1285 20.9486 13.3951 20.9486 14.6617 20.9486ZM9.95351 25.6655C11.2201 25.6655 12.4867 25.6655 13.7532 25.6655C13.7882 25.6655 13.8231 25.6655 13.8581 25.6655C13.9105 25.6655 13.9367 25.6393 13.9105 25.5869C13.8843 25.5258 13.8668 25.4646 13.8493 25.4122C13.727 25.0454 13.6047 24.6785 13.4824 24.3116C13.3689 23.9622 13.2466 23.6041 13.133 23.2547C13.0108 22.8965 12.8885 22.5384 12.7749 22.1715C12.7225 22.0143 12.7225 22.0056 12.5565 22.0056C10.8445 22.0056 9.13243 22.0056 7.41163 22.0056C7.21073 22.0056 7.19326 21.9619 7.11464 22.2152C6.93994 22.7743 6.74777 23.3246 6.5556 23.8836C6.36343 24.4514 6.18 25.0192 5.98783 25.5869C5.97036 25.6481 5.98783 25.6743 6.04898 25.6743C6.08392 25.6743 6.11886 25.6743 6.1538 25.6743C7.42037 25.6655 8.68694 25.6655 9.95351 25.6655ZM19.3873 25.6655C20.6539 25.6655 21.9204 25.6655 23.187 25.6655C23.222 25.6655 23.2569 25.6655 23.2918 25.6655C23.353 25.6655 23.3704 25.6306 23.3442 25.5782C23.3093 25.4996 23.2831 25.4122 23.2569 25.3336C23.0735 24.7746 22.89 24.2243 22.7066 23.6652C22.5319 23.1499 22.3659 22.6345 22.1912 22.1191C22.165 22.0405 22.1213 22.0056 22.034 22.0056C20.2695 22.0056 18.5051 22.0056 16.7319 22.0056C16.6445 22.0056 16.6008 22.0405 16.5746 22.1191C16.5222 22.2851 16.4698 22.4423 16.4174 22.6083C16.2514 23.0975 16.0855 23.5866 15.9195 24.0758C15.7535 24.5737 15.5876 25.0803 15.4129 25.5782C15.3954 25.6393 15.4041 25.6655 15.4653 25.6655C15.5002 25.6655 15.5352 25.6655 15.5701 25.6655C16.8454 25.6655 18.112 25.6655 19.3873 25.6655ZM5.23662 30.3737C6.5032 30.3737 7.7785 30.3737 9.04507 30.3737C9.08001 30.3737 9.11495 30.3737 9.14989 30.3737C9.2023 30.365 9.21977 30.3475 9.2023 30.2863C9.01013 29.7186 8.81797 29.1421 8.63453 28.5743C8.44236 27.989 8.24146 27.4038 8.04929 26.8186C8.02308 26.7399 7.97941 26.705 7.90079 26.705C6.12759 26.705 4.36312 26.705 2.58992 26.705C2.50257 26.705 2.4589 26.7487 2.43269 26.8273C2.39775 26.9408 2.36281 27.0544 2.31914 27.168C2.20558 27.5174 2.08329 27.8755 1.96974 28.2249C1.84745 28.5918 1.72516 28.9499 1.60287 29.3168C1.48931 29.64 1.38449 29.9719 1.27094 30.2951C1.26221 30.3125 1.29715 30.3562 1.31462 30.365C1.34955 30.3737 1.39323 30.3737 1.42817 30.3737C2.70348 30.3737 3.97005 30.3737 5.23662 30.3737ZM14.6617 30.3737C15.9282 30.3737 17.2035 30.3737 18.4701 30.3737C18.5051 30.3737 18.54 30.3737 18.5749 30.3737C18.6274 30.365 18.6448 30.3475 18.6274 30.2863C18.4352 29.7186 18.243 29.1421 18.0596 28.5743C17.8674 27.989 17.6665 27.4038 17.4743 26.8186C17.4481 26.7399 17.4045 26.705 17.3258 26.705C15.5526 26.705 13.7882 26.705 12.015 26.705C11.9276 26.705 11.8839 26.7487 11.8577 26.8273C11.8228 26.9408 11.7879 27.0544 11.7442 27.168C11.6306 27.5174 11.5083 27.8755 11.3948 28.2249C11.2725 28.5918 11.1502 28.9499 11.0279 29.3168C10.9144 29.64 10.8095 29.9719 10.696 30.2951C10.6873 30.3125 10.7135 30.3562 10.7397 30.365C10.7746 30.3737 10.8183 30.3737 10.8532 30.3737C12.1285 30.3737 13.3951 30.3737 14.6617 30.3737ZM24.0955 30.3737C25.362 30.3737 26.6373 30.3737 27.9039 30.3737C27.9388 30.3737 27.9738 30.3737 28.0087 30.3737C28.0611 30.365 28.0786 30.3388 28.0611 30.2863C28.0175 30.1728 27.9825 30.0505 27.9388 29.9282C27.7729 29.4391 27.6069 28.9499 27.4497 28.4607C27.2663 27.9104 27.0828 27.3601 26.8994 26.8011C26.8732 26.7312 26.8382 26.6963 26.7596 26.705C26.6024 26.705 26.4539 26.705 26.2967 26.705C24.6894 26.705 23.0822 26.705 21.4662 26.705C21.3527 26.705 21.3003 26.7399 21.2741 26.8448C21.2478 26.9496 21.2042 27.0457 21.1692 27.1505C21.0469 27.5086 20.9334 27.8668 20.8111 28.2249C20.6888 28.5918 20.5665 28.9499 20.4442 29.3168C20.3307 29.64 20.2259 29.9719 20.1123 30.2951C20.1036 30.3125 20.1385 30.3562 20.156 30.365C20.1909 30.3737 20.2346 30.3737 20.2695 30.3737C21.5623 30.3737 22.8289 30.3737 24.0955 30.3737ZM9.95351 26.7137C9.71767 26.7137 9.48182 26.7137 9.23724 26.7137C9.11495 26.7137 9.10622 26.7225 9.14989 26.836C9.16737 26.8884 9.18483 26.9321 9.19357 26.9845C9.31586 27.3427 9.43815 27.7008 9.5517 28.0677C9.66526 28.4083 9.77881 28.7577 9.89237 29.0984C9.9011 29.1246 9.92731 29.1333 9.94478 29.1508C9.96225 29.1333 9.98845 29.1159 9.99719 29.0897C10.0845 28.8189 10.1719 28.5568 10.268 28.286C10.4252 27.7969 10.5912 27.3165 10.7484 26.8273C10.7833 26.7137 10.7833 26.705 10.6698 26.705C10.4339 26.7137 10.1981 26.7137 9.95351 26.7137ZM19.3873 26.7137C19.1427 26.7137 18.8981 26.7137 18.6536 26.7137C18.5749 26.7137 18.54 26.7312 18.5749 26.8273C18.6361 26.9583 18.671 27.1068 18.7147 27.2378C18.9156 27.8493 19.1165 28.4695 19.3262 29.0809C19.3349 29.1071 19.3611 29.1246 19.3786 29.1508C19.396 29.1333 19.4222 29.1071 19.431 29.0809C19.5183 28.8189 19.6057 28.5481 19.693 28.286C19.8502 27.7969 20.0162 27.3165 20.1734 26.8273C20.2084 26.7137 20.2084 26.705 20.0861 26.705C19.859 26.7137 19.6231 26.7137 19.3873 26.7137ZM14.6704 21.9968C14.4258 21.9968 14.1725 21.9968 13.9279 21.9968C13.8493 21.9968 13.8231 22.0143 13.8581 22.1017C13.9541 22.3725 14.0502 22.652 14.1376 22.9315C14.2948 23.4119 14.452 23.8923 14.6093 24.3728C14.618 24.399 14.6442 24.4164 14.6704 24.4339C14.6879 24.4164 14.7141 24.399 14.7228 24.3728C14.8364 24.0408 14.9499 23.7089 15.0547 23.3682C15.1945 22.949 15.3343 22.5297 15.474 22.1104C15.509 22.0056 15.509 21.9968 15.3867 21.9968C15.1508 21.9968 14.915 21.9968 14.6704 21.9968Z" fill="#FFEF22"/>
<path d="M29.336 4.71907C29.336 6.0992 29.336 7.48806 29.336 8.86819C29.336 9.13024 29.2137 9.29621 28.9866 9.39229C28.7683 9.47964 28.5848 9.40976 28.4189 9.25253C28.1393 8.98175 27.8686 8.70223 27.5978 8.43144C26.899 7.73264 26.2089 7.04258 25.5101 6.34378C25.4402 6.2739 25.3966 6.2739 25.3354 6.34378C23.5447 8.23054 21.7453 10.1173 19.9459 12.0041C19.1074 12.8863 18.2688 13.7685 17.4215 14.6508C17.0721 15.0176 16.6616 15.2185 16.1549 15.1836C15.7357 15.1574 15.3863 14.9827 15.0893 14.6857C13.7616 13.358 12.4338 12.0303 11.1149 10.7113C11.01 10.6065 11.0013 10.6065 10.8965 10.7113C8.72147 12.8863 6.54646 15.0613 4.37145 17.2363C3.82988 17.7779 3.27958 18.3194 2.74674 18.8697C2.38861 19.2366 1.95186 19.42 1.43649 19.3764C0.790105 19.3152 0.248536 18.861 0.0651017 18.2234C-0.00477819 17.9962 -0.0135132 17.7691 0.0214268 17.5508C0.0651017 17.2887 0.169921 17.0267 0.362091 16.8258C0.571731 16.6074 0.78137 16.389 0.999745 16.1706C3.92596 13.2269 6.86092 10.292 9.79587 7.35704C9.97931 7.1736 10.1715 7.00764 10.4248 6.92029C11.0013 6.71065 11.5341 6.78053 11.9971 7.1736C12.3552 7.47933 12.6784 7.82873 13.0103 8.16066C14.0498 9.19139 15.0805 10.2308 16.1113 11.2616C16.2073 11.3577 16.2161 11.3577 16.3034 11.2703C18.0766 9.40103 19.8586 7.54047 21.6318 5.67119C22.1209 5.15582 22.6101 4.64046 23.108 4.1251C23.1866 4.04648 23.1779 4.00281 23.0993 3.93293C22.086 2.9284 21.0815 1.92388 20.0769 0.910622C19.7887 0.622368 19.8586 0.203088 20.2691 0.0109187C20.3128 -0.00655124 20.3827 0.00218375 20.4351 0.00218375C21.4483 0.00218375 22.4529 0.00218375 23.4661 0.00218375C25.2393 0.00218375 27.0038 0.00218375 28.777 0.00218375C29.0652 0.00218375 29.2312 0.194353 29.3186 0.377788C29.3448 0.430198 29.3273 0.508813 29.3273 0.578693C29.336 1.95008 29.336 3.33021 29.336 4.71907ZM21.7191 1.05912C21.7541 1.09406 21.7715 1.12026 21.789 1.13773C22.6101 1.95882 23.4312 2.77991 24.2523 3.59226C24.5231 3.86305 24.5231 4.16004 24.2523 4.43955C23.9029 4.80642 23.5535 5.18203 23.1953 5.5489C21.5706 7.25222 19.9459 8.96428 18.3212 10.6676C17.7622 11.2528 17.2031 11.8468 16.6354 12.4321C16.5131 12.5631 16.3733 12.6417 16.1811 12.633C16.0152 12.6242 15.9016 12.5369 15.7968 12.4321C15.0281 11.6634 14.2594 10.8947 13.4908 10.126C12.8094 9.4447 12.1194 8.75464 11.438 8.07331C11.3158 7.95102 11.176 7.8462 10.9926 7.85493C10.8091 7.85493 10.6781 7.95102 10.5558 8.07331C7.63833 10.9995 4.71211 13.917 1.79463 16.8432C1.58499 17.0529 1.36661 17.2625 1.16571 17.4896C1.00848 17.6731 1.00848 17.9264 1.15697 18.1185C1.30547 18.3107 1.55005 18.3806 1.75969 18.2845C1.85577 18.2408 1.94312 18.1797 2.013 18.1098C4.51121 15.6116 7.00941 13.1134 9.50762 10.6152C9.86575 10.2571 10.2239 9.89892 10.582 9.54078C10.6606 9.46217 10.7655 9.39229 10.8703 9.36609C11.0799 9.30494 11.2633 9.39229 11.4118 9.54952C12.2067 10.3531 13.0103 11.148 13.814 11.9516C14.4778 12.6155 15.1504 13.2881 15.8143 13.952C16.0239 14.1529 16.251 14.2053 16.4781 14.083C16.548 14.048 16.6092 13.9869 16.6703 13.9257C17.8757 12.6592 19.0812 11.3926 20.2866 10.126C21.8501 8.48385 23.405 6.85041 24.9685 5.20823C25.2131 4.94618 25.5538 4.91124 25.8333 5.1995C26.6107 5.99438 27.4056 6.78053 28.1917 7.56668C28.2092 7.58415 28.2267 7.59288 28.2616 7.61909C28.2704 7.56668 28.2791 7.53174 28.2791 7.4968C28.2791 5.4004 28.2791 3.30401 28.2791 1.20761C28.2791 1.05912 28.2791 1.05912 28.1306 1.05912C26.0342 1.05912 23.9378 1.05912 21.8414 1.05912C21.8152 1.04165 21.7803 1.05038 21.7191 1.05912Z" fill="#FFEF22"/>
<path d="M24.0956 14.2927C24.0868 14.1442 24.0868 13.9695 24.2091 13.8122C24.3401 13.6463 24.576 13.5677 24.7594 13.6288C24.9865 13.7074 25.135 13.8909 25.1438 14.118C25.1525 14.2577 25.1525 14.4062 25.1438 14.546C25.1438 14.6333 25.1787 14.6595 25.2573 14.6595C25.3971 14.6595 25.5368 14.6595 25.6766 14.6595C25.9124 14.6683 26.1046 14.8168 26.1745 15.0526C26.2356 15.2448 26.1483 15.4981 25.9561 15.6116C25.8775 15.6641 25.7727 15.6903 25.6766 15.699C25.5368 15.7165 25.3883 15.7077 25.2486 15.699C25.17 15.699 25.1438 15.7252 25.1438 15.8038C25.1438 15.9436 25.1438 16.0746 25.1438 16.2144C25.135 16.5201 24.9079 16.7472 24.6109 16.7472C24.3227 16.7472 24.0956 16.5113 24.0956 16.2144C24.0956 16.0921 24.0956 15.961 24.0956 15.8388C24.0956 15.7077 24.0956 15.7077 23.9558 15.7077C23.8335 15.7077 23.7025 15.7077 23.5802 15.7077C23.2745 15.699 23.0474 15.4719 23.0474 15.1749C23.0474 14.8866 23.2832 14.6595 23.5802 14.6595C23.72 14.6595 23.851 14.6595 23.9907 14.6595C24.0694 14.6595 24.0956 14.6333 24.0956 14.5547C24.0956 14.4848 24.0956 14.4062 24.0956 14.2927Z" fill="#FFEF22"/>
<path d="M20.9505 19.1842C20.9505 19.1143 20.9418 19.0444 20.9505 18.9746C20.9593 18.8785 20.9156 18.8523 20.8283 18.8523C20.6972 18.861 20.5662 18.8523 20.4264 18.8523C20.1295 18.8435 19.9023 18.6164 19.9023 18.3282C19.9023 18.0399 20.1295 17.8128 20.4352 17.8041C20.5749 17.8041 20.706 17.8041 20.8457 17.8041C20.9243 17.8041 20.9593 17.7779 20.9593 17.6905C20.9505 17.5595 20.9593 17.4285 20.9593 17.2887C20.968 16.983 21.1864 16.7471 21.4834 16.7471C21.7716 16.7471 21.9987 16.983 22.0075 17.2887C22.0075 17.4197 22.0075 17.5508 22.0075 17.6905C22.0075 17.7779 22.0337 17.8041 22.121 17.8041C22.2608 17.8041 22.4006 17.8041 22.5403 17.8041C22.7762 17.8128 22.9683 17.9526 23.0469 18.1884C23.1081 18.3806 23.0295 18.6164 22.846 18.7387C22.7587 18.7911 22.6539 18.8261 22.5578 18.8435C22.418 18.861 22.2695 18.8523 22.1298 18.8523C22.0511 18.8523 22.0162 18.8785 22.0162 18.9658C22.0249 19.0968 22.0162 19.2279 22.0162 19.3676C22.0075 19.6734 21.7804 19.9092 21.4921 19.9092C21.2039 19.9092 20.9767 19.6734 20.968 19.3676C20.9505 19.2977 20.9505 19.2366 20.9505 19.1842Z" fill="#FFEF22"/>
<path d="M2.62437 22.1541C2.61563 22.0056 2.61563 21.8309 2.73792 21.6737C2.86895 21.5077 3.10479 21.4291 3.28823 21.4903C3.51534 21.5689 3.66383 21.7523 3.67257 21.9794C3.6813 22.1279 3.67257 22.2764 3.67257 22.4162C3.67257 22.4948 3.69877 22.521 3.77739 22.521C3.91715 22.521 4.06564 22.521 4.2054 22.521C4.44125 22.5297 4.63342 22.6782 4.7033 22.9141C4.76444 23.1062 4.67709 23.3595 4.48492 23.4731C4.40631 23.5255 4.30149 23.5517 4.2054 23.5604C4.06564 23.5779 3.91715 23.5692 3.77739 23.5604C3.69877 23.5604 3.67257 23.5866 3.67257 23.6653C3.67257 23.805 3.67257 23.936 3.67257 24.0758C3.66383 24.3815 3.43672 24.6086 3.13973 24.6086C2.85148 24.6086 2.62437 24.3728 2.62437 24.0758C2.62437 23.9448 2.61563 23.8138 2.62437 23.6915C2.6331 23.5954 2.58943 23.5604 2.49335 23.5692C2.36232 23.5779 2.2313 23.5692 2.10901 23.5692C1.80328 23.5604 1.57617 23.3333 1.57617 23.0363C1.57617 22.7481 1.81202 22.521 2.10901 22.521C2.24877 22.521 2.37979 22.521 2.51955 22.521C2.59816 22.521 2.62437 22.4948 2.62437 22.4162C2.61563 22.3375 2.62437 22.2589 2.62437 22.1541Z" fill="#FFEF22"/>
<path d="M25.6678 23.8924C25.6678 23.8225 25.6678 23.7439 25.6678 23.674C25.6766 23.5954 25.6416 23.5692 25.563 23.5692C25.4145 23.5692 25.266 23.5692 25.1263 23.5692C24.838 23.5604 24.6196 23.3246 24.6196 23.0363C24.6196 22.7743 24.8467 22.5384 25.1088 22.5297C25.2573 22.521 25.4058 22.521 25.563 22.5297C25.6416 22.5297 25.6766 22.4948 25.6678 22.4162C25.6591 22.2764 25.6678 22.1454 25.6678 22.0056C25.6766 21.7086 25.9037 21.4815 26.1919 21.4815C26.4802 21.4815 26.7073 21.7086 26.716 22.0143C26.716 22.1366 26.716 22.2677 26.716 22.3899C26.716 22.5297 26.716 22.5297 26.8558 22.5297C26.9868 22.5297 27.1178 22.5297 27.2401 22.5297C27.476 22.5384 27.6681 22.6869 27.738 22.9228C27.7992 23.1149 27.7205 23.3595 27.5371 23.4731C27.4498 23.5255 27.3449 23.5604 27.2489 23.5692C27.1091 23.5866 26.9606 23.5779 26.8208 23.5692C26.7422 23.5692 26.7073 23.6041 26.716 23.6827C26.7248 23.8137 26.716 23.9448 26.716 24.0845C26.7073 24.3903 26.4802 24.6261 26.1919 24.6174C25.9037 24.6174 25.6766 24.3815 25.6678 24.0758C25.6678 24.0147 25.6678 23.9535 25.6678 23.8924Z" fill="#FFEF22"/>
</svg>
