<svg width="33" height="28" viewBox="0 0 33 28" fill="none" xmlns="http://www.w3.org/2000/svg">
<path d="M10.6741 18.8588C14.0371 18.8588 17.4001 18.8588 20.7631 18.8588C20.798 18.8588 20.8417 18.8676 20.8766 18.8588C20.9116 18.8501 20.9378 18.8152 20.9552 18.7802C20.964 18.754 20.9552 18.7103 20.9552 18.6754C20.9552 15.0941 20.9552 11.5214 20.9552 7.9401C20.9552 7.27624 21.1823 6.70847 21.689 6.27172C22.0471 5.95726 22.4751 5.77383 22.9555 5.77383C24.4317 5.76509 25.8992 5.74762 27.3754 5.78256C28.1703 5.80003 28.7818 6.21057 29.1399 6.91811C29.4456 7.52082 29.7164 8.14101 29.9959 8.75245C30.2667 9.34643 30.5462 9.93168 30.817 10.5257C31.0878 11.1196 31.3586 11.7136 31.6294 12.2989C31.7167 12.491 31.8128 12.6832 31.8914 12.8841C31.9264 12.9715 31.9438 13.0675 31.9438 13.1549C31.9438 15.5308 31.9438 17.9067 31.9438 20.2739C31.9438 20.37 31.9526 20.4224 32.0661 20.4486C32.267 20.4835 32.4767 20.7106 32.4679 20.9727C32.4592 21.6715 32.4592 22.3616 32.4679 23.0604C32.4679 23.3224 32.2059 23.567 31.9788 23.5757C31.9176 23.5757 31.8565 23.5757 31.8041 23.5757C29.8038 23.5757 27.8035 23.5757 25.8031 23.5757C25.611 23.5757 25.6197 23.5757 25.5935 23.7592C25.4887 24.3706 25.2616 24.9296 24.9122 25.4363C24.458 26.0914 23.864 26.5806 23.139 26.8863C22.4052 27.2007 21.6366 27.3143 20.8417 27.1833C19.6624 26.9911 18.7278 26.4146 18.0377 25.445C17.4525 24.6239 17.2167 23.698 17.2953 22.6935C17.3127 22.4926 17.3564 22.3004 17.3914 22.1082C17.4088 22.0296 17.3914 21.9947 17.304 21.9947C17.2778 21.9947 17.2516 21.9947 17.2167 21.9947C14.9805 21.9947 12.7443 21.9947 10.4994 21.9947C10.4732 21.9947 10.447 21.9947 10.4296 21.9947C10.3422 21.986 10.316 22.0209 10.3422 22.1082C10.4383 22.4838 10.4732 22.8682 10.4558 23.2525C10.3859 24.4492 9.89674 25.4537 8.99703 26.2399C8.56902 26.6068 8.08859 26.8775 7.54703 27.0522C6.83076 27.2794 6.11449 27.3143 5.38948 27.1571C4.37623 26.9387 3.55514 26.4059 2.92622 25.576C2.60302 25.148 2.37592 24.6763 2.23616 24.1697C2.08766 23.6194 2.03525 23.0516 2.13134 22.4751C2.14881 22.3616 2.17501 22.2393 2.20122 22.1257C2.22742 22.0122 2.21869 21.9947 2.10513 21.9947C1.58977 21.9947 1.0744 21.9947 0.559039 21.9947C0.410544 21.9947 0.279519 21.951 0.1747 21.8549C0.0698799 21.7588 0 21.6366 0 21.4793C0 20.7718 0.00873498 20.0643 0 19.3655C0 19.0947 0.270784 18.8501 0.497894 18.8501C0.559039 18.8501 0.620184 18.8501 0.672594 18.8501C4.00936 18.8588 7.34612 18.8588 10.6741 18.8588ZM22.0034 13.2597C22.0034 15.0678 22.0034 16.8847 22.0034 18.6929C22.0034 18.8588 22.0034 18.8588 22.1607 18.8588C23.6631 18.8588 25.1742 18.8588 26.6766 18.8588C27.0173 18.8588 27.2357 19.0772 27.2444 19.4179C27.2444 19.7149 27.2444 20.0118 27.2444 20.3088C27.2444 20.3962 27.2619 20.4311 27.358 20.4311C28.511 20.4311 29.6553 20.4311 30.8083 20.4311C30.8956 20.4311 30.9218 20.3962 30.9218 20.3176C30.9218 17.9853 30.9218 15.6444 30.9218 13.3121C30.9218 13.2684 30.9218 13.216 30.9044 13.1811C30.7995 12.9365 30.6773 12.6919 30.5724 12.4474C30.3628 12.0019 30.1532 11.5476 29.9523 11.1022C29.6815 10.5082 29.4107 9.91421 29.1312 9.32896C28.8517 8.72625 28.5721 8.13227 28.3013 7.52082C28.1092 7.09281 27.8034 6.82202 27.323 6.82202C25.8905 6.81329 24.458 6.82202 23.0254 6.82202C22.8332 6.82202 22.6585 6.88317 22.5013 6.98799C22.1781 7.20636 22.0122 7.50335 22.0122 7.89643C22.0034 9.67836 22.0034 11.469 22.0034 13.2597ZM6.28919 19.907C4.53346 19.9158 3.13586 21.3308 3.15333 23.0953C3.1708 24.8161 4.5684 26.1962 6.29792 26.1875C8.03618 26.1875 9.44252 24.7637 9.43378 23.0254C9.42505 21.3046 8.00124 19.8983 6.28919 19.907ZM18.3347 23.0429C18.326 24.7637 19.7323 26.1787 21.4531 26.1875C23.1914 26.1962 24.6064 24.7986 24.6239 23.0516C24.6327 21.3396 23.2263 19.907 21.523 19.8983C19.7585 19.8896 18.3435 21.2872 18.3347 23.0429ZM9.10185 19.942C9.11059 19.9594 9.11932 19.9769 9.12806 19.9856C9.41631 20.239 9.65216 20.5359 9.85306 20.8591C9.89674 20.9378 9.95788 20.9552 10.0452 20.9552C12.6046 20.9552 15.1727 20.9552 17.732 20.9552C17.8281 20.9552 17.8892 20.9203 17.9329 20.8417C18.1251 20.5272 18.3522 20.239 18.6317 19.9944C18.6492 19.9769 18.6579 19.9594 18.6754 19.9332C18.5618 19.8896 9.17173 19.8983 9.10185 19.942ZM24.292 19.9158C24.3007 19.942 24.292 19.9507 24.3007 19.9594C24.3182 19.9769 24.3357 20.0031 24.3619 20.0206C25.0432 20.6757 25.4625 21.4706 25.611 22.4052C25.6284 22.4926 25.6634 22.5275 25.7507 22.5275C27.6113 22.5275 29.4631 22.5275 31.3237 22.5275C31.411 22.5275 31.4372 22.5013 31.4372 22.414C31.4285 22.1607 31.4372 21.9073 31.4372 21.6628C31.4372 21.4793 31.4372 21.4793 31.2538 21.4793C29.7776 21.4793 28.3013 21.4706 26.8251 21.4881C26.4495 21.4881 26.17 21.2522 26.1962 20.8504C26.2137 20.5796 26.1962 20.3088 26.1962 20.0468C26.1962 19.9158 26.1962 19.907 26.0652 19.907C25.5062 19.907 24.9558 19.907 24.3968 19.907C24.3619 19.907 24.3269 19.907 24.292 19.9158ZM3.49399 19.9245C3.44158 19.9158 3.41538 19.907 3.38044 19.907C2.63796 19.907 1.89549 19.907 1.15302 19.907C1.06567 19.907 1.0482 19.942 1.0482 20.0206C1.0482 20.2914 1.05693 20.5622 1.0482 20.8242C1.0482 20.929 1.08314 20.9552 1.17922 20.9552C1.62471 20.9552 2.07019 20.9465 2.51568 20.9552C2.62923 20.9552 2.69037 20.9203 2.74278 20.8329C2.92622 20.5272 3.15333 20.2564 3.41538 20.0118C3.44158 19.9856 3.45905 19.9594 3.49399 19.9245Z" fill="#FFEF22"/>
<path d="M9.95794 0C13.0763 0 16.2034 0 19.3218 0C19.6974 0 19.9071 0.20964 19.9071 0.585244C19.9071 6.13196 19.9071 11.6787 19.9071 17.2167C19.9071 17.5835 19.6887 17.8019 19.3218 17.8019C13.0763 17.8019 6.83081 17.8019 0.585298 17.8019C0.305778 17.8019 0.131079 17.6709 0.017524 17.435C0.00878906 17.4176 0.00878906 17.3913 0.00878906 17.3651C0.00878906 17.304 0.00878906 17.2429 0.00878906 17.173C0.00878906 11.6525 0.00878906 6.13196 0.00878906 0.611449C0.00878906 0.323194 0.113609 0.131025 0.366923 0.00873498C0.375658 0.00873498 0.410598 0 0.436803 0C0.506683 0 0.567828 0 0.637708 0C3.73863 0 6.84828 0 9.95794 0ZM9.9492 16.7624C10.2112 16.7624 10.482 16.7624 10.7441 16.7624C13.3995 16.7624 16.055 16.7624 18.7017 16.7624C18.8501 16.7624 18.8501 16.7624 18.8501 16.6314C18.8501 11.4952 18.8501 6.3678 18.8501 1.23163C18.8501 1.03946 18.8501 1.03946 18.6667 1.03946C12.8579 1.03946 7.04919 1.03946 1.24042 1.03946C1.21422 1.03946 1.18801 1.03946 1.17054 1.03946C1.07446 1.03073 1.04825 1.0744 1.04825 1.17049C1.04825 6.30666 1.04825 11.4428 1.04825 16.579C1.04825 16.6139 1.03952 16.6489 1.04825 16.6838C1.05699 16.71 1.09193 16.745 1.11813 16.7537C1.15307 16.7624 1.19675 16.7537 1.23169 16.7537C4.14044 16.7624 7.04919 16.7624 9.9492 16.7624Z" fill="#FFEF22"/>
<path d="M23.0515 10.4732C23.0515 9.80065 23.0602 9.12806 23.0515 8.45547C23.0427 8.10607 23.3048 7.85275 23.6455 7.86149C24.6587 7.87022 25.6632 7.87022 26.6765 7.86149C26.9211 7.86149 27.0958 7.95757 27.2093 8.17595C27.4889 8.72625 27.7596 9.27655 28.0392 9.82686C28.3536 10.4558 28.6768 11.0934 28.9913 11.7223C29.2708 12.2901 29.559 12.8579 29.8298 13.4257C29.9696 13.7314 29.7425 14.0983 29.4106 14.1332C29.3581 14.1419 29.3057 14.1419 29.2533 14.1419C28.0916 14.1419 26.9298 14.1419 25.7681 14.1419C25.4885 14.1419 25.2964 14.0284 25.1741 13.7751C25.078 13.5829 24.9819 13.3907 24.8858 13.1898C24.8509 13.1112 24.7985 13.085 24.7111 13.085C24.3705 13.085 24.0298 13.0763 23.6891 13.0937C23.3048 13.1112 23.0427 12.8492 23.0515 12.4648C23.0602 11.801 23.0515 11.1371 23.0515 10.4732ZM24.0997 10.4732C24.0997 10.9537 24.0997 11.4341 24.0997 11.9145C24.0997 12.0106 24.1259 12.0455 24.222 12.0455C24.5277 12.0368 24.8334 12.0368 25.1479 12.0455C25.3575 12.0455 25.5147 12.1416 25.6108 12.3251C25.7244 12.5347 25.8292 12.7443 25.9253 12.9627C25.969 13.0501 26.0214 13.0937 26.1262 13.0937C26.5629 13.085 26.9997 13.0937 27.4364 13.0937C27.7422 13.0937 28.0479 13.0937 28.3449 13.0937C28.4759 13.0937 28.4846 13.085 28.4235 12.9715C28.1614 12.4474 27.8994 11.932 27.6373 11.4079C27.2355 10.6043 26.8337 9.80065 26.4319 8.99703C26.397 8.93589 26.362 8.90095 26.2834 8.90095C25.5846 8.90095 24.8946 8.90095 24.1958 8.90095C24.1084 8.90095 24.0822 8.92715 24.0822 9.0145C24.0997 9.50366 24.0997 9.99282 24.0997 10.4732Z" fill="#FFEF22"/>
<path d="M24.0999 15.1901C24.4143 15.1901 24.72 15.1901 25.0345 15.1901C25.1306 15.1901 25.1568 15.2251 25.1568 15.3124C25.1481 15.5832 25.1568 15.854 25.1568 16.1248C25.1568 16.2034 25.1306 16.2383 25.052 16.2383C24.423 16.2383 23.7941 16.2383 23.1652 16.2383C23.0866 16.2383 23.0517 16.2121 23.0604 16.1248C23.0604 15.8453 23.0691 15.5745 23.0604 15.295C23.0604 15.2076 23.0953 15.1814 23.1827 15.1814C23.4797 15.1901 23.7854 15.1901 24.0999 15.1901Z" fill="#FFEF22"/>
<path d="M7.86079 23.0604C7.85205 23.9426 7.13579 24.6327 6.24482 24.6152C5.40626 24.5977 4.70746 23.8902 4.72493 23.0167C4.7424 22.1519 5.45867 21.4619 6.3409 21.4793C7.17073 21.4881 7.86952 22.2131 7.86079 23.0604ZM6.81259 23.0429C6.81259 22.7634 6.57675 22.5188 6.29723 22.5188C6.00897 22.5188 5.77313 22.7546 5.77313 23.0429C5.77313 23.3311 6.00897 23.567 6.28849 23.567C6.56801 23.567 6.81259 23.3311 6.81259 23.0429Z" fill="#FFEF22"/>
<path d="M23.0512 23.0604C23.0425 23.9426 22.3262 24.6327 21.4352 24.6152C20.5967 24.5977 19.8979 23.8902 19.9154 23.0167C19.9328 22.1519 20.6491 21.4706 21.5313 21.4793C22.3612 21.4881 23.06 22.2131 23.0512 23.0604ZM22.003 23.0516C22.003 22.7721 21.7672 22.5275 21.4877 22.5275C21.1994 22.5275 20.9548 22.7634 20.9548 23.0516C20.9548 23.3399 21.1907 23.5757 21.4702 23.5757C21.7584 23.5757 22.003 23.3399 22.003 23.0516Z" fill="#FFEF22"/>
<path d="M5.75685 14.1419C4.72612 14.1419 3.69539 14.1419 2.66466 14.1419C2.39388 14.1419 2.21918 14.0284 2.13183 13.7838C2.09689 13.6965 2.08815 13.5916 2.11436 13.4956C2.20171 13.0588 2.30653 12.6308 2.40261 12.2028C2.48123 11.8621 2.55111 11.5215 2.62972 11.1808C2.6996 10.8489 2.77822 10.5169 2.85683 10.1763C2.93545 9.81813 3.01406 9.46873 3.09268 9.1106C3.12762 8.9621 3.15382 8.81361 3.20623 8.68258C3.28485 8.48168 3.45955 8.37686 3.67792 8.37686C4.20202 8.36812 4.72612 8.37686 5.25022 8.37686C5.59088 8.37686 5.93155 8.37686 6.26347 8.37686C6.35956 8.37686 6.41197 8.35065 6.42944 8.24583C6.49932 7.89643 6.57793 7.55577 6.65655 7.2151C6.73516 6.87444 6.80504 6.54251 6.88366 6.20185C6.96227 5.85245 7.04089 5.50305 7.1195 5.15365C7.18938 4.82172 7.27673 4.48979 7.33788 4.14913C7.39902 3.8434 7.59119 3.6687 7.91439 3.6687C9.28578 3.6687 10.6484 3.6687 12.0198 3.6687C12.3256 3.6687 12.5265 3.85214 12.5876 4.14913C12.6575 4.49852 12.7448 4.83919 12.8147 5.18859C12.8933 5.53799 12.9632 5.88739 13.0418 6.22805C13.1117 6.55125 13.1903 6.88317 13.2602 7.20637C13.3388 7.55577 13.4174 7.89643 13.4873 8.24583C13.5048 8.35065 13.5484 8.37686 13.6445 8.37686C14.4831 8.37686 15.3129 8.38559 16.1515 8.36812C16.5096 8.35939 16.7192 8.57776 16.7804 8.89222C16.8852 9.43379 17.0162 9.96662 17.1385 10.5082C17.2346 10.9449 17.3307 11.3904 17.4268 11.8272C17.5229 12.2639 17.6277 12.7094 17.7238 13.1462C17.75 13.2597 17.7762 13.3733 17.8024 13.4956C17.8723 13.845 17.6277 14.1419 17.2608 14.1419C16.2126 14.1419 15.1732 14.1419 14.125 14.1419C13.0942 14.1419 12.0722 14.1419 11.0415 14.1419C10.7795 14.1419 10.596 14.0284 10.5087 13.7838C10.4825 13.6965 10.4737 13.5916 10.4912 13.5043C10.5524 13.1724 10.6397 12.8404 10.7096 12.5172C10.7882 12.1766 10.8581 11.8446 10.9367 11.504C11.0153 11.1633 11.0852 10.8227 11.1638 10.482C11.2337 10.1588 11.3123 9.8356 11.3822 9.5124C11.3996 9.45126 11.3734 9.42505 11.3123 9.42505C11.2861 9.42505 11.2599 9.42505 11.2424 9.42505C10.3864 9.42505 9.53036 9.42505 8.67433 9.42505C8.49963 9.42505 8.50837 9.42506 8.55204 9.59102C8.63066 9.93168 8.70054 10.2723 8.77915 10.613C8.85776 10.9537 8.92764 11.3031 9.00626 11.6437C9.08487 11.9931 9.16349 12.3425 9.2421 12.6919C9.29451 12.9365 9.34692 13.1811 9.40807 13.4169C9.51289 13.8188 9.27704 14.1419 8.8665 14.1419C7.82704 14.1419 6.79631 14.1419 5.75685 14.1419ZM9.95837 8.37686C10.7445 8.37686 11.5394 8.37686 12.3256 8.37686C12.4478 8.37686 12.4478 8.35939 12.4216 8.24583C12.3605 8.00125 12.3081 7.74794 12.2557 7.50336C12.1596 7.06661 12.0635 6.62113 11.9674 6.18438C11.8713 5.74763 11.7665 5.31088 11.6704 4.86539C11.6355 4.70816 11.6442 4.70816 11.4783 4.70816C10.465 4.70816 9.45174 4.70816 8.43849 4.70816C8.40355 4.70816 8.36861 4.69943 8.3424 4.70816C8.30746 4.72563 8.27252 4.75184 8.26379 4.78678C8.22885 4.90033 8.21138 5.01389 8.18517 5.12744C8.10656 5.46811 8.03668 5.80877 7.95806 6.14944C7.87945 6.49884 7.80083 6.8395 7.72222 7.1889C7.6436 7.52956 7.57372 7.87896 7.49511 8.21963C7.46017 8.37686 7.45143 8.37686 7.6174 8.37686C8.40355 8.37686 9.18096 8.37686 9.95837 8.37686ZM5.76558 13.0937C6.55173 13.0937 7.34661 13.0937 8.13276 13.0937C8.24632 13.0937 8.25505 13.0763 8.22885 12.9715C8.1677 12.7181 8.11529 12.4648 8.05415 12.2202C7.95806 11.7835 7.86198 11.338 7.76589 10.9013C7.66981 10.4645 7.56499 10.0278 7.4689 9.58228C7.43396 9.42505 7.4427 9.42505 7.27673 9.42505C6.27221 9.42505 5.25895 9.42505 4.25443 9.42505C4.21949 9.42505 4.18455 9.41632 4.15834 9.42505C4.1234 9.44252 4.07973 9.46873 4.07099 9.50367C4.03605 9.61722 4.01858 9.73078 3.99238 9.84433C3.91376 10.185 3.84388 10.5257 3.76527 10.8663C3.68665 11.2157 3.60804 11.5564 3.53816 11.9058C3.45955 12.2465 3.38967 12.5959 3.31105 12.9365C3.27611 13.085 3.27611 13.0937 3.42461 13.0937C4.21075 13.0937 4.98817 13.0937 5.76558 13.0937ZM14.1424 13.0937C14.9198 13.0937 15.6885 13.0937 16.4659 13.0937C16.5009 13.0937 16.5358 13.1025 16.562 13.0937C16.5882 13.0763 16.6232 13.0326 16.6232 13.0151C16.6057 12.8928 16.5708 12.7793 16.5445 12.657C16.4659 12.3163 16.3873 11.9669 16.3174 11.6263C16.2388 11.2856 16.1689 10.9449 16.0903 10.6043C16.0117 10.2636 15.9331 9.92295 15.8632 9.58228C15.8283 9.43379 15.837 9.42505 15.6885 9.42505C14.6665 9.42505 13.6533 9.42505 12.6313 9.42505C12.6051 9.42505 12.5701 9.41632 12.5527 9.42505C12.5177 9.44252 12.474 9.46873 12.4653 9.49493C12.4304 9.60849 12.4129 9.72204 12.3867 9.8356C12.3081 10.1763 12.2382 10.5169 12.1596 10.8576C12.081 11.207 12.0024 11.5564 11.9237 11.9058C11.8451 12.2465 11.7752 12.5959 11.6966 12.9365C11.6617 13.0763 11.6617 13.085 11.8102 13.085C12.5789 13.0937 13.365 13.0937 14.1424 13.0937Z" fill="#FFEF22"/>
</svg>
