<svg width="30" height="30" viewBox="0 0 30 30" fill="none" xmlns="http://www.w3.org/2000/svg">
<circle cx="15" cy="15" r="15" fill="#2A2A2A"/>
<path fill-rule="evenodd" clip-rule="evenodd" d="M15.0247 7.71429H14.9758C12.6655 7.71429 10.5473 9.39057 10.3418 11.6098C10.3281 11.7686 10.3187 11.9308 10.3127 12.1055L10.3043 12.5141L10.3026 12.8804L10.3129 12.8387C10.2176 13.3036 9.99784 13.7348 9.67644 14.0872L9.63038 14.1464C9.35518 14.5645 9.19706 15.0484 9.17259 15.548L9.17201 15.7114C9.15796 16.3685 9.38315 17.0188 9.80679 17.5353C10.3813 18.1419 11.125 18.5037 11.9231 18.5805C13.9645 18.8022 16.0299 18.8022 18.077 18.5799C18.8697 18.507 19.6156 18.1441 20.166 17.5599C20.5816 17.0627 20.8084 16.466 20.8279 15.8483L20.8285 15.5717C20.8058 15.0501 20.6467 14.5657 20.3682 14.1495L20.3259 14.0952L20.2225 13.9736C19.9903 13.6836 19.8207 13.3495 19.7242 12.9922L19.6937 12.8638L19.6874 12.7293C19.6855 12.6688 19.6845 12.6017 19.6842 12.5178L19.6841 12.0563C19.6826 11.8797 19.6773 11.7542 19.6651 11.6128C19.4526 9.38939 17.3337 7.71429 15.0247 7.71429ZM14.9758 8.67109H15.0247C16.8744 8.67109 18.5618 10.0051 18.7239 11.7005C18.7334 11.8118 18.7377 11.918 18.739 12.0758L18.7409 12.6961C18.7429 12.7953 18.7468 12.8778 18.7535 12.9706L18.7623 13.0342L18.8068 13.2233C18.9387 13.7235 19.1755 14.1902 19.5014 14.5926L19.596 14.7035L19.5855 14.6861C19.7663 14.9563 19.8694 15.2699 19.8838 15.5932L19.8833 15.7053C19.8942 16.1552 19.745 16.5826 19.4628 16.9211C19.0899 17.3156 18.5568 17.575 17.9837 17.6278C15.9961 17.8436 13.9983 17.8436 12.0182 17.6286C11.4389 17.5728 10.9054 17.3132 10.511 16.8981C10.2554 16.5844 10.1078 16.1583 10.1171 15.7217L10.1172 15.5717L10.1292 15.4411C10.158 15.2225 10.231 15.001 10.3442 14.7971L10.4016 14.7021C10.8224 14.2288 11.1112 13.6533 11.2384 13.0331L11.2482 12.9359L11.2527 12.3055L11.2637 11.9857C11.2687 11.8848 11.2751 11.789 11.2831 11.6961C11.4397 10.0052 13.1255 8.67109 14.9758 8.67109ZM10.4016 14.7021L10.3709 14.7362L10.4047 14.6971L10.4016 14.7021ZM16.7883 19.845C16.5849 19.6794 16.2874 19.712 16.1238 19.9179C16.0529 20.0071 15.9708 20.0871 15.8794 20.1561C15.5696 20.399 15.183 20.5072 14.7986 20.4615C14.4148 20.4158 14.066 20.2204 13.8293 19.9196C13.6666 19.713 13.3693 19.6789 13.1651 19.8436C12.961 20.0082 12.9273 20.3092 13.09 20.5158C13.4825 21.0146 14.0576 21.3366 14.6882 21.4117C15.3181 21.4868 15.9525 21.3092 16.4514 20.9177C16.5996 20.8061 16.7393 20.6698 16.8603 20.5176C17.0239 20.3118 16.9917 20.0106 16.7883 19.845Z" fill="#FFEF22"/>
</svg>
