<svg width="33" height="36" viewBox="0 0 33 36" fill="none" xmlns="http://www.w3.org/2000/svg">
<path d="M16.0867 35.7545C10.9942 35.7545 5.90175 35.7545 0.800516 35.7545C0.503527 35.7545 0.276417 35.6409 0.119187 35.3963C0.0493076 35.2915 -0.0205722 35.178 0.00563272 35.0382C0.00563272 35.0207 0.00563272 35.0033 0.00563272 34.9858C-0.0205722 34.3656 0.0929826 33.7629 0.215272 33.1602C0.293887 32.7409 0.398707 32.3216 0.520997 31.9111C0.617082 31.5966 0.739371 31.2822 0.870396 30.9852C1.05383 30.5834 1.246 30.1816 1.46437 29.7972C1.9448 28.9499 2.54751 28.19 3.24631 27.5086C3.86649 26.9147 4.53909 26.408 5.29903 25.9975C5.67464 25.7966 6.06771 25.6306 6.46078 25.4821C7.04603 25.2638 7.64001 25.0716 8.22525 24.8707C8.78429 24.6785 9.34333 24.5038 9.90237 24.3116C9.96351 24.2942 10.0247 24.233 10.0509 24.1719C10.4177 23.4469 10.7759 22.7219 11.1427 21.9969C11.1777 21.927 11.1689 21.8833 11.1165 21.8309C10.6623 21.3592 10.278 20.8351 9.95478 20.2586C9.8849 20.1276 9.82375 19.9966 9.75387 19.8655C9.71893 19.7869 9.65779 19.752 9.5617 19.752C9.22977 19.7607 8.89784 19.7695 8.57465 19.6821C7.98941 19.5249 7.54392 19.1929 7.25567 18.6514C7.0635 18.3107 6.99362 17.9438 6.99362 17.5595C6.99362 17.3586 6.99362 17.1577 6.99362 16.9655C6.99362 16.8869 6.97615 16.8345 6.8888 16.7996C6.57434 16.6685 6.31229 16.4764 6.09391 16.223C5.77072 15.8387 5.59602 15.402 5.59602 14.8953C5.59602 13.3143 5.59602 11.7245 5.60476 10.1435C5.60476 9.53205 5.68337 8.92934 5.8144 8.33536C5.91048 7.8724 6.07645 7.41819 6.20747 6.96397C6.35596 6.47481 6.58307 6.01185 6.81892 5.55763C7.07223 5.07721 7.36049 4.62299 7.68368 4.19498C8.19905 3.50491 8.80176 2.89346 9.46562 2.34316C9.95478 1.94135 10.4789 1.58322 11.0467 1.28623C11.4747 1.05912 11.9114 0.875682 12.3569 0.692247C12.6626 0.569958 12.9683 0.465138 13.2915 0.386523C13.6671 0.290438 14.0515 0.211823 14.4358 0.141943C14.759 0.0807986 15.0909 0.0458587 15.4229 0.0109187C15.5888 -0.00655124 15.7548 0.00218375 15.912 0.00218375C16.1566 0.00218375 16.4012 -0.00655124 16.6458 0.0109187C16.8904 0.0283887 17.1349 0.0545936 17.3795 0.0895336C17.6416 0.124474 17.9036 0.168148 18.1657 0.211823C18.3753 0.255498 18.5849 0.299173 18.7858 0.369053C19.2313 0.508813 19.6855 0.648573 20.1223 0.823272C20.6289 1.02418 21.1094 1.28623 21.5723 1.56575C22.2536 1.98502 22.8738 2.48292 23.4416 3.04196C23.8609 3.46124 24.2452 3.91546 24.5946 4.39588C24.9964 4.93745 25.3371 5.49649 25.5991 6.10794C25.7913 6.55342 25.9747 6.99891 26.1145 7.46186C26.263 7.93355 26.3591 8.41397 26.4377 8.91187C26.5425 9.63687 26.5687 10.3619 26.5687 11.0956C26.5687 12.3272 26.5687 13.5501 26.5687 14.7818C26.5687 15.1923 26.4814 15.5854 26.263 15.9435C26.0446 16.3104 25.7476 16.5812 25.3633 16.7559C25.0663 16.8956 24.7431 16.9655 24.4112 16.9655C24.053 16.9655 23.6949 16.9655 23.328 16.9655C23.2407 16.9655 23.1883 16.9917 23.1795 17.0791C23.1533 17.2712 23.1184 17.4547 23.0835 17.6469C22.9874 18.0836 22.9088 18.5203 22.7777 18.9484C22.5681 19.6122 22.2711 20.2499 21.8606 20.8176C21.616 21.1583 21.3365 21.4815 21.0657 21.8134C21.0133 21.8746 20.9958 21.927 21.0395 22.0056C21.3452 22.6083 21.6422 23.2023 21.9479 23.805C22.0091 23.9186 22.0702 24.0321 22.1139 24.1544C22.1663 24.2854 22.2711 24.3204 22.3847 24.3553C22.8651 24.5125 23.3455 24.6785 23.8347 24.8357C24.2889 24.9842 24.7431 25.1327 25.1973 25.2812C25.7389 25.4647 26.2805 25.6743 26.7871 25.9363C28.01 26.5827 29.032 27.4737 29.8967 28.5568C30.3684 29.1508 30.7702 29.7972 31.1022 30.4873C31.2769 30.8454 31.4166 31.2123 31.5564 31.5879C31.6787 31.9285 31.7922 32.2692 31.8796 32.6273C31.9757 33.0292 32.0281 33.4397 32.098 33.8415C32.1678 34.2346 32.194 34.6277 32.194 35.0295C32.194 35.2915 31.9407 35.6322 31.7311 35.6933C31.6175 35.7195 31.4952 35.7457 31.373 35.7457C26.263 35.7545 21.1792 35.7545 16.0867 35.7545ZM15.3093 16.983C15.3093 16.9743 15.3093 16.9743 15.3093 16.9655C15.5539 16.9655 15.7985 16.9655 16.0431 16.9655C16.375 16.9655 16.6894 17.0267 16.9864 17.1752C17.5629 17.4547 17.9386 17.9089 18.1045 18.5203C18.253 19.0532 18.1919 19.5685 17.9211 20.0577C17.5804 20.6779 17.0563 21.0622 16.3488 21.1234C15.7635 21.1758 15.1696 21.1583 14.5843 21.1496C14.1301 21.1408 13.7283 20.9661 13.3789 20.6866C13.0994 20.4595 12.8985 20.18 12.7587 19.8568C12.7238 19.7782 12.6801 19.7607 12.6015 19.7607C12.4093 19.7607 12.2171 19.7607 12.025 19.7607C11.8241 19.7607 11.6232 19.7607 11.4135 19.7607C11.3873 19.7607 11.3524 19.7695 11.3349 19.7957C11.3262 19.8044 11.3436 19.8481 11.3524 19.8655C11.5445 20.1276 11.728 20.4071 11.9376 20.6517C12.4617 21.2631 13.0994 21.7436 13.8331 22.0842C14.3397 22.3201 14.8813 22.4598 15.4316 22.521C16.1566 22.5996 16.8816 22.5472 17.5892 22.355C18.0958 22.2152 18.5675 21.9881 18.9955 21.7086C19.5545 21.3505 20.0437 20.8963 20.4542 20.3547C20.725 19.9966 20.9609 19.621 21.153 19.2191C21.319 18.861 21.4762 18.4941 21.5461 18.1011C21.6247 17.6643 21.7208 17.2363 21.7994 16.7996C21.8693 16.3628 21.9304 15.9261 21.9828 15.498C22.044 15.0351 22.1051 14.5721 22.1488 14.1092C22.21 13.4104 22.2536 12.7116 22.306 12.0128C22.3148 11.9167 22.2886 11.873 22.1838 11.8643C21.8518 11.8206 21.5286 11.7857 21.1967 11.7158C20.7075 11.6197 20.2271 11.5236 19.7467 11.3926C19.3274 11.279 18.9169 11.148 18.5151 10.9908C18.0783 10.8161 17.6416 10.6239 17.2223 10.3968C16.7593 10.1522 16.3051 9.87271 15.8684 9.58446C15.3792 9.26127 14.925 8.87693 14.4882 8.47512C14.4446 8.43144 14.3659 8.38777 14.3135 8.3965C14.0165 8.44018 13.7108 8.47512 13.4138 8.545C12.9683 8.65855 12.5491 8.83325 12.156 9.07783C11.728 9.33988 11.3262 9.64561 11.0117 10.0299C10.6536 10.4667 10.3216 10.9296 9.97225 11.3664C9.85869 11.5149 9.81502 11.6547 9.82375 11.8468C9.86743 12.3971 9.8849 12.9387 9.93731 13.489C10.0072 14.2664 10.1033 15.0351 10.1906 15.8125C10.243 16.223 10.2954 16.6336 10.3653 17.0441C10.4352 17.4285 10.5226 17.8128 10.6012 18.2059C10.6361 18.3719 10.6361 18.3806 10.8021 18.3806C11.3698 18.3806 11.9376 18.3806 12.4967 18.3806C12.6801 18.3806 12.6801 18.3806 12.7587 18.2059C13.0994 17.4896 13.6671 17.0878 14.4446 17.0005C14.7503 16.9568 15.0298 16.983 15.3093 16.983ZM14.8114 34.3481C14.794 34.3045 14.794 34.287 14.7852 34.2783C14.5144 33.8415 14.2611 33.396 13.9641 32.9767C13.4138 32.1819 12.8373 31.3957 12.3569 30.5484C12.0599 30.0331 11.7629 29.5264 11.4921 29.0023C11.2476 28.5306 11.0292 28.0415 10.8021 27.5611C10.6623 27.2641 10.54 26.9496 10.4177 26.6439C10.3129 26.3818 10.2168 26.1285 10.112 25.8665C10.0596 25.7442 10.0421 25.7442 9.9111 25.7879C9.45688 25.9451 9.0114 26.0936 8.55718 26.2508C8.00688 26.4342 7.46531 26.6264 6.915 26.8098C6.42584 26.9758 5.96289 27.2117 5.52614 27.4912C4.73999 27.9803 4.0674 28.6005 3.48216 29.3168C3.11529 29.771 2.79209 30.2514 2.51257 30.7668C2.2942 31.1773 2.09329 31.5966 1.95353 32.0421C1.83998 32.3915 1.71769 32.7409 1.63907 33.1078C1.55172 33.4921 1.51678 33.8764 1.45564 34.2608C1.4469 34.3307 1.47311 34.3569 1.53425 34.3656C1.58666 34.3656 1.64781 34.3656 1.70022 34.3656C6.0153 34.3656 10.3304 34.3656 14.6455 34.3656C14.6979 34.3569 14.7503 34.3569 14.8114 34.3481ZM24.0356 34.3569C26.2106 34.3569 28.3943 34.3569 30.5693 34.3569C30.5868 34.3569 30.613 34.3569 30.6305 34.3569C30.6916 34.3569 30.7178 34.3219 30.7091 34.2521C30.6742 34.0249 30.648 33.7978 30.613 33.5707C30.5257 32.9942 30.3684 32.4352 30.1675 31.8936C29.9841 31.4044 29.7657 30.9415 29.5037 30.4873C28.9708 29.5701 28.307 28.7752 27.4946 28.0939C26.6124 27.3514 25.6079 26.871 24.516 26.5303C24.1317 26.408 23.7473 26.277 23.363 26.1547C22.9786 26.0237 22.5943 25.8927 22.2187 25.7704C22.1488 25.7442 22.0964 25.7529 22.0702 25.8315C22.0527 25.8927 22.0265 25.9451 22.0003 26.0062C21.7994 26.4954 21.6072 26.9845 21.3976 27.465C21.188 27.9454 20.9696 28.4258 20.7337 28.8975C20.4804 29.3954 20.2009 29.8846 19.9214 30.3737C19.6855 30.7755 19.4584 31.1773 19.1964 31.5617C18.5849 32.4439 17.9735 33.3261 17.4145 34.2433C17.397 34.2695 17.3882 34.3045 17.3795 34.3394C17.4145 34.3481 17.4407 34.3569 17.4756 34.3656C17.4931 34.3656 17.5018 34.3656 17.5193 34.3656C19.6943 34.3569 21.8693 34.3569 24.0356 34.3569ZM16.0955 4.19498C16.0955 4.18624 16.0955 4.18624 16.0955 4.17751C15.8946 4.17751 15.6937 4.17751 15.5015 4.17751C14.9512 4.17751 14.4184 4.25612 13.8855 4.40462C13.5012 4.51817 13.1256 4.6754 12.7674 4.86757C12.0162 5.27811 11.3873 5.83715 10.8807 6.52722C10.6012 6.91156 10.3653 7.33083 10.1994 7.77632C10.1033 8.02963 10.0247 8.29168 9.95478 8.55373C9.9111 8.72843 9.8849 8.9206 9.85869 9.0953C9.85869 9.12151 9.86743 9.14771 9.87616 9.17392C9.90237 9.16518 9.92857 9.15645 9.94604 9.13898C9.96351 9.13024 9.97225 9.11277 9.98972 9.0953C10.243 8.78958 10.54 8.51879 10.8545 8.28295C11.265 7.96849 11.7105 7.70644 12.1822 7.4968C12.5491 7.33957 12.9334 7.19981 13.3265 7.1212C13.7108 7.04258 14.1039 7.02511 14.497 6.9727C14.8027 6.93776 15.056 7.04258 15.2744 7.25222C15.4666 7.43565 15.65 7.61909 15.8509 7.78505C16.4187 8.24801 17.0126 8.69349 17.6678 9.02542C18.0783 9.2438 18.5063 9.4447 18.9343 9.6194C19.2837 9.76789 19.6506 9.88145 20.0175 9.98627C20.3494 10.0824 20.6901 10.161 21.0307 10.2308C21.4238 10.3095 21.8256 10.3619 22.2274 10.423C22.3148 10.4405 22.3585 10.423 22.3585 10.3269C22.3759 9.51458 22.306 8.71096 22.0265 7.93355C21.8693 7.4968 21.6684 7.08626 21.4151 6.70192C20.7512 5.71486 19.869 4.98986 18.7596 4.55311C18.2093 4.33474 17.6503 4.20371 17.0651 4.17751C16.7506 4.18624 16.4187 4.19498 16.0955 4.19498ZM24.4548 9.77663C24.6295 9.77663 24.813 9.77663 24.9877 9.77663C25.1362 9.77663 25.1449 9.76789 25.1274 9.6194C25.1187 9.56699 25.1187 9.51458 25.11 9.46217C25.0314 9.02542 24.9789 8.57994 24.8654 8.14319C24.7344 7.61909 24.5422 7.11246 24.3151 6.6233C24.053 6.073 23.7386 5.5489 23.3804 5.05974C23.0573 4.61425 22.6816 4.21245 22.2886 3.83684C21.878 3.4525 21.4325 3.1031 20.9521 2.79738C20.428 2.46545 19.8777 2.18593 19.3012 1.97629C19.0828 1.89768 18.8645 1.81033 18.6374 1.74918C18.2443 1.6531 17.8512 1.57448 17.4581 1.5046C16.9602 1.40852 16.4536 1.38231 15.947 1.39105C15.2744 1.40852 14.6105 1.46966 13.9554 1.6531C13.5361 1.76665 13.1168 1.88021 12.7238 2.03743C12.3482 2.18593 11.99 2.3781 11.6406 2.57027C10.9506 2.94587 10.3304 3.41756 9.77134 3.96787C9.2123 4.50944 8.73188 5.12088 8.33007 5.79348C7.98941 6.36125 7.70989 6.96397 7.50025 7.60162C7.34302 8.09078 7.22073 8.57994 7.14211 9.08657C7.11591 9.27 7.09844 9.4447 7.07223 9.62814C7.05476 9.75916 7.0635 9.77663 7.19452 9.77663C7.55266 9.77663 7.91079 9.77663 8.27766 9.77663C8.42616 9.77663 8.42616 9.77663 8.43489 9.62814C8.46983 8.91187 8.59212 8.21307 8.8367 7.53174C8.99393 7.10373 9.17736 6.68445 9.41321 6.29137C9.76261 5.70613 10.1819 5.18203 10.671 4.71034C11.1165 4.29106 11.6057 3.94166 12.1298 3.65341C12.6015 3.40009 13.0906 3.19919 13.606 3.05943C14.0078 2.94587 14.4184 2.85852 14.8376 2.83232C15.5015 2.79738 16.1653 2.79738 16.8292 2.79738C17.3446 2.79738 17.8599 2.86726 18.3666 2.98955C18.7946 3.09437 19.2139 3.23413 19.6157 3.40883C20.0524 3.601 20.4542 3.83684 20.8473 4.11636C21.7121 4.73654 22.3934 5.50522 22.9088 6.43987C23.0835 6.76306 23.232 7.10373 23.363 7.44439C23.4853 7.75885 23.5814 8.08204 23.6425 8.40524C23.7211 8.81578 23.7473 9.2438 23.791 9.66308C23.7997 9.75043 23.8259 9.77663 23.9133 9.77663C24.0705 9.7679 24.2627 9.77663 24.4548 9.77663ZM13.5536 29.8234C13.5711 29.8584 13.5798 29.8933 13.5885 29.9195C13.8069 30.2602 14.0165 30.6096 14.2437 30.9415C14.5232 31.3608 14.8289 31.7626 15.1084 32.1819C15.4229 32.6535 15.7111 33.1427 16.0169 33.6231C16.0693 33.7105 16.1042 33.7105 16.1566 33.6231C16.2003 33.5533 16.2527 33.4746 16.2964 33.4048C16.5672 32.9767 16.8117 32.54 17.1 32.1295C17.6154 31.4044 18.1133 30.6707 18.5849 29.9108C18.6286 29.8409 18.6286 29.7797 18.5587 29.7186C17.7376 28.9062 16.9253 28.0852 16.1129 27.2641C16.0431 27.1942 15.9994 27.2029 15.9382 27.2641C15.1608 28.0852 14.3834 28.9062 13.606 29.7273C13.5885 29.7623 13.5711 29.7885 13.5536 29.8234ZM20.9172 24.9144C20.9084 24.8794 20.891 24.8532 20.8735 24.8183C20.8386 24.7484 20.8036 24.6872 20.7774 24.6261C20.5328 24.1369 20.2883 23.639 20.0437 23.1499C19.9738 23.0189 19.9651 23.0189 19.869 23.1237C18.9431 24.102 18.0172 25.0803 17.0913 26.0586C16.9952 26.1635 16.9864 26.1635 17.0913 26.2683C17.8075 26.9933 18.5325 27.7096 19.2488 28.4346C19.3449 28.5306 19.3711 28.5219 19.4235 28.4083C19.7118 27.7794 20.0175 27.1592 20.297 26.5216C20.4892 26.0761 20.6551 25.6219 20.8298 25.1677C20.8648 25.0891 20.8822 25.0017 20.9172 24.9144ZM12.0948 23.2722C12.0686 23.3071 12.0512 23.3333 12.0337 23.3595C11.7891 23.8487 11.5445 24.3378 11.3 24.827C11.2738 24.8707 11.265 24.9406 11.2825 24.9842C11.3698 25.255 11.4659 25.5171 11.5707 25.7791C11.7367 26.1984 11.9114 26.6177 12.1036 27.0282C12.3132 27.4912 12.5403 27.9541 12.7587 28.4171C12.8024 28.5132 12.8373 28.5132 12.9072 28.4346C13.5885 27.7183 14.2611 27.002 14.9425 26.2945C15.0298 26.2071 15.0298 26.1809 14.9425 26.0936C14.7503 25.9014 14.5581 25.7092 14.3659 25.5171C13.6409 24.7921 12.9247 24.0758 12.1997 23.3508C12.1735 23.3333 12.1385 23.3071 12.0948 23.2722ZM25.1711 13.0697C25.1711 12.8863 25.1711 12.7028 25.1711 12.5107C25.1711 12.1001 25.1711 11.6896 25.1711 11.2878C25.1711 11.2266 25.1711 11.1655 25.0838 11.1655C24.6732 11.1655 24.2627 11.1655 23.8609 11.1655C23.791 11.1655 23.7648 11.1917 23.7561 11.2703C23.7386 11.5586 23.7298 11.8381 23.7036 12.1263C23.6425 12.9125 23.5814 13.6899 23.5202 14.4761C23.494 14.808 23.4591 15.1399 23.4241 15.4631C23.4154 15.5417 23.4416 15.5679 23.5202 15.5679C23.8347 15.5679 24.1404 15.5767 24.4548 15.5592C24.5771 15.5505 24.7082 15.5155 24.8217 15.4544C25.0838 15.3146 25.1711 15.07 25.1799 14.7905C25.1711 14.2227 25.1711 13.6462 25.1711 13.0697ZM7.01109 13.0697C7.01109 13.6462 7.00235 14.2227 7.01982 14.7992C7.01982 14.939 7.0635 15.0875 7.12464 15.2185C7.25567 15.4806 7.50025 15.5679 7.77977 15.5679C8.06802 15.5679 8.35628 15.5679 8.65326 15.5679C8.74935 15.5679 8.77556 15.533 8.76682 15.4456C8.73188 15.1486 8.71441 14.8517 8.67947 14.5634C8.53971 13.4803 8.5135 12.3884 8.44363 11.3053C8.43489 11.183 8.42616 11.1655 8.30387 11.1655C7.937 11.1655 7.57013 11.1655 7.20326 11.1655C7.01982 11.1655 7.01982 11.1655 7.01982 11.3402C7.01109 11.9167 7.01109 12.4932 7.01109 13.0697ZM15.3879 18.3631C15.1783 18.3631 14.9599 18.3631 14.7503 18.3631C14.5756 18.3631 14.4184 18.4068 14.2699 18.5116C13.9903 18.7125 13.9205 19.1318 14.1039 19.4201C14.2611 19.6559 14.4795 19.752 14.7503 19.752C15.1696 19.7607 15.5976 19.7607 16.0169 19.752C16.1217 19.752 16.2352 19.7345 16.3313 19.6908C16.637 19.586 16.8205 19.2279 16.7593 18.9222C16.6807 18.564 16.3925 18.3544 16.0431 18.3544C15.8334 18.3631 15.615 18.3631 15.3879 18.3631ZM14.7066 23.8225C14.6979 23.8312 14.6979 23.8487 14.6891 23.8574C14.7153 23.8924 14.7415 23.9273 14.7765 23.9622C15.1521 24.3378 15.5277 24.7134 15.9033 25.0891C15.9907 25.1764 15.9994 25.1764 16.0867 25.0803C16.4361 24.7135 16.7855 24.3466 17.1349 23.9797C17.1524 23.9622 17.1699 23.936 17.1786 23.9186C17.1786 23.9098 17.1699 23.8924 17.1699 23.8836C16.3488 24.0059 15.5277 23.9884 14.7066 23.8225ZM8.40869 17.3673C8.40869 17.4634 8.40869 17.5595 8.40869 17.6469C8.42616 18.0399 8.70568 18.3282 9.09001 18.3631C9.2123 18.3719 9.22977 18.3456 9.20357 18.2321C9.16863 18.0661 9.13369 17.8914 9.10748 17.7167C9.07254 17.5071 9.02887 17.2887 9.00266 17.0791C8.98519 16.9917 8.94152 16.9655 8.8629 16.9655C8.74935 16.9743 8.6358 16.9743 8.53098 16.9655C8.45236 16.9655 8.41742 16.9917 8.41742 17.0703C8.40869 17.1664 8.40869 17.2712 8.40869 17.3673Z" fill="#FFEF22"/>
<path d="M28.0355 32.54C27.6861 32.54 27.4852 32.3566 27.3454 32.0945C27.0747 31.5879 26.734 31.1162 26.3235 30.7144C26.1837 30.5746 26.0352 30.4523 25.8867 30.3213C25.7295 30.1815 25.5897 30.033 25.546 29.8234C25.5024 29.605 25.5635 29.4041 25.712 29.2382C26.009 28.915 26.3933 28.9237 26.7078 29.1858C27.293 29.6574 27.7997 30.2077 28.2189 30.8279C28.3762 31.055 28.5159 31.2996 28.6295 31.5442C28.8479 32.0421 28.4985 32.5225 28.0355 32.54Z" fill="#FFEF22"/>
<path d="M24.4637 28.3559C24.4637 28.7228 24.1318 29.0547 23.7649 29.0547C23.3981 29.0547 23.0661 28.7228 23.0749 28.3559C23.0749 27.9891 23.3981 27.6659 23.7649 27.6659C24.1405 27.6571 24.4637 27.9803 24.4637 28.3559Z" fill="#FFEF22"/>
</svg>
