<svg width="75" height="32" viewBox="0 0 75 32" fill="none" xmlns="http://www.w3.org/2000/svg">
<rect width="75" height="32" rx="16" fill="#FFEF22"/>
<path d="M34.0937 10.768V22H31.3577V14.976L28.9257 22H26.5577L24.1097 14.96V22H21.3737V10.768H24.7177L27.7737 18.592L30.7657 10.768H34.0937ZM39.3751 12.96C40.0577 12.96 40.6444 13.1147 41.1351 13.424C41.6257 13.7333 41.9884 14.1547 42.2231 14.688V13.072H44.9431V22H42.2231V20.384C41.9884 20.9173 41.6257 21.3387 41.1351 21.648C40.6444 21.9573 40.0577 22.112 39.3751 22.112C38.6391 22.112 37.9777 21.9307 37.3911 21.568C36.8151 21.1947 36.3564 20.6613 36.0151 19.968C35.6844 19.2747 35.5191 18.464 35.5191 17.536C35.5191 16.5973 35.6844 15.7867 36.0151 15.104C36.3564 14.4107 36.8151 13.8827 37.3911 13.52C37.9777 13.1467 38.6391 12.96 39.3751 12.96ZM40.2551 15.36C39.6684 15.36 39.1937 15.552 38.8311 15.936C38.4791 16.32 38.3031 16.8533 38.3031 17.536C38.3031 18.2187 38.4791 18.752 38.8311 19.136C39.1937 19.52 39.6684 19.712 40.2551 19.712C40.8311 19.712 41.3004 19.5147 41.6631 19.12C42.0364 18.7253 42.2231 18.1973 42.2231 17.536C42.2231 16.864 42.0364 16.336 41.6631 15.952C41.3004 15.5573 40.8311 15.36 40.2551 15.36ZM52.4108 22L50.5868 19.456L49.0988 22H46.0908L49.0508 17.344L45.9788 13.072H49.0508L50.8588 15.584L52.3468 13.072H55.3548L52.3308 17.616L55.4828 22H52.4108Z" fill="black"/>
</svg>
