<svg width="100" height="100" viewBox="0 0 100 100" fill="none" xmlns="http://www.w3.org/2000/svg">
<path fill-rule="evenodd" clip-rule="evenodd" d="M78.0641 93.7188V54.9357V16.3286V15.4872C77.9859 12.376 75.4421 9.85174 72.3308 9.79303H70.8241C70.1059 9.79303 69.3899 9.79086 68.6746 9.78868C67.2461 9.78433 65.8206 9.78 64.3863 9.79303C64.0537 9.79303 63.8189 9.71477 63.6036 9.42125C63.3884 9.10817 63.1144 8.85379 62.8209 8.61897C62.0773 8.05151 61.2164 7.83627 60.2771 7.83627H49.3388H48.9083C48.7126 7.83627 48.5757 7.77757 48.5365 7.56232C48.5267 7.5134 48.5072 7.45959 48.4876 7.40578C48.468 7.35197 48.4485 7.29816 48.4387 7.24924C48.243 6.46653 47.9299 5.72296 47.5386 5.03809C45.8557 2.14208 43.3119 0.498392 40.005 0.0679033C38.4983 -0.127773 36.9916 0.10704 35.5827 0.674502C33.0389 1.69202 31.18 3.43354 30.0842 5.95777C29.9342 6.28515 29.8317 6.62205 29.7303 6.95519L29.7303 6.95523L29.7303 6.95526L29.7303 6.95528L29.7303 6.95531C29.6862 7.10001 29.6424 7.24401 29.595 7.38621C29.458 7.85584 29.458 7.85584 28.9884 7.85584H28.6558H18.0892C17.8544 7.85584 17.6 7.85584 17.3457 7.87541C16.152 7.95368 15.1736 8.46243 14.4692 9.42125C14.2344 9.73433 13.9996 9.8126 13.6474 9.8126H6.03554C5.25283 9.8126 4.47013 9.93001 3.74612 10.2235C1.90676 10.9671 0.732701 12.2977 0.184806 14.1958C0.00869705 14.8219 0.00869674 15.4481 0.00869674 16.0938V93.6209C0.00869674 93.6869 0.00647285 93.7529 0.00427424 93.8181C-4.88623e-05 93.9463 -0.00427424 94.0717 0.00869674 94.1884C0.0151331 94.2656 0.0210402 94.3429 0.0269403 94.42L0.026951 94.4202C0.056922 94.8121 0.0867208 95.2017 0.184806 95.5777C0.634862 97.3192 1.69152 98.5911 3.2765 99.3934C4.15704 99.8435 5.09629 100 6.09424 100H41.9226H71.8808C72.5069 100 73.1331 100 73.7397 99.8043C75.6182 99.2173 76.9488 98.0432 77.6728 96.2039C77.9859 95.4016 78.0641 94.5798 78.0641 93.7188ZM66.3431 88.1029C66.3431 88.142 66.3235 88.2007 66.2844 88.279C66.1714 88.279 66.0584 88.2844 65.951 88.2895C65.8539 88.2941 65.7614 88.2985 65.6778 88.2985H48.2039C47.8321 88.2985 47.4603 88.3377 47.1081 88.4551C46.2667 88.7682 45.797 89.6487 45.9145 90.5292C46.0514 91.4098 46.8146 92.1338 47.7147 92.1925C47.8712 92.2121 48.0472 92.2121 48.2232 92.2121H48.2234C49.8668 92.2121 51.5102 92.2108 53.1535 92.2096C58.0849 92.2059 63.0163 92.2023 67.9476 92.2316C69.4152 92.2512 70.3153 91.3315 70.3153 89.8639C70.2958 66.5784 70.2958 43.2733 70.2958 19.9878C70.2958 19.6943 70.2958 19.3812 70.2175 19.1072C69.9631 18.2267 69.2391 17.6788 68.2999 17.6592H65.0125H64.4646V13.8044L64.5167 13.7978C64.652 13.7807 64.7735 13.7653 64.8951 13.7653C65.918 13.7569 66.9444 13.7593 67.9714 13.7617H67.9715H67.9715H67.9716H67.9717H67.9717H67.9718C69.3415 13.7649 70.7122 13.7681 72.0764 13.7457C73.2505 13.7261 74.2484 14.6262 74.1897 15.8786V16.4852V93.3666C74.1897 93.4724 74.192 93.576 74.1942 93.6782C74.1985 93.8781 74.2027 94.0724 74.1897 94.2667C74.131 95.2646 73.3483 96.0473 72.3504 96.1256H71.7829H6.32905C5.9377 96.1256 5.54635 96.1256 5.17456 95.9691C4.43099 95.656 4.02007 95.0885 3.9418 94.2862C3.92223 94.0906 3.92223 93.9145 3.92223 93.7188V16.133C3.92223 15.7416 3.92223 15.3503 4.07877 14.9785C4.41142 14.2153 4.99845 13.8044 5.8203 13.7457H6.25078H13.0603H13.5887C13.7061 14.1175 13.7452 17.0526 13.6278 17.6201C13.4713 17.6397 13.2951 17.6592 13.1386 17.6592C12.7757 17.6592 12.4106 17.6571 12.044 17.6549H12.0436H12.0431H12.0427H12.0423H12.0418H12.0414H12.0411C11.302 17.6506 10.5571 17.6462 9.8121 17.6592C8.91199 17.6592 8.22712 18.1876 7.9336 19.029C7.8749 19.1855 7.85533 19.3616 7.83577 19.5377V20.1443V89.7857C7.83577 90.177 7.85533 90.5879 7.97274 90.9402C8.24669 91.7424 8.87285 92.1534 9.71426 92.2121H10.1447H29.9081C30.2799 92.2121 30.6517 92.2121 31.0039 92.0555C31.8257 91.7033 32.3149 90.8228 32.1779 89.9618C32.041 89.0812 31.2974 88.3964 30.4169 88.3181C30.182 88.2985 29.9472 88.2985 29.7124 88.2985H12.3755H11.8276C11.7982 88.2594 11.7786 88.2398 11.7664 88.2276C11.7542 88.2154 11.7493 88.2105 11.7493 88.2007C11.7493 88.1909 11.7444 88.186 11.7395 88.1811C11.7346 88.1762 11.7297 88.1713 11.7297 88.1616C11.7297 88.1126 11.7248 88.0686 11.7199 88.0246C11.7151 87.9806 11.7102 87.9365 11.7102 87.8876V21.7684C11.7102 21.7293 11.7102 21.6902 11.7297 21.6706C11.7418 21.6464 11.7539 21.6297 11.7706 21.6066L11.7706 21.6066C11.781 21.5923 11.7931 21.5756 11.808 21.5532C11.8625 21.5532 11.9254 21.549 11.9928 21.5445C12.0707 21.5393 12.1546 21.5336 12.2385 21.5336C12.3566 21.5336 12.4748 21.538 12.5922 21.5424H12.5922C12.8248 21.5511 13.0545 21.5596 13.2756 21.5336C13.8626 21.4749 14.2735 21.6315 14.6649 22.1402C15.3302 22.9816 16.289 23.3926 17.3652 23.4708C17.5609 23.4904 17.7761 23.4904 17.9718 23.4904H17.9718H60.1401C60.8054 23.4904 61.4512 23.4317 62.0578 23.1578C62.7035 22.8838 63.2514 22.4729 63.6428 21.8859C63.8189 21.6119 64.0341 21.5336 64.3472 21.5336C64.7684 21.5468 65.1984 21.5423 65.6135 21.5379L65.6138 21.5379C65.8157 21.5357 66.0141 21.5336 66.2061 21.5336L66.2844 21.6119C66.2844 21.6217 66.2893 21.6266 66.2942 21.6315C66.2991 21.6364 66.304 21.6413 66.304 21.651L66.3114 21.6949C66.3282 21.7936 66.3431 21.8812 66.3431 21.9837V88.1029ZM60.4532 19.5182C60.0619 19.6356 18.1088 19.6356 17.5805 19.5377V11.8476L17.6343 11.8427L17.6343 11.8427C17.8286 11.8249 18.0078 11.8085 18.1871 11.8085H30.8669C31.1604 11.8085 31.4344 11.8085 31.7083 11.7302C32.5693 11.4954 33.1368 10.791 33.1563 9.87131C33.1759 8.97119 33.3716 8.12978 33.7434 7.32751C34.8979 4.88155 37.6178 3.57052 40.2594 4.13798C42.8228 4.68587 44.76 6.93616 44.8774 9.65606C44.8774 9.98871 44.9361 10.3214 45.0535 10.6149C45.347 11.3389 45.9144 11.7107 46.6776 11.7889C46.8249 11.8184 46.9834 11.8146 47.1362 11.8109H47.1363H47.1363H47.1364C47.1864 11.8097 47.2359 11.8085 47.2842 11.8085H59.8271C60.0227 11.8085 60.2184 11.8085 60.4532 11.8281V19.5182ZM93.4052 4.001C93.5617 4.001 93.7378 4.001 93.9922 4.02056C93.9463 4.09399 93.9134 4.1545 93.8852 4.20614L93.8852 4.20623L93.8851 4.20645C93.8533 4.26475 93.8277 4.31173 93.7966 4.35321L93.7948 4.35558C92.5822 5.95934 91.3696 7.56311 90.157 9.18643C89.9612 9.45464 89.7628 9.71749 89.5647 9.97993L89.5646 9.98006L89.5646 9.98013C89.228 10.4261 88.8922 10.8708 88.572 11.3389C87.8284 12.4151 88.2589 13.7848 89.4525 14.2545C89.746 14.3719 90.0787 14.3914 90.4113 14.3914H97.6514C97.8079 14.3914 97.984 14.3914 98.1601 14.3719C98.982 14.3132 99.6473 13.7457 99.8821 12.8652C100.078 12.1216 99.6864 11.2802 99.0211 10.8301C98.6493 10.5757 98.2188 10.4975 97.7688 10.4975H94.7162C94.6072 10.4975 94.4981 10.488 94.356 10.4756C94.2941 10.4702 94.2259 10.4643 94.1488 10.4583C94.214 10.3651 94.2615 10.2896 94.3018 10.2256L94.3019 10.2254C94.3462 10.1551 94.3818 10.0986 94.4227 10.0474C94.96 9.3343 95.4924 8.6212 96.0247 7.9081L96.0272 7.90477C96.5605 7.19054 97.0937 6.47631 97.6318 5.76209C98.0568 5.21372 98.4722 4.65575 98.8847 4.10163L98.8851 4.10107L98.8861 4.09972L98.8872 4.09827L98.8883 4.09682L98.8893 4.09537L98.8908 4.09335L98.8928 4.09074C99.0664 3.85759 99.2394 3.62514 99.4125 3.3944C99.6668 3.06175 99.8821 2.7291 99.9212 2.29861C100.019 1.08541 99.1385 0.10703 97.9058 0.10703H90.2939H90.0591C88.7872 0.146165 87.8871 1.49633 88.3372 2.68996C88.6503 3.5118 89.3155 3.98143 90.2157 4.001H93.4052ZM88.1415 28.0105C88.2263 28.017 88.298 28.0236 88.3618 28.0294C88.4893 28.041 88.585 28.0497 88.6894 28.0497C88.7963 28.0497 88.9044 28.0484 89.0131 28.0472L89.0134 28.0472C89.3424 28.0436 89.6769 28.0398 90.0004 28.0692C91.1158 28.1475 91.9376 28.9889 91.918 30.0456C91.8985 31.0044 91.1745 31.8262 90.2352 31.924C90.0591 31.9436 89.8634 31.9632 89.6678 31.9632H84.3649C84.0518 31.9632 83.7192 31.9436 83.4452 31.8458C82.2516 31.3957 81.8016 30.0064 82.5256 28.9498C82.8778 28.441 83.2474 27.9496 83.617 27.4583C83.8018 27.2126 83.9866 26.9669 84.1692 26.719C84.354 26.4703 84.5414 26.2216 84.7294 25.9719L84.7297 25.9716L84.7298 25.9714C85.0594 25.5338 85.3912 25.0933 85.7151 24.6449C85.7793 24.5678 85.8266 24.4824 85.8848 24.3774C85.9153 24.3224 85.9487 24.2621 85.989 24.1948C85.9212 24.1892 85.8599 24.1835 85.8037 24.1783C85.6654 24.1656 85.5581 24.1557 85.4607 24.1557C84.9519 24.1557 84.4628 24.1557 83.954 24.1361C82.956 24.097 82.1146 23.1577 82.1733 22.1011C82.232 21.2205 82.8582 20.4965 83.7583 20.3204C83.954 20.2813 84.1692 20.2617 84.3649 20.2617H89.7656C90.1569 20.2617 90.5483 20.3204 90.9005 20.5161C91.9572 21.1031 92.2507 22.375 91.5267 23.373C91.1224 23.9468 90.7008 24.5032 90.2791 25.0596L90.2791 25.0597L90.279 25.0598L90.2789 25.0599L90.2789 25.06L90.2788 25.06C90.0679 25.3384 89.8569 25.6167 89.6482 25.8972C89.4232 26.1907 89.203 26.4843 88.9829 26.7778L88.9817 26.7794L88.9815 26.7797C88.7618 27.0725 88.5421 27.3654 88.3176 27.6583C88.2872 27.6989 88.2673 27.7447 88.2415 27.8039L88.2415 27.804L88.2415 27.804C88.2176 27.8591 88.1886 27.9257 88.1415 28.0105ZM21.2788 49.8089C22.7659 51.2765 24.5857 52.0005 26.6794 52.02C27.5404 52.0396 28.3818 51.8635 29.2428 51.6287C30.3777 51.2569 31.3561 50.6307 32.1975 49.7893C32.9606 49.0066 32.9802 47.8913 32.2562 47.089C31.6105 46.365 30.3973 46.228 29.595 46.9129C29.5279 46.9678 29.4627 47.0227 29.3983 47.0769L29.3978 47.0774L29.3971 47.078L29.397 47.078C29.2551 47.1976 29.1166 47.3142 28.9688 47.4216C27.7165 48.3413 26.0337 48.4 24.7227 47.5978C24.4096 47.4021 24.1356 47.1673 23.8617 46.9325C23.216 46.4041 22.355 46.2867 21.6701 46.6781C20.496 47.3238 20.2808 48.8501 21.2788 49.8089ZM51.3543 52.02C49.2801 52.0004 47.4799 51.2764 45.9731 49.848C44.7991 48.7326 45.2883 47.2259 46.3254 46.678C47.0494 46.3062 47.7342 46.3649 48.3995 46.815C48.5063 46.8861 48.6058 46.9717 48.7068 47.0585L48.7069 47.0586C48.7726 47.115 48.8389 47.172 48.9083 47.2259C50.415 48.4391 52.4696 48.4195 53.9372 47.1281C54.2503 46.8541 54.5829 46.5802 55.0134 46.4823C55.8353 46.2867 56.6767 46.6193 57.1267 47.3238C57.5768 48.0478 57.5181 48.987 56.931 49.6327C56.344 50.298 55.62 50.8068 54.8373 51.1982C53.7415 51.746 52.587 52.02 51.3543 52.02ZM38.1099 63.4519L38.1108 63.4519C38.4083 63.4498 38.7066 63.4476 39.0071 63.4476H41.5313C41.7661 63.4476 42.0009 63.428 42.2357 63.3693C42.9989 63.1932 43.6055 62.5279 43.7033 61.7843C43.8011 60.9429 43.4098 60.1798 42.6858 59.7884C42.314 59.5732 41.9226 59.5536 41.5117 59.5536H36.5415H36.5415C36.3458 59.5536 36.1306 59.5536 35.9349 59.5927C34.7609 59.7689 34.0173 61.0603 34.4478 62.1561C34.7804 62.9975 35.4262 63.428 36.3263 63.4476C36.9255 63.4606 37.516 63.4563 38.1095 63.4519H38.1097H38.1099ZM37.0894 90.2357C37.0894 89.1791 37.97 88.2985 39.0266 88.2985C40.0833 88.2985 40.9638 89.1791 40.9638 90.2357C40.9638 91.312 40.0833 92.2121 38.9875 92.1925C37.9504 92.1925 37.0699 91.312 37.0894 90.2357ZM39.0462 11.7694C40.1028 11.7694 40.9638 10.8692 40.9638 9.81259C40.9638 8.75593 40.0833 7.89496 39.0071 7.87539C37.9504 7.87539 37.0699 8.75593 37.0699 9.81259C37.0699 10.8888 37.97 11.7889 39.0462 11.7694Z" fill="#FFEF22"/>
</svg>
