<svg width="12" height="15" viewBox="0 0 12 15" fill="none" xmlns="http://www.w3.org/2000/svg">
<path fill-rule="evenodd" clip-rule="evenodd" d="M6.02478 0.714355H5.97587C3.66561 0.714355 1.54736 2.39063 1.34186 4.60987C1.32815 4.76863 1.31881 4.93085 1.31278 5.10561L1.30433 5.51418L1.30266 5.88049L1.31298 5.83874C1.21764 6.30365 0.997902 6.73488 0.6765 7.08724L0.63044 7.14649C0.355244 7.56454 0.197123 8.04843 0.172648 8.54808L0.172068 8.71145C0.158018 9.36861 0.383209 10.0189 0.806851 10.5354C1.38135 11.142 2.12502 11.5038 2.92319 11.5806C4.96459 11.8023 7.02996 11.8023 9.07705 11.58C9.86976 11.507 10.6156 11.1441 11.1661 10.56C11.5817 10.0628 11.8085 9.46611 11.8279 8.84832L11.8286 8.57177C11.8058 8.05014 11.6467 7.56579 11.3682 7.14956L11.3259 7.09524L11.2226 6.9737C10.9904 6.68367 10.8208 6.34957 10.7243 5.99222L10.6938 5.86391L10.6874 5.72935C10.6855 5.66883 10.6846 5.60171 10.6843 5.51789L10.6842 5.05634C10.6826 4.87978 10.6774 4.75423 10.6652 4.61289C10.4527 2.38946 8.33381 0.714355 6.02478 0.714355ZM5.97584 1.67115H6.02475C7.87446 1.67115 9.56185 3.00514 9.72392 4.70058C9.73351 4.81188 9.73777 4.91807 9.73905 5.07582L9.74091 5.69615C9.74298 5.79536 9.74686 5.87786 9.75354 5.97069L9.76237 6.03424L9.80686 6.22334C9.93872 6.7236 10.1755 7.19029 10.5015 7.59264L10.596 7.70352L10.5856 7.68613C10.7664 7.95635 10.8694 8.26993 10.8838 8.5933L10.8833 8.70537C10.8942 9.15525 10.7451 9.58271 10.4629 9.9212C10.09 10.3157 9.55684 10.5751 8.98377 10.6279C6.99612 10.8436 4.99835 10.8436 3.01828 10.6286C2.43895 10.5729 1.90546 10.3133 1.51109 9.89815C1.25543 9.58449 1.10788 9.1584 1.11715 8.72171L1.11725 8.57176L1.12923 8.44113C1.15808 8.22257 1.23111 8.00108 1.34429 7.79714L1.40169 7.70215C1.82247 7.22888 2.11125 6.6534 2.23843 6.0332L2.2483 5.93596L2.25277 5.3056L2.26378 4.98579C2.26878 4.88491 2.27517 4.78905 2.28319 4.69613C2.43978 3.00522 4.12559 1.67115 5.97584 1.67115ZM1.40169 7.70215L1.37093 7.7363L1.40471 7.69714L1.40169 7.70215ZM7.78834 12.8451C7.58497 12.6794 7.28747 12.7121 7.12386 12.9179C7.05295 13.0071 6.97085 13.0872 6.8795 13.1561C6.56968 13.3991 6.18305 13.5073 5.7987 13.4615C5.4149 13.4158 5.06603 13.2205 4.82931 12.9197C4.66667 12.713 4.36932 12.679 4.16518 12.8436C3.96103 13.0083 3.92739 13.3093 4.09003 13.5159C4.48255 14.0146 5.0577 14.3367 5.68824 14.4118C6.31821 14.4868 6.95255 14.3093 7.4515 13.9178C7.59962 13.8061 7.73938 13.6699 7.86033 13.5177C8.02395 13.3118 7.99171 13.0107 7.78834 12.8451Z" fill="#FFEF22"/>
</svg>
