<svg width="21" height="21" viewBox="0 0 21 21" fill="none" xmlns="http://www.w3.org/2000/svg">
<path fill-rule="evenodd" clip-rule="evenodd" d="M12.2638 2.19913C11.0831 1.26696 9.41691 1.26696 8.23616 2.19913L2.73616 6.54124C1.95547 7.15757 1.5 8.09745 1.5 9.09211V15.6537C1.5 17.4486 2.95507 18.9037 4.75 18.9037H6.25C6.38807 18.9037 6.5 18.7918 6.5 18.6537V15.6537C6.5 14.1349 7.73122 12.9037 9.25 12.9037H11.25C12.7688 12.9037 14 14.1349 14 15.6537V18.6537C14 18.7918 14.1119 18.9037 14.25 18.9037H15.75C17.5449 18.9037 19 17.4486 19 15.6537V9.09211C19 8.09745 18.5445 7.15757 17.7638 6.54124L12.2638 2.19913ZM7.30669 1.02181C9.03241 -0.340603 11.4676 -0.340601 13.1933 1.02181L18.6933 5.36391C19.8343 6.2647 20.5 7.63838 20.5 9.09211V15.6537C20.5 18.2771 18.3734 20.4037 15.75 20.4037H14.25C13.2835 20.4037 12.5 19.6202 12.5 18.6537V15.6537C12.5 14.9633 11.9404 14.4037 11.25 14.4037H9.25C8.55964 14.4037 8 14.9633 8 15.6537V18.6537C8 19.6202 7.2165 20.4037 6.25 20.4037H4.75C2.12665 20.4037 0 18.2771 0 15.6537V9.09211C0 7.63838 0.665688 6.2647 1.80669 5.36391L7.30669 1.02181Z" fill="white"/>
</svg>
