<svg width="16" height="15" viewBox="0 0 16 15" fill="none" xmlns="http://www.w3.org/2000/svg">
<path d="M14.434 3.7082C13.7695 2.56788 12.865 1.66762 11.7247 0.998857C10.5843 0.334381 9.34112 0 7.99502 0C6.64893 0 5.40143 0.334381 4.25681 0.998857C3.1122 1.66333 2.20337 2.56788 1.5389 3.7082C0.87442 4.84853 0.540039 6.09174 0.540039 7.43784C0.540039 8.78394 0.87442 10.0314 1.5389 11.1761C2.20337 12.325 3.1122 13.2295 4.25681 13.894C5.40143 14.5584 6.64893 14.8928 7.99502 14.8928C9.34112 14.8928 10.5843 14.5584 11.7247 13.894C12.865 13.2295 13.7652 12.3207 14.434 11.1761C15.0985 10.0314 15.4329 8.78394 15.4329 7.43784C15.4329 6.09174 15.0985 4.84853 14.434 3.7082Z" fill="#F49C0B"/>
<path d="M13.894 3.81538C13.2295 2.67505 12.325 1.7748 11.1846 1.10603C10.0443 0.441559 8.80109 0.107178 7.45499 0.107178C6.10889 0.107178 4.86139 0.441559 3.71678 1.10603C2.57216 1.7748 1.66333 2.67505 0.998857 3.81538C0.334381 4.95571 0 6.19892 0 7.54502C0 8.89112 0.334381 10.1386 0.998857 11.2832C1.66333 12.4321 2.57216 13.3367 3.71678 14.0011C4.86139 14.6656 6.10889 15 7.45499 15C8.80109 15 10.0443 14.6656 11.1846 14.0011C12.325 13.3367 13.2252 12.4278 13.894 11.2832C14.5584 10.1386 14.8928 8.89112 14.8928 7.54502C14.8928 6.19892 14.5584 4.95571 13.894 3.81538Z" fill="#FFEF22"/>
<path d="M12.9638 4.35553C12.3936 3.37811 11.622 2.60646 10.6446 2.0363C9.66715 1.46613 8.60399 1.1832 7.45509 1.1832C6.3019 1.1832 5.23874 1.46613 4.25703 2.0363C3.66972 2.37925 3.15957 2.7908 2.71802 3.27951C3.0524 2.97514 3.42108 2.70506 3.82405 2.46928C4.80576 1.89912 5.86892 1.61618 7.02211 1.61618C8.1753 1.61618 9.23846 1.89912 10.2116 2.46928C11.1847 3.03944 11.9607 3.81109 12.5308 4.78851C13.101 5.76593 13.3839 6.82909 13.3839 7.97799C13.3839 9.13118 13.101 10.1943 12.5308 11.176C12.295 11.579 12.025 11.9477 11.7206 12.2821C12.205 11.8405 12.6209 11.3304 12.9638 10.7431C13.534 9.76136 13.8169 8.6982 13.8169 7.54501C13.8169 6.39611 13.534 5.33295 12.9638 4.35553Z" fill="#DD8403"/>
<path d="M13.3881 7.97801C13.3881 6.82482 13.1052 5.76166 12.535 4.78852C11.9648 3.81538 11.1889 3.03945 10.2158 2.46928C9.23836 1.89912 8.1752 1.61618 7.0263 1.61618C5.87312 1.61618 4.80996 1.89912 3.82825 2.46928C3.42528 2.70506 3.0566 2.97514 2.72222 3.27952C2.42642 3.60532 2.16492 3.96114 1.93342 4.35554C1.36326 5.33296 1.08032 6.39612 1.08032 7.54503C1.08032 8.69821 1.36326 9.76138 1.93342 10.7431C2.50358 11.7248 3.27952 12.5007 4.26123 13.0709C5.24294 13.6411 6.3061 13.924 7.45928 13.924C8.61247 13.924 9.67563 13.6411 10.6488 13.0709C11.0389 12.8437 11.399 12.5779 11.7248 12.2821C12.0292 11.9477 12.2992 11.579 12.535 11.1761C13.1009 10.1944 13.3881 9.12691 13.3881 7.97801Z" fill="#F49C0B"/>
<path d="M8.28663 3.57103V10.7559C8.28663 10.8631 8.32521 10.9446 8.40238 11.0046C8.51384 11.086 8.65102 11.1246 8.80964 11.1246H9.92424V11.5576H5.77877V11.1246H6.73476C6.93625 11.1246 7.082 11.0775 7.17631 10.9831C7.27063 10.8888 7.32207 10.7645 7.32207 10.6059V5.17434C7.32207 5.06288 7.2792 4.96857 7.18917 4.89141C7.09915 4.81424 6.98769 4.77566 6.85051 4.77566H5.573V4.37697C6.17317 4.29981 6.65759 4.19692 7.03056 4.06831C7.40352 3.93971 7.73362 3.77252 8.01655 3.56674L8.28663 3.57103Z" fill="#DD8403"/>
<path d="M7.99953 3.55815V10.7431C7.99953 10.8502 8.03811 10.9317 8.11528 10.9917C8.22674 11.0732 8.36392 11.1117 8.52254 11.1117H9.63715V11.5447H5.49166V11.1117H6.44765C6.64914 11.1117 6.7949 11.0646 6.88921 10.9703C6.98352 10.876 7.03497 10.7516 7.03497 10.593V5.16147C7.03497 5.05001 6.9921 4.95569 6.90207 4.87853C6.81204 4.80136 6.70058 4.76278 6.5634 4.76278H5.28589V4.3641C5.88606 4.28693 6.37049 4.18404 6.74345 4.05544C7.11642 3.92683 7.44651 3.75964 7.72945 3.55386L7.99953 3.55815Z" fill="#FFEF22"/>
</svg>
