<svg width="17" height="22" viewBox="0 0 17 22" fill="none" xmlns="http://www.w3.org/2000/svg">
<path d="M10.696 7.35971C10.6708 7.34702 10.6582 7.33433 10.633 7.33433C10.5952 7.33433 10.5573 7.33433 10.5195 7.33433C7.44346 7.33433 4.38001 7.33433 1.30395 7.33433C1.10224 7.33433 0.913142 7.30895 0.736647 7.23282C0.257589 7.0171 -0.0323658 6.5476 0.00545453 6.02735C0.0432749 5.40558 0.547545 4.92339 1.17788 4.88532C1.22831 4.88532 1.29135 4.88532 1.34178 4.88532C4.39262 4.88532 7.45607 4.88532 10.5069 4.88532C10.5573 4.88532 10.6204 4.88532 10.696 4.87263C10.6708 4.80919 10.6708 4.74574 10.6456 4.70768C10.2296 3.7433 9.54879 3.07078 8.56546 2.6901C8.11162 2.51245 7.65778 2.44901 7.17872 2.44901C5.22467 2.44901 3.27061 2.44901 1.31656 2.44901C1.12746 2.44901 0.950965 2.43632 0.77447 2.36018C0.257591 2.15716 -0.0449726 1.66228 0.00545453 1.10396C0.0558817 0.609081 0.396264 0.190337 0.875322 0.0507558C0.988783 0.0126884 1.11485 0 1.22831 0C6.06932 0 10.9229 0 15.7639 0C16.306 0 16.6842 0.266471 16.8986 0.748659C17.1759 1.38312 16.8607 2.09371 16.243 2.34749C16.0665 2.42363 15.89 2.44901 15.7009 2.44901C14.5789 2.44901 13.4569 2.44901 12.3349 2.44901C12.2845 2.44901 12.2466 2.44901 12.171 2.46169C12.1962 2.51245 12.1962 2.53783 12.2214 2.56321C12.5366 3.00733 12.7887 3.47683 12.9778 3.99708C13.0661 4.25087 13.1417 4.51734 13.2174 4.78381C13.2552 4.89802 13.2552 4.89801 13.3687 4.89801C14.1629 4.89801 14.9445 4.89801 15.7387 4.89801C15.9909 4.89801 16.2178 4.94877 16.4321 5.08835C16.8103 5.34213 16.9994 5.68474 16.9994 6.14155C16.9994 6.66181 16.659 7.09324 16.1926 7.27089C16.0539 7.32164 15.89 7.34702 15.7387 7.34702C14.9571 7.34702 14.1881 7.34702 13.4065 7.34702C13.2426 7.34702 13.23 7.34702 13.2048 7.49929C13.0913 7.98148 12.9274 8.43829 12.7131 8.86972C12.108 10.0625 11.2129 10.9634 10.0152 11.5725C9.57401 11.8009 9.10756 11.9659 8.61589 12.0801C8.17465 12.1816 7.7082 12.2323 7.25436 12.2197C7.09047 12.2197 6.92658 12.2197 6.76269 12.2197C6.72487 12.2197 6.68705 12.2197 6.62402 12.2323C6.64923 12.2704 6.64923 12.2958 6.67445 12.3212C6.71227 12.3592 6.75009 12.3973 6.78791 12.4354C9.22102 14.8844 11.6667 17.3461 14.0998 19.7951C14.2385 19.9347 14.3646 20.0742 14.4528 20.2392C14.7554 20.8483 14.4781 21.6096 13.8729 21.8888C13.6334 21.9903 13.3939 22.0284 13.1417 21.9776C12.8896 21.9269 12.6627 21.8 12.4862 21.6096C12.2466 21.3685 12.0071 21.1274 11.7802 20.8863C8.8176 17.9044 5.86761 14.9351 2.90502 11.9532C2.80416 11.8517 2.71591 11.7502 2.64027 11.636C2.22425 10.9761 2.53942 10.0879 3.28322 9.83409C3.44711 9.78334 3.611 9.77065 3.78749 9.77065C4.93471 9.77065 6.06932 9.77065 7.21654 9.77065C7.54431 9.77065 7.85948 9.74527 8.17465 9.66914C8.6411 9.55493 9.06974 9.35191 9.44794 9.07275C10.0279 8.64131 10.4565 8.08299 10.7212 7.39778C10.696 7.38509 10.696 7.3724 10.696 7.35971Z" fill="#FFEF22"/>
</svg>
