<svg width="20" height="21" viewBox="0 0 20 21" fill="none" xmlns="http://www.w3.org/2000/svg">
<path fill-rule="evenodd" clip-rule="evenodd" d="M1.5 8.75C1.5 4.74594 4.74594 1.5 8.75 1.5C12.7541 1.5 16 4.74594 16 8.75C16 12.7541 12.7541 16 8.75 16C4.74594 16 1.5 12.7541 1.5 8.75ZM8.75 0C3.91751 0 0 3.91751 0 8.75C0 13.5825 3.91751 17.5 8.75 17.5C10.7792 17.5 12.6471 16.8092 14.1314 15.65L18.7197 20.2383C19.0126 20.5312 19.4874 20.5312 19.7803 20.2383C20.0732 19.9454 20.0732 19.4706 19.7803 19.1777L15.2312 14.6285C16.641 13.0752 17.5 11.0129 17.5 8.75C17.5 3.91751 13.5825 0 8.75 0Z" fill="white" fill-opacity="0.45"/>
</svg>
