<svg width="18" height="20" viewBox="0 0 18 20" fill="none" xmlns="http://www.w3.org/2000/svg">
<path fill-rule="evenodd" clip-rule="evenodd" d="M8.75 0C6.12665 0 4 2.12665 4 4.75V6.05888C1.73301 6.41846 0 8.38185 0 10.75V14.75C0 17.3734 2.12665 19.5 4.75 19.5H12.75C15.3734 19.5 17.5 17.3734 17.5 14.75V10.75C17.5 8.38185 15.767 6.41846 13.5 6.05888V4.75C13.5 2.12665 11.3734 0 8.75 0ZM12 6V4.75C12 2.95507 10.5449 1.5 8.75 1.5C6.95507 1.5 5.5 2.95507 5.5 4.75V6H12ZM7.71967 14.7803L6.21967 13.2803C5.92678 12.9874 5.92678 12.5126 6.21967 12.2197C6.51256 11.9268 6.98744 11.9268 7.28033 12.2197L8.25 13.1893L10.7197 10.7197C11.0126 10.4268 11.4874 10.4268 11.7803 10.7197C12.0732 11.0126 12.0732 11.4874 11.7803 11.7803L8.78033 14.7803C8.48743 15.0732 8.01256 15.0732 7.71967 14.7803Z" fill="#FFEF22"/>
</svg>
