<svg width="34" height="34" viewBox="0 0 34 34" fill="none" xmlns="http://www.w3.org/2000/svg">
<path d="M7.51597 3.2012C7.99639 3.19246 8.43314 3.34096 8.80874 3.63795C9.48134 4.15331 10.1452 4.66867 10.8091 5.19277C10.8877 5.25392 10.9401 5.24518 11.0274 5.21024C11.5253 4.99187 12.032 4.79096 12.5386 4.58132C12.5997 4.55512 12.6609 4.53765 12.722 4.51144C12.8006 4.48524 12.8356 4.43283 12.8443 4.35421C12.8705 4.14457 12.8967 3.93494 12.9229 3.71656C12.9928 3.12258 13.0714 2.5286 13.1413 1.92589C13.2286 1.21836 13.5518 0.659317 14.1633 0.301182C14.3467 0.196362 14.5651 0.143953 14.7573 0.0566027C14.9407 -0.0220122 15.1241 0.00419279 15.3163 0.00419279C16.3383 0.00419279 17.3603 -0.00454219 18.3823 0.00419279C19.0461 0.0129278 19.579 0.292447 19.9983 0.807811C20.2865 1.16595 20.4001 1.57649 20.4525 2.02197C20.5224 2.64216 20.6097 3.27108 20.6883 3.89126C20.7058 4.03975 20.7233 4.19698 20.7407 4.34548C20.7495 4.43283 20.8019 4.4765 20.8805 4.50271C21.3609 4.69488 21.8413 4.88705 22.313 5.07922C22.4091 5.11416 22.4965 5.18404 22.5925 5.21024C22.6362 5.22771 22.7148 5.21024 22.7498 5.18404C23.2477 4.7997 23.7456 4.40662 24.2522 4.02228C24.5142 3.82138 24.7763 3.60301 25.0645 3.43704C25.5188 3.17499 26.0167 3.12258 26.532 3.24487C26.9251 3.33222 27.257 3.53313 27.5453 3.82138C28.2703 4.54638 28.9953 5.27139 29.7203 5.99639C30.2182 6.48555 30.4016 7.08826 30.323 7.76959C30.2793 8.13646 30.1308 8.46839 29.9037 8.75665C29.3884 9.42924 28.873 10.0931 28.3489 10.757C28.2878 10.8268 28.2965 10.888 28.3314 10.9666C28.5411 11.4645 28.7507 11.9624 28.9604 12.4603C28.9866 12.5302 29.0128 12.6 29.0302 12.6699C29.0564 12.7485 29.1088 12.7835 29.1875 12.7922C29.5194 12.8359 29.8601 12.8708 30.192 12.9145C30.6637 12.9756 31.1266 13.0368 31.5983 13.0892C32.3058 13.1765 32.8736 13.4997 33.2318 14.1199C33.3366 14.3034 33.389 14.5217 33.4763 14.7139C33.555 14.8973 33.5287 15.0808 33.5287 15.2729C33.5287 16.3037 33.5375 17.3257 33.5287 18.3564C33.52 19.0639 33.2056 19.6142 32.6378 20.0248C32.3146 20.2694 31.9302 20.3654 31.5372 20.4178C30.8908 20.4965 30.2444 20.5838 29.598 20.6624C29.4582 20.6799 29.3097 20.6886 29.17 20.7148C29.1176 20.7236 29.0477 20.7847 29.0302 20.8284C28.8293 21.4224 28.5935 21.9989 28.314 22.5579C28.2965 22.6016 28.3052 22.6802 28.3314 22.7151C28.8468 23.3877 29.3622 24.0516 29.8775 24.7155C30.5152 25.5278 30.4977 26.6546 29.7902 27.4058C29.0128 28.2269 28.2091 29.0218 27.3881 29.7992C26.8727 30.2884 26.235 30.4019 25.545 30.2447C25.2218 30.1748 24.9335 30.0089 24.6715 29.808C24.0338 29.3101 23.3874 28.8122 22.7498 28.3143C22.6799 28.2619 22.6275 28.2619 22.5489 28.2968C22.1121 28.489 21.6754 28.6811 21.2386 28.8646C21.1163 28.917 20.9853 28.9519 20.8543 28.9956C20.7757 29.0218 20.7407 29.0655 20.732 29.1441C20.7058 29.3625 20.6709 29.5721 20.6446 29.7905C20.5748 30.3845 20.4962 30.9784 20.4263 31.5812C20.3389 32.28 20.0157 32.8477 19.3955 33.2059C19.2121 33.3107 18.9937 33.3631 18.8016 33.4504C18.6181 33.5291 18.4347 33.5029 18.2425 33.5029C17.2293 33.5029 16.216 33.5029 15.2028 33.5029C14.4777 33.5029 13.9187 33.1884 13.4907 32.6119C13.2461 32.28 13.15 31.8956 13.0976 31.4851C13.019 30.8562 12.9404 30.236 12.8618 29.607C12.8443 29.4586 12.8268 29.3013 12.8094 29.1528C12.8006 29.0742 12.757 29.0305 12.6871 29.0043C12.3814 28.8908 12.0669 28.786 11.7699 28.6637C11.4991 28.5501 11.2458 28.4278 10.9838 28.3055C10.9139 28.2706 10.8615 28.2706 10.7916 28.323C10.1365 28.8384 9.4726 29.3363 8.82621 29.8516C7.98766 30.5155 6.78223 30.4718 6.02228 29.7031C5.27108 28.9432 4.5024 28.192 3.75119 27.4233C3.24456 26.8905 3.1048 26.2441 3.26203 25.5278C3.34938 25.126 3.57649 24.8115 3.82107 24.4971C4.28402 23.9031 4.73824 23.3091 5.2012 22.7239C5.25361 22.6627 5.24487 22.6103 5.21867 22.5404C5.00029 22.0338 4.79065 21.5359 4.58101 21.0293C4.55481 20.9682 4.53734 20.907 4.51987 20.8459C4.49366 20.7672 4.44999 20.7236 4.36264 20.7148C4.153 20.6886 3.94336 20.6537 3.73372 20.6275C3.13974 20.5576 2.54576 20.479 1.94305 20.4091C1.17437 20.313 0.589126 19.9462 0.230992 19.2561C0.152377 19.1163 0.126172 18.9504 0.0650271 18.7931C-0.0135877 18.601 0.0126172 18.3913 0.00388221 18.1904C0.00388221 17.1772 -0.00485277 16.1639 0.00388221 15.1507C0.00388221 14.4868 0.300872 13.954 0.807501 13.5347C1.1569 13.2552 1.56744 13.1329 2.00419 13.0805C2.65058 13.0018 3.29697 12.9145 3.94336 12.8359C4.07438 12.8184 4.21414 12.8009 4.34517 12.7835C4.42378 12.7747 4.46746 12.7311 4.49366 12.6612C4.60722 12.3642 4.71204 12.0585 4.83433 11.7615C4.94788 11.4907 5.07891 11.2199 5.2012 10.9579C5.23614 10.888 5.23614 10.8356 5.18373 10.7657C4.6771 10.1193 4.1792 9.45544 3.66384 8.81779C2.99125 7.97923 3.02619 6.76507 3.79486 6.00513C4.54607 5.25392 5.29728 4.50271 6.04849 3.76024C6.51144 3.3759 6.94819 3.20993 7.51597 3.2012ZM16.8013 32.1315C16.8624 32.1315 16.9235 32.1315 16.9934 32.1315C17.4302 32.1315 17.8582 32.1315 18.2949 32.1315C18.688 32.1402 19.0112 31.8869 19.0636 31.5025C19.0898 31.3191 19.116 31.1357 19.1335 30.9522C19.1859 30.5155 19.247 30.07 19.2995 29.6333C19.3519 29.2402 19.3955 28.8471 19.448 28.4628C19.4916 28.1745 19.6401 27.9649 19.9196 27.8688C20.2079 27.7727 20.5049 27.6766 20.7931 27.5718C21.326 27.3884 21.8413 27.1438 22.3305 26.873C22.6974 26.6721 22.9594 26.6896 23.2913 26.9516C23.37 27.0128 23.4486 27.0739 23.5272 27.1351C24.226 27.6766 24.9248 28.2182 25.6236 28.7598C25.7459 28.8558 25.8856 28.917 26.0429 28.9257C26.2612 28.9345 26.4359 28.8384 26.5932 28.6899C27.0823 28.2007 27.5802 27.7116 28.0694 27.2137C28.314 26.9691 28.5673 26.7245 28.8031 26.4712C29.0128 26.2441 29.039 25.9209 28.8643 25.6676C28.6634 25.3793 28.4363 25.0998 28.2179 24.8203C27.7899 24.2612 27.3531 23.7109 26.9251 23.1606C26.7504 22.9335 26.7155 22.6889 26.8377 22.4356C26.96 22.1648 27.1173 21.9115 27.2308 21.6407C27.4317 21.1516 27.6152 20.6624 27.7986 20.1733C27.851 20.0335 27.8859 19.885 27.9558 19.754C28.0956 19.4919 28.3576 19.4221 28.6372 19.3959C28.8905 19.3697 29.1438 19.3434 29.3971 19.3085C30.0522 19.2299 30.6986 19.1425 31.345 19.0552C31.476 19.0377 31.6158 19.0203 31.7293 18.9678C32.0176 18.8368 32.1574 18.5922 32.1574 18.2778C32.1574 17.2733 32.1574 16.2687 32.1574 15.2642C32.1574 15.2293 32.1574 15.2031 32.1574 15.1681C32.1311 14.8449 31.904 14.5916 31.5896 14.5305C31.3974 14.4955 31.1965 14.4693 30.9956 14.4431C30.5676 14.3907 30.1483 14.3296 29.7203 14.2772C29.3185 14.2247 28.9167 14.1811 28.5149 14.1287C28.1829 14.085 27.9733 13.9016 27.8685 13.5784C27.8161 13.4124 27.7724 13.2377 27.7112 13.0717C27.4929 12.4428 27.2308 11.8226 26.9076 11.2374C26.7067 10.8705 26.7242 10.6172 26.9862 10.294C27.5977 9.51659 28.2004 8.73044 28.8119 7.94429C29.0564 7.62983 29.039 7.28043 28.7594 7.00965C28.0344 6.27591 27.3007 5.54217 26.567 4.81717C26.2874 4.53765 25.938 4.52891 25.6323 4.76476C25.4576 4.89578 25.2917 5.02681 25.117 5.15783C24.4793 5.65573 23.8417 6.14489 23.204 6.64278C22.9594 6.82621 22.6974 6.85242 22.4178 6.70392C22.1733 6.58163 21.9374 6.45934 21.6928 6.33706C21.2124 6.10121 20.7145 5.91778 20.2079 5.76055C20.0681 5.71687 19.9284 5.6732 19.7974 5.61205C19.5702 5.48976 19.4742 5.28012 19.4392 5.02681C19.4043 4.73855 19.3693 4.45903 19.3344 4.17078C19.2558 3.52439 19.1684 2.878 19.0898 2.23161C19.0723 2.09185 19.0549 1.95209 19.0025 1.82107C18.8714 1.53281 18.6356 1.40179 18.3299 1.40179C17.7184 1.40179 17.107 1.40179 16.4955 1.40179C16.0937 1.40179 15.6919 1.40179 15.2901 1.40179C14.9058 1.40179 14.6 1.69004 14.5651 1.99577C14.5476 2.17047 14.5214 2.34517 14.4952 2.51113C14.4341 2.98282 14.3729 3.44578 14.3205 3.91747C14.2681 4.29307 14.2244 4.66867 14.172 5.05301C14.1283 5.35 13.9799 5.56838 13.6916 5.6732C13.3859 5.77802 13.0627 5.85663 12.757 5.98766C12.2591 6.1973 11.7612 6.42441 11.2807 6.66898C10.9139 6.85242 10.6606 6.85242 10.3374 6.59037C9.55995 5.98766 8.78254 5.38494 8.00513 4.78223C7.66446 4.52018 7.3238 4.53765 7.01807 4.84337C6.67741 5.16657 6.34548 5.50723 6.01355 5.83916C5.62921 6.2235 5.24487 6.60784 4.86927 6.99218C4.58101 7.28043 4.55481 7.62983 4.80812 7.95303C5.00029 8.20634 5.19246 8.45966 5.39337 8.70424C5.82138 9.26327 6.25813 9.81358 6.68614 10.3726C6.8259 10.5561 6.88705 10.7744 6.7997 11.0015C6.75602 11.1238 6.69488 11.2461 6.63373 11.3597C6.28433 11.9973 6.01355 12.6699 5.80391 13.3687C5.76024 13.5085 5.7253 13.6482 5.65542 13.7705C5.53313 14.0064 5.31475 14.1025 5.0527 14.1374C4.79939 14.1723 4.53734 14.1985 4.28402 14.2335C3.61143 14.3208 2.93884 14.3994 2.26624 14.4868C2.12648 14.5043 1.98672 14.5217 1.8557 14.5741C1.57618 14.6964 1.43642 14.9323 1.43642 15.238C1.43642 16.2513 1.43642 17.2733 1.43642 18.2865C1.43642 18.3127 1.43642 18.3389 1.43642 18.3739C1.46262 18.6971 1.68973 18.9416 2.00419 19.0028C2.19636 19.0377 2.3798 19.0552 2.57197 19.0814C3.02619 19.1425 3.4804 19.195 3.93462 19.2561C4.31896 19.3085 4.71204 19.3522 5.09638 19.4046C5.39337 19.4483 5.60301 19.5968 5.69909 19.885C5.76024 20.0772 5.81265 20.2694 5.88253 20.4615C6.10963 21.0992 6.36295 21.7194 6.69488 22.3046C6.88705 22.654 6.86958 22.9161 6.61626 23.2305C6.54638 23.3179 6.4765 23.4052 6.40662 23.4926C5.86506 24.1914 5.32349 24.8902 4.78192 25.589C4.68583 25.7112 4.62469 25.8423 4.61595 25.9995C4.60722 26.2179 4.7033 26.3926 4.8518 26.5498C5.2274 26.9167 5.59427 27.2923 5.96988 27.6679C6.31927 28.0173 6.65994 28.3579 7.00934 28.7073C7.29759 28.9869 7.64699 29.0131 7.96145 28.7685C8.21477 28.5763 8.46808 28.3754 8.72139 28.1833C9.2717 27.7552 9.83074 27.3185 10.381 26.8905C10.5994 26.7245 10.8527 26.6896 11.1148 26.8031C11.4292 26.9516 11.7437 27.1263 12.0669 27.2661C12.5036 27.4495 12.9491 27.6067 13.3946 27.7727C13.5256 27.8251 13.6654 27.8601 13.7964 27.9212C14.0323 28.0435 14.1283 28.2706 14.1633 28.5239C14.1982 28.7947 14.2244 29.0567 14.2594 29.3275C14.3467 30.0001 14.4253 30.664 14.5127 31.3278C14.5302 31.4589 14.5476 31.5986 14.6 31.7122C14.7398 32.0092 14.9931 32.1315 15.3076 32.1315C15.8142 32.1315 16.3121 32.1315 16.8013 32.1315Z" fill="#FFEF22"/>
<path d="M16.8015 23.7547C12.9581 23.7372 9.82223 20.6537 9.81349 16.7754C9.80476 12.9145 12.9231 9.78741 16.7927 9.78741C20.6536 9.78741 23.7633 12.8971 23.772 16.7579C23.7895 20.5839 20.706 23.7284 16.8015 23.7547ZM11.2198 16.7754C11.2024 19.8326 13.7268 22.3571 16.8015 22.3571C19.8762 22.3571 22.3919 19.8414 22.3919 16.7754C22.3919 13.7094 19.8849 11.185 16.8015 11.185C13.7268 11.185 11.1936 13.7094 11.2198 16.7754Z" fill="#FFEF22"/>
</svg>
