<svg width="31" height="34" viewBox="0 0 31 34" fill="none" xmlns="http://www.w3.org/2000/svg">
<path d="M29.8038 23.0935C29.6815 22.7004 29.5417 22.316 29.3757 21.9404C29.0788 21.2679 28.6769 20.6564 28.2053 20.0886C27.5938 19.3636 26.8775 18.7522 26.0565 18.2805C25.5935 18.0097 25.1131 17.7739 24.6064 17.6166C24.1959 17.4943 23.7854 17.3895 23.3748 17.3022C23.1652 17.2498 22.9381 17.241 22.7197 17.2061C22.6323 17.1973 22.5887 17.1537 22.5887 17.0663C22.5887 16.0181 22.5887 14.9699 22.5887 13.9217C22.5887 13.7994 22.6061 13.782 22.7284 13.782C24.2221 13.782 25.7245 13.782 27.2182 13.782C27.2531 13.782 27.2881 13.7994 27.323 13.8169C27.3056 13.8519 27.2968 13.8868 27.2706 13.913C26.9911 14.1925 26.7028 14.472 26.4233 14.7603C26.1875 14.9961 25.9516 15.2232 25.7245 15.4678C25.5498 15.66 25.5411 15.8958 25.6372 16.1229C25.742 16.3763 25.9516 16.5073 26.2312 16.5073C26.4408 16.5073 26.598 16.4025 26.7465 16.2627C27.1396 15.8609 27.5414 15.4678 27.9345 15.066C28.4149 14.5856 28.8953 14.1052 29.3757 13.6247C29.5417 13.4588 29.6203 13.2753 29.5941 13.0395C29.5767 12.8648 29.4806 12.7338 29.3583 12.6202C28.4848 11.7467 27.6113 10.8732 26.7378 9.99972C26.6941 9.95605 26.6417 9.91237 26.5893 9.8687C26.2049 9.59791 25.6459 9.85123 25.5935 10.3229C25.5673 10.55 25.6372 10.7335 25.7944 10.8907C26.2836 11.3799 26.7727 11.869 27.2619 12.3582C27.2881 12.3844 27.3056 12.428 27.323 12.463C27.2881 12.4717 27.2531 12.4892 27.2182 12.4892C25.7245 12.4892 24.2308 12.4892 22.7372 12.4892C22.6061 12.4892 22.5887 12.4717 22.5887 12.3407C22.5887 11.1353 22.5887 9.93858 22.5887 8.73315C22.5887 8.58466 22.5974 8.58466 22.7459 8.58466C23.4709 8.58466 24.1959 8.58466 24.9122 8.58466C25.6372 8.58466 26.3622 8.58466 27.0872 8.58466C27.2706 8.58466 27.4453 8.55845 27.6025 8.47984C28.0655 8.26146 28.2926 7.88586 28.2926 7.37923C28.2926 6.10392 28.2926 4.82861 28.2926 3.5533C28.2926 2.81957 28.1004 2.13824 27.6724 1.53552C26.9824 0.557206 26.0303 0.0680466 24.851 0.00690171C24.7899 0.00690171 24.7287 0.00690171 24.6589 0.00690171C17.7495 0.00690171 10.8401 0.00690171 3.93074 0.00690171C3.59881 0.00690171 3.25815 -0.0280382 2.92622 0.0593116C2.78646 0.102987 2.62923 0.111722 2.48947 0.155396C1.96537 0.321361 1.50242 0.583411 1.10934 0.95028C0.655124 1.37829 0.340664 1.88492 0.148495 2.47017C0.0349399 2.87198 0 3.26505 0 3.66686C0 8.31387 0 12.9521 0 17.5992C0 22.2898 0 26.9805 0 31.68C0 31.776 0 31.8721 0 31.9595C0.00873498 32.2303 0.0873498 32.4748 0.22711 32.7019C0.576509 33.2523 1.0744 33.5405 1.72953 33.5405C8.29823 33.5405 14.8582 33.5405 21.4269 33.5405C21.8986 33.5405 22.3703 33.5667 22.8332 33.4794C23.0254 33.4444 23.2263 33.4357 23.4098 33.4007C24.1173 33.261 24.8074 33.0513 25.4625 32.7369C26.1089 32.4224 26.7116 32.0381 27.2531 31.5664C27.9432 30.9724 28.5285 30.2824 28.9827 29.4962C29.3321 28.9022 29.6029 28.2733 29.795 27.6094C29.9523 27.0679 30.0483 26.5176 30.092 25.9585C30.1706 24.9802 30.092 24.0281 29.8038 23.0935ZM22.6061 3.58824C22.6061 3.19517 22.6848 2.81957 22.8769 2.48764C23.1564 1.98974 23.5583 1.63161 24.1173 1.45691C24.3706 1.37829 24.6239 1.32588 24.886 1.33462C25.3402 1.36082 25.7595 1.50932 26.1263 1.7801C26.4583 2.02468 26.6854 2.35661 26.8426 2.74095C26.9474 3.003 26.9824 3.26505 26.9824 3.53583C26.9824 4.75 26.9824 5.96416 26.9824 7.17832C26.9824 7.25694 26.9474 7.27441 26.8688 7.27441C26.17 7.27441 25.4712 7.27441 24.7724 7.27441C24.0823 7.27441 23.3923 7.27441 22.7022 7.27441C22.6323 7.27441 22.5887 7.26567 22.5887 7.17832C22.6061 5.98163 22.6061 4.78494 22.6061 3.58824ZM17.3739 32.239C17.1817 32.239 16.9808 32.239 16.7886 32.239C11.9233 32.239 7.05787 32.239 2.19248 32.239C2.03525 32.239 1.86929 32.239 1.71206 32.239C1.45874 32.239 1.29278 32.073 1.30151 31.8197C1.30151 31.6537 1.30151 31.4878 1.30151 31.3131C1.30151 22.1938 1.30151 13.0744 1.30151 3.94638C1.30151 3.77168 1.30151 3.58824 1.30151 3.41355C1.31025 2.98553 1.46748 2.60119 1.70332 2.25179C1.9479 1.88492 2.28857 1.64034 2.68164 1.48311C2.90001 1.39576 3.14459 1.36082 3.38044 1.32588C3.52893 1.29968 3.67743 1.31715 3.82592 1.31715C9.81812 1.31715 15.8191 1.31715 21.8113 1.31715C21.8811 1.31715 21.951 1.31715 22.0384 1.31715C21.9335 1.47438 21.8462 1.59667 21.7588 1.73643C21.5841 2.02468 21.4706 2.33041 21.3832 2.6536C21.2784 3.04668 21.2697 3.43975 21.2697 3.84156C21.2697 6.47952 21.2697 9.11749 21.2697 11.7642C21.2697 11.9651 21.2697 12.166 21.2697 12.3582C21.2697 12.4543 21.2435 12.4805 21.1387 12.4805C20.3962 12.4717 19.6624 12.4717 18.92 12.4805C18.6492 12.4805 18.3784 12.4892 18.1164 12.5154C17.7932 12.5416 17.4787 12.6464 17.1904 12.7862C16.7712 12.9871 16.3956 13.2491 16.0898 13.6073C15.8365 13.913 15.6356 14.2449 15.4959 14.6205C15.3386 15.0747 15.2862 15.529 15.2862 16.0094C15.295 16.516 15.2862 17.0314 15.2862 17.538C15.2862 18.0097 15.7404 18.3154 16.1772 18.1495C16.3781 18.0708 16.5877 17.8525 16.5877 17.5555C16.5877 17.0401 16.5877 16.5248 16.5877 16.0094C16.5877 15.7299 16.5877 15.4504 16.6751 15.1796C16.7974 14.804 16.9983 14.4808 17.304 14.2275C17.7145 13.8955 18.195 13.7732 18.7191 13.7732C19.5314 13.782 20.3438 13.7732 21.1561 13.7732C21.2347 13.7732 21.2609 13.7994 21.2609 13.8693C21.2609 13.9916 21.2609 14.1226 21.2609 14.2449C21.2609 15.1796 21.2609 16.1055 21.2609 17.0401C21.2609 17.1362 21.2347 17.1711 21.1299 17.1886C20.8679 17.2148 20.5971 17.2585 20.335 17.3022C20.2128 17.3196 20.0905 17.3633 19.9682 17.3895C19.7498 17.4507 19.5402 17.5031 19.3305 17.5642C19.1383 17.6254 18.9549 17.6952 18.7802 17.7826C18.3959 17.966 18.0115 18.1495 17.6447 18.3591C17.3564 18.5251 17.1031 18.7347 16.8323 18.9269C16.4305 19.2151 16.0986 19.5645 15.7754 19.9227C15.5221 20.2109 15.295 20.5254 15.0766 20.8398C14.7883 21.2591 14.5525 21.7046 14.369 22.1763C14.2642 22.4471 14.1507 22.7179 14.0633 22.9974C14.0022 23.1983 13.976 23.4167 13.9148 23.6176C13.7925 24.0194 13.7663 24.4386 13.7401 24.8492C13.7139 25.2423 13.7489 25.6441 13.7663 26.0372C13.7663 26.0808 13.7838 26.1158 13.7838 26.1594C13.7925 26.4564 13.8449 26.7447 13.9148 27.0329C13.9934 27.3125 14.0371 27.6007 14.1245 27.8802C14.273 28.317 14.4389 28.745 14.666 29.1468C14.8495 29.47 15.0416 29.8019 15.2513 30.1077C15.6706 30.7016 16.1597 31.2345 16.7362 31.68C16.9546 31.8547 17.1904 32.0031 17.4176 32.1691C17.4263 32.1778 17.4263 32.1866 17.4438 32.2128C17.435 32.2215 17.4088 32.239 17.3739 32.239ZM21.9248 32.2303C18.1164 32.204 15.0591 29.1555 15.0678 25.3296C15.0766 21.5212 18.16 18.4814 21.9685 18.4814C25.7245 18.4814 28.8429 21.5823 28.808 25.3646C28.8254 29.173 25.6896 32.2477 21.9248 32.2303Z" fill="#FFEF22"/>
<path d="M12.9196 15.0835C10.3952 15.0835 7.86203 15.0835 5.33762 15.0835C4.90961 15.0835 4.4816 15.0835 4.05358 15.0835C3.74786 15.0835 3.48581 15.2756 3.40719 15.5377C3.26743 15.9832 3.62557 16.385 4.05358 16.385C5.556 16.3762 7.06715 16.3762 8.56957 16.3762C10.0895 16.3762 11.6093 16.3762 13.1292 16.3762C13.234 16.3762 13.3389 16.35 13.4262 16.3064C13.6533 16.2015 13.7669 16.0006 13.7756 15.7561C13.7844 15.5202 13.6883 15.3193 13.4874 15.1883C13.2952 15.0835 13.1118 15.0835 12.9196 15.0835Z" fill="#FFEF22"/>
<path d="M13.7576 19.8877C13.7227 19.4859 13.4781 19.2588 13.0676 19.2588C11.5652 19.2588 10.054 19.2588 8.5516 19.2588C7.05792 19.2588 5.5555 19.2588 4.06182 19.2588C3.96573 19.2588 3.86091 19.2675 3.77356 19.2937C3.52025 19.3898 3.34555 19.6781 3.36302 19.9314C3.38922 20.2371 3.57266 20.4642 3.86091 20.5254C4.03561 20.5603 4.21905 20.5516 4.39375 20.5516C7.27629 20.5516 10.1588 20.5516 13.0326 20.5516C13.0938 20.5516 13.1549 20.5516 13.2073 20.5428C13.5305 20.4817 13.7839 20.1672 13.7576 19.8877Z" fill="#FFEF22"/>
<path d="M11.7315 27.557C10.465 27.557 9.19839 27.557 7.93182 27.557C6.65651 27.557 5.37247 27.557 4.09716 27.557C4.01855 27.557 3.93993 27.5658 3.87005 27.5832C3.59927 27.6444 3.42457 27.8366 3.37216 28.1161C3.32848 28.3607 3.45951 28.6227 3.66915 28.7625C3.82638 28.8586 3.99234 28.8586 4.16704 28.8586C6.66525 28.8586 9.16345 28.8586 11.6529 28.8586C11.7577 28.8586 11.8538 28.8411 11.9586 28.8323C12.212 28.8149 12.5089 28.4829 12.4565 28.151C12.4041 27.7754 12.1421 27.557 11.7315 27.557Z" fill="#FFEF22"/>
<path d="M11.7578 24.7094C12.0373 24.7094 12.247 24.6046 12.378 24.3688C12.6226 23.9233 12.3081 23.3992 11.7927 23.3992C10.7969 23.3992 9.79243 23.3992 8.79664 23.3992C7.47766 23.3992 6.15867 23.3992 4.83969 23.3992C4.5427 23.3992 4.25445 23.3905 3.95746 23.4079C3.4683 23.4429 3.20625 24.0019 3.47703 24.4124C3.61679 24.6221 3.82643 24.7094 4.07975 24.7007C5.35506 24.7007 6.6391 24.7007 7.91441 24.7007C9.19845 24.7094 10.4825 24.7007 11.7578 24.7094Z" fill="#FFEF22"/>
<path d="M19.0417 10.1482C17.845 10.1482 16.6396 10.1482 15.4429 10.1482C14.3859 10.1482 13.3203 10.1482 12.2633 10.1482C12.0886 10.1482 11.9227 10.1482 11.748 10.1569C11.5121 10.1657 11.2588 10.3666 11.2064 10.5675C11.119 10.8732 11.2151 11.1615 11.4335 11.3187C11.582 11.4235 11.7567 11.4497 11.9314 11.4497C14.2986 11.4497 16.657 11.4497 19.0242 11.4497C19.129 11.4497 19.2338 11.4322 19.3299 11.3973C19.7055 11.275 19.8453 10.8121 19.6706 10.4889C19.5308 10.253 19.3212 10.1482 19.0417 10.1482Z" fill="#FFEF22"/>
<path d="M11.5476 7.23073C11.6787 7.28314 11.8359 7.29188 11.9757 7.29188C13.1374 7.30061 14.2904 7.29188 15.4522 7.29188C16.6489 7.29188 17.8456 7.28314 19.0423 7.29188C19.4091 7.29188 19.7149 7.01236 19.7323 6.68043C19.7498 6.38344 19.5751 6.09519 19.2868 6.03404C19.1121 5.9991 18.9374 5.9991 18.754 5.9991C16.5528 5.9991 14.3516 5.9991 12.1416 5.9991C12.0019 5.9991 11.8621 5.99037 11.7223 6.00784C11.4603 6.03404 11.207 6.22621 11.172 6.54941C11.1371 6.83766 11.2681 7.12591 11.5476 7.23073Z" fill="#FFEF22"/>
<path d="M25.5761 24.7007C24.6502 24.7007 23.7243 24.7007 22.7983 24.7007C22.5887 24.7007 22.5887 24.7007 22.5887 24.4998C22.5887 23.0935 22.5887 21.6871 22.5887 20.2808C22.5887 20.1323 22.5887 19.9838 22.58 19.8266C22.5712 19.5645 22.3267 19.2937 22.0646 19.2588C21.6191 19.1889 21.2785 19.4859 21.2785 19.9314C21.2785 20.8311 21.2785 21.7221 21.2785 22.6218C21.2785 23.5127 21.2872 24.4037 21.2697 25.2947C21.261 25.6703 21.5492 26.0197 21.9947 26.0109C22.7896 26.0022 23.5758 26.0109 24.3706 26.0109C24.755 26.0109 25.1481 26.0109 25.5324 26.0109C25.9255 26.0109 26.1963 25.7227 26.2225 25.3646C26.2661 25.0239 25.9342 24.7007 25.5761 24.7007Z" fill="#FFEF22"/>
<path d="M3.84344 6.64546C3.81723 6.64546 3.78229 6.64546 3.75609 6.64546C3.70368 6.65419 3.65127 6.65419 3.59886 6.67166C3.38048 6.74154 3.23199 6.93371 3.22325 7.15209C3.21452 7.36173 3.30187 7.51896 3.4853 7.63251C3.58139 7.69366 3.67747 7.71113 3.79103 7.71113C4.63832 7.71113 5.47688 7.71113 6.32417 7.71113C6.8308 7.71113 7.34616 7.71113 7.85279 7.71113C7.879 7.71113 7.89647 7.71113 7.92267 7.71113C7.92267 7.7286 7.92267 7.7286 7.92267 7.73733C7.84406 7.94697 7.72177 8.13914 7.5558 8.30511C7.34616 8.51474 7.09285 8.6545 6.8046 8.73312C6.66484 8.76806 6.52508 8.77679 6.37658 8.77679C5.86995 8.77679 5.37206 8.77679 4.86543 8.77679C4.79555 8.77679 4.71693 8.77679 4.64705 8.803C4.32386 8.90782 4.1841 9.30089 4.36753 9.58041C4.40247 9.64156 4.45488 9.69397 4.49856 9.73764C5.73893 10.978 6.97929 12.2271 8.2284 13.4675C8.38563 13.6247 8.54286 13.7732 8.69135 13.9304C8.85732 14.0964 9.09316 14.1488 9.31154 14.0527C9.55612 13.9392 9.67841 13.6422 9.59106 13.3889C9.55612 13.3015 9.50371 13.2316 9.43383 13.1618C9.04075 12.7687 8.63894 12.3669 8.24587 11.9738C7.5558 11.2837 6.857 10.5849 6.16694 9.89487C6.15821 9.88614 6.14074 9.86867 6.12327 9.84246C6.14947 9.84246 6.16694 9.83373 6.18441 9.83373C6.25429 9.83373 6.33291 9.83373 6.40279 9.83373C6.67357 9.83373 6.93562 9.79879 7.18893 9.72017C7.45972 9.64156 7.71303 9.51927 7.94888 9.3533C8.31575 9.09125 8.604 8.75932 8.80491 8.35752C8.89226 8.17408 8.96214 7.98191 9.01455 7.78101C9.03202 7.70239 9.03202 7.70239 9.11063 7.70239C9.46003 7.70239 9.80943 7.70239 10.1588 7.70239C10.4383 7.70239 10.6655 7.48402 10.6829 7.2045C10.6917 6.99486 10.6043 6.82889 10.4296 6.71534C10.3423 6.65419 10.2374 6.63672 10.1326 6.63672C9.79196 6.63672 9.44256 6.63672 9.1019 6.63672C9.04075 6.63672 9.04075 6.63672 9.02328 6.58431C8.98834 6.47076 8.9534 6.34847 8.91846 6.23491C8.83985 6.01654 8.72629 5.81563 8.59527 5.62347C8.58653 5.61473 8.58653 5.59726 8.5778 5.57979C8.604 5.57979 8.63021 5.57979 8.64768 5.57979C9.13684 5.57979 9.63473 5.57979 10.1239 5.57979C10.185 5.57979 10.2549 5.57106 10.3161 5.55359C10.5694 5.47497 10.7179 5.23913 10.6829 4.98581C10.6567 4.78491 10.5519 4.65388 10.3685 4.56653C10.2899 4.52286 10.2025 4.52286 10.1064 4.52286C8.00129 4.52286 5.89616 4.52286 3.79976 4.52286C3.78229 4.52286 3.75609 4.52286 3.73862 4.52286C3.69494 4.53159 3.65127 4.53159 3.60759 4.54033C3.38048 4.60147 3.22325 4.81111 3.22325 5.04696C3.22325 5.2828 3.36301 5.47497 3.56392 5.55359C3.64253 5.57979 3.72115 5.58853 3.79976 5.58853C4.65579 5.58853 5.51182 5.58853 6.37658 5.58853C6.59496 5.58853 6.81333 5.61473 7.01423 5.70208C7.40731 5.86804 7.68683 6.13883 7.87026 6.52317C7.88773 6.55811 7.9052 6.60178 7.92267 6.64546C7.88773 6.64546 7.87026 6.65419 7.84406 6.65419C6.51634 6.64546 5.17989 6.64546 3.84344 6.64546Z" fill="#FFEF22"/>
</svg>
