<svg width="16" height="20" viewBox="0 0 16 20" fill="none" xmlns="http://www.w3.org/2000/svg">
<path fill-rule="evenodd" clip-rule="evenodd" d="M0.514357 4.01473C0.196892 4.1911 0 4.52572 0 4.88889V9.52757C0 13.1592 1.96892 16.5054 5.14357 18.2691L7.51436 19.5862C7.81638 19.754 8.18362 19.754 8.48564 19.5862L10.8564 18.2691C14.0311 16.5054 16 13.1592 16 9.52757V4.88889C16 4.52572 15.8031 4.1911 15.4856 4.01473L8.48564 0.125843C8.18362 -0.0419476 7.81638 -0.0419476 7.51436 0.125843L0.514357 4.01473ZM6.96967 12.3864C7.26256 12.6793 7.73743 12.6793 8.03033 12.3864L12.0303 8.38637C12.3232 8.09348 12.3232 7.6186 12.0303 7.32571C11.7374 7.03282 11.2626 7.03282 10.9697 7.32571L7.5 10.7954L6.03033 9.32571C5.73744 9.03282 5.26256 9.03282 4.96967 9.32571C4.67678 9.6186 4.67678 10.0935 4.96967 10.3864L6.96967 12.3864Z" fill="#FFEF22"/>
</svg>
