<svg width="22" height="21" viewBox="0 0 22 21" fill="none" xmlns="http://www.w3.org/2000/svg">
<path fill-rule="evenodd" clip-rule="evenodd" d="M13.1912 0.092334C15.742 -0.43283 18.1434 1.34417 18.4638 3.84888C20.202 4.78113 21.4053 6.58101 21.4947 8.66943H21.5V8.91943V14.9194V15.1694H21.4947C21.3638 18.2291 18.8419 20.6694 15.75 20.6694H5.75C2.57436 20.6694 0 18.0951 0 14.9194V10.9195V8.91943V7.49495C0 4.76624 1.91784 2.41332 4.5905 1.86307L13.1912 0.092334ZM15.75 4.66943C18.0133 4.66943 19.8634 6.43859 19.9928 8.66943H16.25C14.4551 8.66943 13 10.1245 13 11.9194C13 13.7144 14.4551 15.1694 16.25 15.1694H19.9928C19.8634 17.4003 18.0133 19.1694 15.75 19.1694H5.75C3.40279 19.1694 1.5 17.2666 1.5 14.9194V10.9195V8.91943C1.5 6.57222 3.40279 4.66943 5.75 4.66943H15.75ZM16.25 10.1694H20V13.6694H16.25C15.2835 13.6694 14.5 12.8859 14.5 11.9194C14.5 10.9529 15.2835 10.1694 16.25 10.1694ZM13.4937 1.56152C14.8967 1.27266 16.2313 2.03835 16.7606 3.25796C16.4325 3.19979 16.0948 3.16943 15.75 3.16943H5.75C5.72727 3.16943 5.70457 3.16957 5.6819 3.16983L13.4937 1.56152ZM4.75 14.6694C4.33579 14.6694 4 15.0052 4 15.4194C4 15.8336 4.33579 16.1694 4.75 16.1694H10.75C11.1642 16.1694 11.5 15.8336 11.5 15.4194C11.5 15.0052 11.1642 14.6694 10.75 14.6694H4.75ZM16.25 11.1694C15.8358 11.1694 15.5 11.5052 15.5 11.9194C15.5 12.3336 15.8358 12.6694 16.25 12.6694H16.45C16.8642 12.6694 17.2 12.3336 17.2 11.9194C17.2 11.5052 16.8642 11.1694 16.45 11.1694H16.25Z" fill="white" fill-opacity="0.45"/>
</svg>
